<svg width="50" height="50" viewBox="0 0 50 50" fill="none" xmlns="http://www.w3.org/2000/svg">
<g clip-path="url(#clip0)">
<path d="M43.1034 37.5169C43.2568 37.25 43.3866 36.9702 43.4914 36.6807L47.6207 25.3359L49.6896 19.6721C50.1586 18.3826 50.096 16.9596 49.5155 15.7163C48.9351 14.473 47.8845 13.5113 46.5948 13.0428L15.8103 1.83587C14.5209 1.36693 13.0979 1.42956 11.8546 2.00999C10.6113 2.59041 9.64954 3.64106 9.18103 4.9307L7.12069 10.5945L3.5 20.5342L43.1034 37.5169Z" fill="#2980BA"/>
<path d="M42.75 23.5599L47.6207 25.3358L49.6897 19.672L9.18107 4.93066L7.12073 10.5944L33.6724 20.2582L42.75 23.5599Z" fill="#35495E"/>
<path d="M37.931 20.2578H5.17241C2.31577 20.2578 0 22.5736 0 25.4302V43.5337C0 46.3903 2.31577 48.7061 5.17241 48.7061H37.931C40.7877 48.7061 43.1034 46.3903 43.1034 43.5337V25.4302C43.1034 22.5736 40.7877 20.2578 37.931 20.2578Z" fill="#2FA8CC"/>
<path d="M12.931 26.2925V28.0166H7.75854V24.5684H11.2068C12.1579 24.5712 12.9281 25.3415 12.931 26.2925Z" fill="#F0C419"/>
<path d="M7.75858 24.5684V28.0166H4.3103V26.2925C4.31314 25.3415 5.0834 24.5712 6.03444 24.5684H7.75858Z" fill="#F29C1F"/>
<path d="M7.75858 28.0166V31.4649H6.03444C5.0834 31.462 4.31314 30.6918 4.3103 29.7407V28.0166H7.75858Z" fill="#F0C419"/>
<path d="M12.931 28.0166V29.7407C12.9281 30.6918 12.1579 31.462 11.2068 31.4649H7.75854V28.0166H12.931Z" fill="#F29C1F"/>
<path d="M11.207 39.2242H6.03456C5.55845 39.2242 5.17249 38.8382 5.17249 38.3621C5.17249 37.886 5.55845 37.5 6.03456 37.5H11.207C11.6831 37.5 12.069 37.886 12.069 38.3621C12.069 38.8382 11.6831 39.2242 11.207 39.2242Z" fill="#ECF0F1"/>
<path d="M19.8277 39.2241H14.6553C14.1792 39.2241 13.7932 38.8382 13.7932 38.3621C13.7932 37.886 14.1792 37.5 14.6553 37.5H19.8277C20.3038 37.5 20.6898 37.886 20.6898 38.3621C20.6898 38.8382 20.3038 39.2241 19.8277 39.2241Z" fill="#ECF0F1"/>
<path d="M28.4484 39.2241H23.276C22.7999 39.2241 22.4139 38.8382 22.4139 38.3621C22.4139 37.886 22.7999 37.5 23.276 37.5H28.4484C28.9245 37.5 29.3104 37.886 29.3104 38.3621C29.3104 38.8382 28.9245 39.2241 28.4484 39.2241Z" fill="#ECF0F1"/>
<path d="M37.069 39.2241H31.8966C31.4205 39.2241 31.0345 38.8382 31.0345 38.3621C31.0345 37.886 31.4205 37.5 31.8966 37.5H37.069C37.5451 37.5 37.9311 37.886 37.9311 38.3621C37.9311 38.8382 37.5451 39.2241 37.069 39.2241Z" fill="#ECF0F1"/>
<path d="M7.7587 44.397H6.03456C5.55845 44.397 5.17249 44.011 5.17249 43.5349C5.17249 43.0588 5.55845 42.6729 6.03456 42.6729H7.7587C8.23481 42.6729 8.62077 43.0588 8.62077 43.5349C8.62077 44.011 8.23481 44.397 7.7587 44.397Z" fill="#ECF0F1"/>
<path d="M13.7932 44.397H12.0691C11.593 44.397 11.207 44.011 11.207 43.5349C11.207 43.0588 11.593 42.6729 12.0691 42.6729H13.7932C14.2693 42.6729 14.6553 43.0588 14.6553 43.5349C14.6553 44.011 14.2693 44.397 13.7932 44.397Z" fill="#ECF0F1"/>
<path d="M36.2068 30.6031C37.6351 30.6031 38.793 29.4452 38.793 28.0169C38.793 26.5886 37.6351 25.4307 36.2068 25.4307C34.7785 25.4307 33.6206 26.5886 33.6206 28.0169C33.6206 29.4452 34.7785 30.6031 36.2068 30.6031Z" fill="#C03A2B"/>
<path d="M31.0346 30.6031C32.4629 30.6031 33.6208 29.4452 33.6208 28.0169C33.6208 26.5886 32.4629 25.4307 31.0346 25.4307C29.6063 25.4307 28.4484 26.5886 28.4484 28.0169C28.4484 29.4452 29.6063 30.6031 31.0346 30.6031Z" fill="#ECF0F1"/>
</g>
<defs>
<clipPath id="clip0">
<rect width="50" height="50" fill="white"/>
</clipPath>
</defs>
</svg>
