<svg width="50" height="50" viewBox="0 0 50 50" fill="none" xmlns="http://www.w3.org/2000/svg">
<g clip-path="url(#clip0)">
<path d="M25.0001 30.6022C24.532 30.6022 24.1526 30.2227 24.1526 29.7547V19.492C24.1526 19.024 24.532 18.6445 25.0001 18.6445C25.4681 18.6445 25.8475 19.024 25.8475 19.492V29.7547C25.8475 30.2227 25.4681 30.6022 25.0001 30.6022Z" fill="#7F8C8D"/>
<path d="M13.1356 29.7247H46.178C46.6239 29.7085 47.0578 29.8706 47.3839 30.1752C47.7099 30.4798 47.9012 30.9017 47.9153 31.3476V46.6019C47.9374 47.5418 47.2021 48.326 46.2628 48.3646H13.1356V29.7247Z" fill="#4FBA6F"/>
<path d="M44.5255 42.3809C43.8526 42.3829 43.2085 42.6534 42.7359 43.1323C42.2633 43.6112 42.0015 44.259 42.0085 44.9317H21.5509C21.5579 44.259 21.2961 43.6112 20.8235 43.1323C20.3509 42.6534 19.7067 42.3829 19.0339 42.3809V35.6012C20.4197 35.5937 21.5509 34.4906 21.5933 33.1055H41.9577C42.008 34.4904 43.1396 35.5904 44.5255 35.6012V42.3809Z" fill="#7ED09E"/>
<path d="M44.5254 42.3809C43.8526 42.3829 43.2084 42.6534 42.7359 43.1323C42.2633 43.6112 42.0015 44.259 42.0085 44.9317H20.7543C20.7613 44.259 20.4994 43.6112 20.0269 43.1323C19.5543 42.6534 18.9101 42.3829 18.2373 42.3809V35.6012C19.6303 35.6081 20.7723 34.4981 20.8051 33.1055H41.9661C42.0085 34.4906 43.1397 35.5937 44.5254 35.6012V42.3809Z" fill="#7ED09E"/>
<path d="M30.9749 44.9935C33.7831 44.9823 36.049 42.3172 36.0359 39.0409C36.0228 35.7647 33.7356 33.1178 30.9274 33.1291C28.1192 33.1403 25.8533 35.8054 25.8664 39.0816C25.8795 42.3579 28.1666 45.0047 30.9749 44.9935Z" fill="#4C8056"/>
<path d="M28.4153 37.3669C28.4124 36.6926 28.6774 36.0448 29.1522 35.5659C29.6269 35.0871 30.2724 34.8164 30.9467 34.8135C33.4636 34.8016 34.2806 38.1881 32.6569 38.1957C32.1904 38.192 31.8131 37.8147 31.8094 37.3482C31.8077 37.0054 31.5996 36.6974 31.2821 36.5679C30.9647 36.4383 30.6005 36.5128 30.3594 36.7566C30.1183 37.0003 30.0478 37.3653 30.1809 37.6813C30.3139 37.9973 30.6242 38.202 30.967 38.1999C31.4334 38.1999 31.8121 38.5768 31.8145 39.0432C31.8204 40.6677 28.4263 39.8838 28.4153 37.3669Z" fill="#4FBA6F"/>
<path d="M30.9721 43.2869C28.4628 43.2869 27.6493 39.9081 29.2772 39.9039C29.7453 39.9039 30.1247 40.2833 30.1247 40.7514C30.1247 41.0945 30.3316 41.4038 30.6488 41.5347C30.966 41.6656 31.3308 41.5923 31.5729 41.3491C31.8149 41.1058 31.8864 40.7406 31.7539 40.4241C31.6213 40.1076 31.311 39.9022 30.9679 39.9039C30.6651 39.905 30.3848 39.7444 30.2325 39.4827C30.0802 39.2211 30.0791 38.898 30.2295 38.6353C30.38 38.3725 30.6592 38.21 30.962 38.209C31.6342 38.2137 32.2786 38.4782 32.7603 38.9471C33.486 39.673 33.704 40.7641 33.3129 41.7131C32.9219 42.6622 31.9986 43.283 30.9721 43.2869Z" fill="#4FBA6F"/>
<path d="M30.9543 36.5077C30.4846 36.5082 30.1022 36.13 30.0975 35.6603V33.1179C30.0962 32.8151 30.2564 32.5346 30.518 32.3821C30.7795 32.2295 31.1026 32.228 31.3654 32.3782C31.6283 32.5284 31.7911 32.8075 31.7925 33.1103V35.6526C31.7967 36.12 31.4217 36.5026 30.9543 36.5077Z" fill="#4FBA6F"/>
<path d="M30.9933 45.8301C30.5238 45.8306 30.1419 45.4521 30.1382 44.9826V42.4402C30.1368 42.2167 30.2244 42.0018 30.3816 41.8428C30.5388 41.6838 30.7528 41.5939 30.9763 41.5928C31.445 41.5909 31.8275 41.9673 31.8331 42.436V44.9784C31.8355 45.4451 31.46 45.8259 30.9933 45.8301Z" fill="#4FBA6F"/>
<path d="M39.2289 7.61854C38.6696 7.25414 38.1018 6.8982 37.5085 6.57617C38.0993 6.8942 38.6735 7.2421 39.2289 7.61854Z" fill="#F0C419"/>
<path d="M10.7712 7.61854C11.3266 7.2421 11.9008 6.8942 12.4916 6.57617C11.8984 6.8982 11.3306 7.25414 10.7712 7.61854Z" fill="#F0C419"/>
<path d="M25.0001 4.23729C24.532 4.23729 24.1526 3.85787 24.1526 3.38983V0.847458C24.1526 0.37942 24.532 0 25.0001 0C25.4681 0 25.8475 0.37942 25.8475 0.847458V3.38983C25.8475 3.85787 25.4681 4.23729 25.0001 4.23729Z" fill="#95A5A5"/>
<path d="M14.6441 40.7457C14.1729 40.7467 13.788 40.3694 13.7797 39.8982C13.7779 39.6744 13.8654 39.4591 14.0229 39.3C14.1804 39.1409 14.3948 39.0512 14.6187 39.0508C15.0892 39.0498 15.4728 39.4278 15.4788 39.8982C15.4816 40.1216 15.3949 40.3368 15.2381 40.496C15.0814 40.6551 14.8675 40.745 14.6441 40.7457Z" fill="black"/>
<path d="M20.7627 43.2205C20.7627 45.0934 17.3474 46.6103 13.1356 46.6103C9.14405 46.6103 5.86439 45.2459 5.54236 43.5086C10.5195 44.9459 17.3729 43.4391 17.3729 40.6781V40.3984C17.3983 40.4069 17.4322 40.4154 17.4576 40.4239C19.4491 41.034 20.7627 42.0595 20.7627 43.2205Z" fill="#F9EAB0"/>
<path d="M20.7628 43.2207V46.6105C20.7628 48.4834 17.3475 50.0003 13.1357 50.0003C8.9238 50.0003 5.50854 48.4834 5.50854 46.6105V43.5004C5.52041 43.5 5.53214 43.5029 5.54244 43.5088C5.86448 45.2461 9.14414 46.6105 13.1357 46.6105C17.3475 46.6105 20.7628 45.0936 20.7628 43.2207Z" fill="#F0C419"/>
<path d="M20.7628 32.2033C20.7628 35.544 11.0882 36.816 6.89838 34.1525C6.1336 33.7816 5.60996 33.0472 5.50854 32.2033C5.50854 30.3304 8.9238 28.8135 13.1357 28.8135C17.3475 28.8135 20.7628 30.3304 20.7628 32.2033Z" fill="#F9EAB0"/>
<path d="M17.3729 38.4152V40.6779C17.3729 43.4482 10.5364 44.9508 5.54238 43.5084C5.45764 43.466 2.11865 42.6008 2.11865 40.6779V37.2881C2.11865 38.9321 4.76272 40.305 8.26272 40.6101C10.8424 40.8406 15.1161 40.4406 16.8051 38.5677C17 38.5169 17.1949 38.466 17.3729 38.4152Z" fill="#F3D55B"/>
<path d="M16.8052 38.5675C16.1968 39.1756 15.4535 39.6315 14.6357 39.898C12.59 40.603 10.4136 40.8461 8.26279 40.6099C1.67804 40.0362 -0.190599 36.1684 5.50855 34.4658V35.5929C5.50855 37.4658 8.92381 38.9828 13.1357 38.9828C14.3709 38.9885 15.6025 38.8492 16.8052 38.5675Z" fill="#F9EAB0"/>
<path d="M20.7628 32.2031V35.593C20.7628 36.7709 19.4153 37.8048 17.373 38.415C12.1907 39.8963 5.50854 38.2887 5.50854 35.593V32.2031C5.60996 33.047 6.1336 33.7814 6.89838 34.1523C11.1984 36.8862 20.7628 35.4608 20.7628 32.2031Z" fill="#F3D55B"/>
<path d="M48.517 21.7967C47.3043 13.3051 40.3594 6.81276 32.4043 4.44326C19.9221 0.725467 6.00003 7.01106 2.21952 18.6492C1.7627 19.7114 1.51 20.8502 1.47461 22.006C1.61444 23.1831 2.80088 22.9585 3.35173 22.2865C4.63779 20.8807 6.51055 20.1624 8.40681 20.3475C11.8416 20.517 11.7348 22.5568 13.4068 22.8509C15.3204 23.1899 15.6797 20.9306 17.8534 20.4534C19.6094 20.0678 21.5822 20.3526 22.6627 21.7094C23.2854 22.5053 24.2666 22.9346 25.2738 22.8517C26.2168 22.6975 27.0534 22.1581 27.5831 21.3628C28.8068 19.995 31.9127 20 33.35 20.9551C34.2602 21.5611 34.7907 22.7102 35.9627 22.8645C36.9678 22.9958 37.5729 22.3873 38.2246 21.7348C40.3619 19.589 44.75 19.9738 46.6475 22.2865C46.9534 22.6611 47.2678 22.9882 47.8009 22.8577C48.2766 22.7403 48.5861 22.2817 48.517 21.7967Z" fill="#F0C419"/>
<path d="M24.4916 3.40642C20.9077 3.40659 18.023 6.99388 16.4857 9.82269C14.3582 13.8189 13.2264 18.2694 13.1865 22.7964C11.9908 22.4515 11.8204 21.154 9.81873 20.5685C7.8188 20.0133 5.67486 20.4008 3.99584 21.621C3.53482 22.0032 3.19499 22.771 2.57296 22.8659C0.775502 23.1396 1.74499 20.3007 1.96703 19.4896C4.63822 9.75404 14.7136 3.36845 24.4916 3.40642Z" fill="#F3D55B"/>
<path d="M36.8136 22.7964C35.5517 23.1676 34.8017 22.2608 33.9881 21.4812C33.2174 20.7388 32.1861 20.3286 31.1161 20.3388C29.9842 20.2445 28.8514 20.5086 27.878 21.0939C27.4627 21.4108 27.2475 21.8947 26.8347 22.2202C26.3058 22.623 25.6645 22.8511 25 22.8727V3.38965C28.839 3.38965 31.7237 6.58795 33.4475 9.69812C35.6218 13.724 36.7775 18.221 36.8136 22.7964Z" fill="#F3D55B"/>
</g>
<defs>
<clipPath id="clip0">
<rect width="50" height="50" fill="white"/>
</clipPath>
</defs>
</svg>
