<svg width="50" height="50" viewBox="0 0 50 50" fill="none" xmlns="http://www.w3.org/2000/svg">
<g clip-path="url(#clip0)">
<path d="M39.8112 34.1871L34.4396 32.1068V32.2688C34.4396 32.6577 34.1244 32.973 33.7355 32.973H31.7225C31.3336 32.973 31.0184 32.6577 31.0184 32.2688V30.7819L29.536 30.2078C29.4975 30.193 29.4613 30.1745 29.4266 30.1539L25.0015 34.7257L20.5696 30.1445C20.4389 30.2229 20.3019 30.2665 20.2137 30.3007V30.3006L18.8977 30.8107V32.2669C18.8977 32.6567 18.5817 32.9729 18.1917 32.9729H16.1735C15.7836 32.9729 15.4675 32.6567 15.4675 32.2669V32.1405L10.189 34.187C8.48872 34.8867 6.21216 37.0884 6.21216 40.3555V48.675C6.21216 49.4068 6.80552 50.0002 7.53735 50.0002H42.4626C43.1946 50.0002 43.7878 49.4068 43.7878 48.675V40.3555C43.7879 37.542 41.9866 35.0824 39.8112 34.1871Z" fill="#60B8FE"/>
<path d="M10.3667 48.6747V38.5442C10.3667 35.9604 11.7908 34.0438 13.2274 33.0088L10.189 34.1867C8.48872 34.8864 6.21216 37.0881 6.21216 40.3552V48.6747C6.21216 49.4065 6.80552 49.9999 7.53735 49.9999H11.6919C10.9601 49.9999 10.3667 49.4065 10.3667 48.6747Z" fill="#23A8FE"/>
<path d="M20.5696 30.1441L25.0015 34.7253L29.4266 30.1535C29.207 30.0233 29.0668 29.7858 29.0661 29.5235L29.0638 26.805C27.9247 27.5504 26.565 27.9855 25.1049 27.9855C23.4949 27.9855 22.0818 27.5392 20.9295 26.7939V29.5191C20.9296 29.8499 20.756 30.0325 20.5696 30.1441Z" fill="#FFBD86"/>
<path d="M23.8705 32.1746V27.8937C22.7662 27.7276 21.7772 27.3421 20.9296 26.7939V29.5191C20.9296 29.85 20.7561 30.0326 20.5696 30.1442L23.4632 33.1353C23.6942 32.9265 23.8705 32.6258 23.8705 32.1746Z" fill="#F6A96C"/>
<path d="M35.0795 16.4407L35.0325 16.3857L34.9973 16.4489C34.4951 17.3497 33.5123 17.7197 32.3687 17.4391L32.3064 17.4237V21.0358C32.3064 21.0774 32.305 21.1186 32.3035 21.1599L32.3004 21.2697L32.346 21.2751C32.4775 21.2905 32.6085 21.298 32.7388 21.298C33.5263 21.298 34.2811 21.0202 34.8548 20.5099C35.4648 19.9672 35.8147 19.2054 35.8147 18.4198C35.8149 17.699 35.5537 16.9962 35.0795 16.4407Z" fill="#FFBD86"/>
<path d="M34.2749 17.2139C33.7596 17.532 33.0971 17.6182 32.3688 17.4395L32.3065 17.4241V21.0362C32.3065 21.0778 32.3051 21.119 32.3037 21.1603L32.3005 21.2701L32.3461 21.2755C32.4776 21.2909 32.6086 21.2984 32.7389 21.2984C33.2828 21.2984 33.811 21.1658 34.2749 20.9156V17.2139Z" fill="#F6A96C"/>
<path d="M17.6963 21.1645C17.695 21.1217 17.6936 21.0788 17.6936 21.0359V17.4238L17.6313 17.4392C16.4959 17.7177 15.5482 17.3752 15.0308 16.4989L14.9956 16.4395L14.9498 16.4911C14.4567 17.0469 14.1852 17.7318 14.1852 18.42C14.1852 19.2058 14.5352 19.9677 15.1452 20.5104C15.7187 21.0206 16.4731 21.2981 17.2607 21.2981C17.3909 21.2981 17.5223 21.2905 17.6537 21.2751L17.6993 21.2697L17.6963 21.1645Z" fill="#FFBD86"/>
<path d="M17.6936 21.0358V20.9031C17.4943 20.7936 17.3069 20.6626 17.1358 20.5104C16.5256 19.9677 16.1757 19.2057 16.1757 18.42C16.1757 18.0994 16.2354 17.7796 16.3483 17.4731C15.7927 17.3459 15.3364 17.0163 15.0309 16.4989L14.9958 16.4395L14.95 16.4911C14.4568 17.0469 14.1853 17.7318 14.1853 18.42C14.1853 19.2058 14.5353 19.9677 15.1454 20.5104C15.7188 21.0206 16.4732 21.2981 17.2608 21.2981C17.3911 21.2981 17.5224 21.2905 17.6539 21.2751L17.6995 21.2697L17.6965 21.1645C17.695 21.1217 17.6936 21.0788 17.6936 21.0358Z" fill="#F6A96C"/>
<path d="M32.3688 17.4385C31.9872 17.3447 31.5869 17.1812 31.1791 16.9523C28.1521 15.2538 25.0323 15.1687 24.999 15.168C24.9678 15.1687 21.848 15.2537 18.821 16.9523C18.4132 17.1812 18.0129 17.3447 17.6313 17.4385L17.593 17.4479V21.0353C17.593 22.9478 18.3249 24.7527 19.6537 26.1175C21.0474 27.5489 22.9834 28.3372 25.105 28.3372C29.1314 28.3372 32.4072 25.0615 32.4072 21.0353V17.4479L32.3688 17.4385Z" fill="#FED2A4"/>
<path d="M22.6383 26.118C21.3095 24.7532 20.5777 22.9483 20.5777 21.0357V16.1328C20.0042 16.3526 19.411 16.6217 18.8209 16.9527C18.4131 17.1816 18.0128 17.3451 17.6312 17.4389L17.5929 17.4482V21.0356C17.5929 22.9482 18.3247 24.7531 19.6535 26.1179C21.0473 27.5493 22.9833 28.3376 25.1049 28.3376C25.599 28.3376 26.0817 28.2877 26.5485 28.1937C25.0398 27.9063 23.6859 27.1939 22.6383 26.118Z" fill="#FFBD86"/>
<path d="M35.1273 13.8797C35.1273 13.8797 31.796 10.6494 25 10.6494C18.2041 10.6494 14.8728 13.8797 14.8728 13.8797C13.9509 16.2064 15.7023 18.7604 18.8456 16.9966C21.8967 15.2845 25.0001 15.2186 25.0001 15.2186C25.0001 15.2186 28.1035 15.2844 31.1545 16.9965C34.2978 18.7604 36.0493 16.2064 35.1273 13.8797Z" fill="#DFEBFA"/>
<path d="M19.7375 11.3723C19.7375 11.3723 19.7385 11.3713 19.7387 11.3711C16.4811 12.3231 14.8728 13.8802 14.8728 13.8802C13.9509 16.2068 15.7023 18.7608 18.8456 16.9971C19.2538 16.768 19.6627 16.5692 20.0651 16.3954C19.189 15.0743 19.0188 13.1857 19.7375 11.3723Z" fill="#B1DBFC"/>
<path d="M35.1273 13.8795V11.7227C35.1273 6.62051 30.9911 2.48438 25.8889 2.48438H24.111C19.0088 2.48438 14.8727 6.62051 14.8727 11.7227V13.8795C14.8727 13.8795 18.204 10.8505 24.9999 10.8505C31.7959 10.8504 35.1273 13.8795 35.1273 13.8795Z" fill="#60B8FE"/>
<path d="M17.8406 10.5535C17.8406 7.21748 19.6089 4.29482 22.2593 2.6709C18.0446 3.52842 14.8728 7.25547 14.8728 11.7234V13.8803C14.8728 13.8803 15.8565 12.9881 17.8406 12.1722V10.5535Z" fill="#23A8FE"/>
<path d="M24.1111 2.78652H25.889C26.2313 2.78652 26.5691 2.80576 26.9017 2.84199V1.60029C26.9017 0.720117 26.1816 0 25.3014 0H24.6987C23.8185 0 23.0984 0.720117 23.0984 1.60029V2.84199C23.431 2.80576 23.7688 2.78652 24.1111 2.78652Z" fill="#DFEBFA"/>
<path d="M24.5787 1.60029C24.5787 0.872266 25.0718 0.255078 25.7402 0.0629883C25.6004 0.0228516 25.4536 0 25.3014 0H24.6987C23.8185 0 23.0984 0.720117 23.0984 1.60029V2.84199C23.431 2.80576 23.7688 2.78652 24.1111 2.78652H24.5787V1.60029Z" fill="#B1DBFC"/>
<path d="M34.5612 40.4785L15.4231 40.4793C14.3742 40.4879 13.5265 41.3399 13.5265 42.3908V49.9998H36.4735V42.3909C36.4736 41.3347 35.6174 40.4785 34.5612 40.4785Z" fill="#FFD301"/>
<path d="M15.4231 40.4795C14.3742 40.4881 13.5265 41.3401 13.5265 42.391V49.9999H19.8646V42.391C19.8646 41.3401 20.7123 40.4881 21.7612 40.4795H15.4231Z" fill="#FFC20C"/>
<path d="M30.9695 30.7624L29.536 30.2072C29.4584 30.1772 29.3889 30.134 29.3274 30.082L25.1126 34.4235C24.9603 34.5805 24.9628 34.831 25.1185 34.9848L27.1027 36.9451C27.4903 37.328 28.1274 37.2777 28.4501 36.8387L31.0701 33.31L30.9695 30.7624Z" fill="#23A8FE"/>
<path d="M20.6674 30.0762C20.512 30.1991 20.3245 30.2567 20.2137 30.2997L18.9421 30.7927L18.8416 33.1893L21.55 36.8383C21.8726 37.2773 22.5097 37.3276 22.8973 36.9447L24.8816 34.9844C25.0373 34.8307 25.0398 34.5802 24.8875 34.4231L20.6674 30.0762Z" fill="#23A8FE"/>
<path d="M24.1111 2.48438C23.5232 2.48438 22.9484 2.53994 22.391 2.64492C20.8326 4.41455 19.7629 7.71992 19.6899 11.5396C21.1321 11.1399 22.9003 10.8505 25.0001 10.8505C27.1 10.8505 28.8681 11.14 30.3103 11.5396C30.2373 7.71992 29.1676 4.41445 27.6092 2.64492C27.0518 2.53994 26.477 2.48438 25.8891 2.48438H24.1111Z" fill="#23A8FE"/>
<path d="M24.5787 2.48438H24.1111C23.5232 2.48438 22.9484 2.53994 22.391 2.64492C20.8325 4.41455 19.7629 7.71992 19.6899 11.5396C20.6224 11.2812 21.6919 11.0695 22.8982 10.9517C22.7521 7.48242 23.3882 4.43037 24.5787 2.48438Z" fill="#0193FA"/>
<path d="M31.6938 42.5163H33.7643C34.1643 42.5163 34.4885 42.1921 34.4885 41.7921V32.1255L30.9695 30.7627V41.7921C30.9695 42.192 31.2938 42.5163 31.6938 42.5163Z" fill="#FEE55A"/>
<path d="M32.7291 41.7922V31.4441L30.9696 30.7627V41.7921C30.9696 42.1921 31.2938 42.5163 31.6938 42.5163H33.4533C33.0533 42.5164 32.7291 42.1921 32.7291 41.7922Z" fill="#FFD301"/>
<path d="M16.1473 42.5159H18.2178C18.6178 42.5159 18.942 42.1917 18.942 41.7917V30.793L15.423 32.1572V41.7916C15.4231 42.1916 15.7474 42.5159 16.1473 42.5159Z" fill="#FEE55A"/>
<path d="M17.1827 41.7922V31.4756L15.4232 32.1577V41.7922C15.4232 42.1922 15.7474 42.5164 16.1474 42.5164H17.907C17.5069 42.5164 17.1827 42.1921 17.1827 41.7922Z" fill="#FFD301"/>
</g>
<defs>
<clipPath id="clip0">
<rect width="50" height="50" fill="white"/>
</clipPath>
</defs>
</svg>
