<svg xmlns="http://www.w3.org/2000/svg" width="222" height="52" viewBox="0 0 222 52">
    <g fill="#FFF" fill-rule="evenodd">
        <path d="M40.318.71v29.497h3.13V15.982h.744l10.876 14.225h4.078L47.771 15.982h.973c1.3 0 2.439-.155 3.42-.467.976-.31 1.796-.774 2.461-1.393 1.326-1.233 1.99-3.056 1.99-5.449 0-.697-.06-1.362-.18-1.993-.12-.63-.301-1.231-.543-1.801a7.389 7.389 0 0 0-.861-1.54 5.99 5.99 0 0 0-1.136-1.175 6.068 6.068 0 0 0-1.116-.676 6.927 6.927 0 0 0-1.283-.449C50.587.82 49.135.711 47.153.711h-6.835zM8.513 18.127l4.886-11.319 4.993 11.548H8.414l.099-.23zm18.185 12.08L13.803.712h-.805L.156 30.207H3.63l2.253-5.321h15.079l2.253 5.32h3.482zm-7.307-9.034l1.075 2.541H6.38L7.5 21.071h11.849l.043.101zm59.036-3.046l4.887-11.319 4.992 11.548h-9.978l.1-.23zm18.185 12.08L83.717.712h-.805L70.07 30.207h3.475l3.868-9.136h11.85l3.867 9.136h3.482zM86.385.712L99.28 30.207h1.142L87.53.71h-1.145zm93.665 0l-16.594 26.446h-2.68L177.352.71h-20.516v2.924h15.11L155.19 30.207h24.394v-3.05H164.57L181.162.71h-1.112zm28.038 27.002a12.37 12.37 0 0 1-2.42.235c-.83 0-1.64-.078-2.428-.233a11.77 11.77 0 0 1-4.403-1.852 13.285 13.285 0 0 1-3.488-3.511 11.943 11.943 0 0 1-1.826-4.425 12.931 12.931 0 0 1-.229-2.45c0-.843.078-1.667.233-2.47a12.364 12.364 0 0 1 1.836-4.491c.45-.677.971-1.314 1.562-1.912a12.13 12.13 0 0 1 1.86-1.565 11.71 11.71 0 0 1 2.118-1.142 12.14 12.14 0 0 1 2.316-.698 12.765 12.765 0 0 1 2.448-.233c.83 0 1.642.078 2.433.233a12.102 12.102 0 0 1 4.42 1.839c.667.45 1.297.972 1.888 1.564a12.252 12.252 0 0 1 2.696 4.044c.313.763.547 1.548.702 2.351.157.808.234 1.636.234 2.48 0 .837-.077 1.655-.232 2.451a12.16 12.16 0 0 1-1.837 4.45 12.716 12.716 0 0 1-1.562 1.893 13.097 13.097 0 0 1-1.908 1.584c-.673.458-1.381.843-2.124 1.155-.742.313-1.506.547-2.289.703zm13.04-9.159c.194-.993.292-2.019.292-3.076 0-1.064-.098-2.095-.292-3.094-.196-1-.488-1.968-.875-2.906a14.705 14.705 0 0 0-1.434-2.651 15.186 15.186 0 0 0-1.967-2.334 15.526 15.526 0 0 0-2.389-1.908 15.908 15.908 0 0 0-2.738-1.416A16.176 16.176 0 0 0 205.668 0c-1.042 0-2.063.098-3.065.293a16.17 16.17 0 0 0-2.958.877 15.6 15.6 0 0 0-5.12 3.323 15.523 15.523 0 0 0-1.987 2.352A15.007 15.007 0 0 0 191.09 9.5a15.073 15.073 0 0 0-.88 2.901c-.197.995-.294 2.02-.294 3.078 0 1.05.097 2.07.293 3.06a14.859 14.859 0 0 0 2.33 5.534c.57.833 1.233 1.616 1.986 2.35a15.956 15.956 0 0 0 5.128 3.357c.967.393 1.95.687 2.951.883 1.001.196 2.022.294 3.064.294a15.975 15.975 0 0 0 6.037-1.177 16.32 16.32 0 0 0 2.742-1.43 15.84 15.84 0 0 0 4.375-4.26 14.593 14.593 0 0 0 1.432-2.647c.387-.931.68-1.894.875-2.888zm-102.19-8.507l8.71 20.16h.79l8.885-20.655 3.858 20.655h3.124L138.555.71h-.478l-10.032 23.747L118.013.711h-.478l-5.75 29.496h3.123l3.816-20.654.214.494zm-75.49 3.472V3.384h2.865c1.368 0 2.518.097 3.45.291.945.197 1.67.494 2.173.893.507.406.886.957 1.136 1.655.248.688.371 1.518.371 2.492 0 .909-.12 1.685-.36 2.326-.245.652-.614 1.165-1.108 1.538-.49.374-1.21.651-2.162.834-.938.18-2.106.27-3.5.27h-2.866v-.164zM20.16 51.5h3.382c1.664 0 2.762-.772 2.762-2.08 0-1.066-.728-1.589-1.631-1.861.598-.261 1.207-.773 1.207-1.763 0-.512-.174-.915-.49-1.242-.423-.435-1.12-.675-1.99-.675h-3.24V51.5zm.848-4.224v-2.624h2.316c1.088 0 1.686.49 1.686 1.241 0 .915-.718 1.383-1.751 1.383h-2.251zm0 3.452v-2.69h2.403c1.327 0 2.023.48 2.023 1.307 0 .87-.718 1.383-1.87 1.383h-2.556zm13.38.903c2.316 0 3.893-1.84 3.893-3.941 0-2.123-1.555-3.941-3.871-3.941-2.317 0-3.894 1.84-3.894 3.94 0 2.124 1.556 3.942 3.872 3.942zm.022-.795c-1.74 0-3.002-1.415-3.002-3.146 0-1.753 1.24-3.147 2.98-3.147s3.002 1.416 3.002 3.147c0 1.753-1.24 3.146-2.98 3.146zm11.575.784c1.903 0 3.175-1.154 3.175-3.375V43.88h-.859v4.432c0 1.665-.892 2.514-2.295 2.514-1.457 0-2.327-.925-2.327-2.57V43.88h-.86v4.432c0 2.155 1.284 3.31 3.166 3.31zm10.062-.12h.87v-6.826h2.556v-.795h-5.981v.795h2.555V51.5zm7.953 0h.86v-7.62H64v7.62zm12.87.23l.587-.643-1.012-.839c.588-.697.914-1.6.914-2.558 0-2.123-1.555-3.941-3.872-3.941-2.316 0-3.893 1.84-3.893 3.94 0 2.124 1.555 3.942 3.871 3.942.947 0 1.762-.305 2.404-.816l1 .914zm-3.383-.894c-1.74 0-3.002-1.415-3.002-3.146 0-1.753 1.24-3.147 2.98-3.147s3.002 1.416 3.002 3.147c0 .773-.25 1.459-.663 1.992L74.4 48.41l-.577.642 1.414 1.208a2.864 2.864 0 0 1-1.75.577zm11.575.784c1.903 0 3.175-1.154 3.175-3.375V43.88h-.859v4.432c0 1.665-.892 2.514-2.294 2.514-1.458 0-2.328-.925-2.328-2.57V43.88h-.86v4.432c0 2.155 1.284 3.31 3.166 3.31zm8.05-.12h5.558v-.783h-4.698v-2.668h4.155v-.784h-4.155v-2.602h4.644v-.784h-5.503V51.5zm16.654 0h2.643c2.393 0 4.046-1.665 4.046-3.81 0-2.167-1.653-3.81-4.046-3.81h-2.643v7.62zm.86-.794v-6.032h1.783c1.925 0 3.154 1.328 3.154 3.016 0 1.71-1.229 3.016-3.154 3.016h-1.784zm10.563.794h.86v-7.62h-.86v7.62zm12.456 0h.859v-2.689h1.849c1.62 0 2.99-.85 2.99-2.493 0-1.524-1.13-2.439-2.849-2.439h-2.85V51.5zm.859-3.473v-3.353h1.925c1.229 0 2.044.566 2.044 1.655 0 1.023-.826 1.698-2.088 1.698h-1.881zm9.247 3.473h.859v-2.96h2.175l2.208 2.96h1.055l-2.338-3.113c1.196-.218 2.066-.959 2.066-2.222 0-.62-.217-1.154-.587-1.524-.479-.479-1.23-.762-2.165-.762h-3.273V51.5zm.859-3.734v-3.092h2.35c1.228 0 1.946.566 1.946 1.502 0 1.002-.815 1.59-1.957 1.59h-2.339zm13.38 3.865c2.317 0 3.894-1.84 3.894-3.941 0-2.123-1.555-3.941-3.872-3.941s-3.894 1.84-3.894 3.94c0 2.124 1.556 3.942 3.872 3.942zm.022-.795c-1.74 0-3.002-1.415-3.002-3.146 0-1.753 1.24-3.147 2.98-3.147s3.002 1.416 3.002 3.147c0 1.753-1.24 3.146-2.98 3.146zm8.53.664h.859v-3.32h4.122v-.784H167.4v-2.722h4.61v-.795h-5.47V51.5zm13.02.12c1.904 0 3.176-1.154 3.176-3.375V43.88h-.859v4.432c0 1.665-.892 2.514-2.295 2.514-1.457 0-2.327-.925-2.327-2.57V43.88h-.86v4.432c0 2.155 1.284 3.31 3.165 3.31zm8.051-.12h.838v-6.162l2.773 4.072h.044l2.773-4.083V51.5h.86v-7.62h-.87l-2.774 4.158-2.773-4.159h-.87V51.5zm12.358 0h.86v-7.62h-.86v7.62z"/>
    </g>
</svg>
