<svg width="85" height="85" viewBox="0 0 85 85" fill="none" xmlns="http://www.w3.org/2000/svg">
<path d="M80.4368 7.13285C80.4368 3.20974 77.227 0 73.3039 0H11.6958C7.77284 0 4.5631 3.20974 4.5631 7.13285V77.867C4.5631 81.7899 7.77284 84.9998 11.6959 84.9998H73.3042C77.2272 84.9998 80.4371 81.7901 80.4371 77.867V7.13285H80.4368Z" fill="#5C6670"/>
<path d="M73.3039 0H11.6958C7.77284 0 4.5631 3.20974 4.5631 7.13285V28.297H80.4369V7.13285C80.4367 3.20974 77.227 0 73.3039 0Z" fill="#333E48"/>
<path d="M69.2759 9.32548C69.2759 8.14844 68.313 7.18555 67.1358 7.18555H17.8641C16.6869 7.18555 15.724 8.14844 15.724 9.32548V18.9716C15.724 20.1487 16.6869 21.1116 17.8641 21.1116H67.1358C68.313 21.1116 69.2759 20.1487 69.2759 18.9716V9.32548Z" fill="#0082CA"/>
<path d="M63.1227 18.7225C62.3532 18.7225 61.7293 18.0988 61.7293 17.3291V10.9686C61.7293 10.1987 62.3532 9.5752 63.1227 9.5752C63.8922 9.5752 64.516 10.1989 64.516 10.9686V17.3291C64.5162 18.0986 63.8923 18.7225 63.1227 18.7225Z" fill="white"/>
<path d="M57.1773 18.7225C56.4079 18.7225 55.784 18.0988 55.784 17.3291V10.9686C55.784 10.1987 56.4079 9.5752 57.1773 9.5752C57.9468 9.5752 58.5707 10.1989 58.5707 10.9686V17.3291C58.5709 18.0986 57.947 18.7225 57.1773 18.7225Z" fill="white"/>
<path d="M51.232 18.7225C50.4625 18.7225 49.8386 18.0988 49.8386 17.3291V10.9686C49.8386 10.1987 50.4625 9.5752 51.232 9.5752C52.0015 9.5752 52.6254 10.1989 52.6254 10.9686V17.3291C52.6255 18.0986 52.0016 18.7225 51.232 18.7225Z" fill="white"/>
<path d="M55.5014 53.0943C55.5014 51.7868 56.5714 50.7168 57.8789 50.7168H69.8705C71.1784 50.7168 72.248 51.7868 72.248 53.0943V75.2099C72.248 76.5177 71.1781 77.5874 69.8705 77.5874H57.8789C56.571 77.5874 55.5014 76.5176 55.5014 75.2099V53.0943Z" fill="#D49000"/>
<path d="M55.5014 36.6871C55.5014 35.3795 56.5714 34.3096 57.8789 34.3096H69.8705C71.1784 34.3096 72.248 35.3795 72.248 36.6871V42.3953C72.248 43.7028 71.1781 44.7728 69.8705 44.7728H57.8789C56.571 44.7728 55.5014 43.7028 55.5014 42.3953V36.6871Z" fill="#333E48"/>
<path d="M34.1264 36.6871C34.1264 35.3795 35.1964 34.3096 36.5039 34.3096H48.4957C49.8036 34.3096 50.8732 35.3795 50.8732 36.6871V42.3953C50.8732 43.7028 49.8033 44.7728 48.4957 44.7728H36.5039C35.1964 44.7728 34.1264 43.7028 34.1264 42.3953V36.6871Z" fill="#333E48"/>
<path d="M12.7511 36.6871C12.7511 35.3795 13.8211 34.3096 15.1286 34.3096H27.1204C28.428 34.3096 29.4979 35.3795 29.4979 36.6871V42.3953C29.4979 43.7028 28.428 44.7728 27.1204 44.7728H15.1288C13.8209 44.7728 12.7513 43.7028 12.7513 42.3953V36.6871H12.7511Z" fill="#333E48"/>
<path d="M34.1264 53.0943C34.1264 51.7868 35.1964 50.7168 36.5039 50.7168H48.4957C49.8036 50.7168 50.8732 51.7868 50.8732 53.0943V58.8025C50.8732 60.1101 49.8033 61.18 48.4957 61.18H36.5039C35.1964 61.18 34.1264 60.1101 34.1264 58.8025V53.0943Z" fill="#333E48"/>
<path d="M12.7511 53.0943C12.7511 51.7868 13.8211 50.7168 15.1286 50.7168H27.1204C28.428 50.7168 29.4979 51.7868 29.4979 53.0943V58.8025C29.4979 60.1101 28.428 61.18 27.1204 61.18H15.1288C13.8209 61.18 12.7513 60.1101 12.7513 58.8025V53.0943H12.7511Z" fill="#333E48"/>
<path d="M34.1264 69.5015C34.1264 68.194 35.1964 67.124 36.5039 67.124H48.4957C49.8036 67.124 50.8732 68.194 50.8732 69.5015V75.2098C50.8732 76.5173 49.8033 77.5873 48.4957 77.5873H36.5039C35.1964 77.5873 34.1264 76.5173 34.1264 75.2098V69.5015Z" fill="#333E48"/>
<path d="M12.7511 69.5015C12.7511 68.194 13.8211 67.124 15.1286 67.124H27.1204C28.428 67.124 29.4979 68.194 29.4979 69.5015V75.2098C29.4979 76.5173 28.428 77.5873 27.1204 77.5873H15.1288C13.8209 77.5873 12.7513 76.5173 12.7513 75.2098V69.5015H12.7511Z" fill="#333E48"/>
</svg>
