<svg width="90" height="90" viewBox="0 0 90 90" fill="none" xmlns="http://www.w3.org/2000/svg">
<g clip-path="url(#clip0)">
<path d="M4.75172 8.70459H61.9356C64.5488 8.70459 66.687 10.8428 66.687 13.456V39.1063C66.687 41.7198 64.5486 43.8579 61.9356 43.8579H9.99352L3.48152 49.9061C1.56691 51.6842 0 51.0013 0 48.3879V13.4558C0 10.8424 2.13838 8.70459 4.75172 8.70459Z" fill="#0055B8"/>
<path d="M54.2146 22.8739H12.4729C11.6276 22.8739 10.9422 22.1885 10.9422 21.3432C10.9422 20.4979 11.6276 19.8125 12.4729 19.8125H54.2143C55.06 19.8125 55.745 20.4979 55.745 21.3432C55.7453 22.1885 55.06 22.8739 54.2146 22.8739Z" fill="white"/>
<path d="M44.6375 32.9149H12.4729C11.6276 32.9149 10.9422 32.2295 10.9422 31.3842C10.9422 30.5389 11.6276 29.8535 12.4729 29.8535H44.6375C45.4829 29.8535 46.1686 30.5389 46.1686 31.3842C46.1686 32.2295 45.4831 32.9149 44.6375 32.9149Z" fill="white"/>
<path d="M85.2481 39.1035H28.0642C25.451 39.1035 23.3127 41.2417 23.3127 43.8549V69.5052C23.3127 72.1187 25.451 74.2568 28.0642 74.2568H80.0065L86.5185 80.3051C88.4331 82.0834 90 81.4004 90 78.787V43.8549C90 41.2415 87.8616 39.1035 85.2481 39.1035Z" fill="#0082CA"/>
<path d="M77.5269 53.2733H35.7857C34.9404 53.2733 34.255 52.588 34.255 51.7426C34.255 50.8973 34.9404 50.2119 35.7857 50.2119H77.5271C78.3728 50.2119 79.0578 50.8973 79.0578 51.7426C79.0576 52.588 78.3724 53.2733 77.5269 53.2733Z" fill="white"/>
<path d="M77.5269 63.3143H45.3621C44.5168 63.3143 43.8314 62.629 43.8314 61.7836C43.8314 60.9383 44.5168 60.2529 45.3621 60.2529H77.5268C78.3724 60.2529 79.0575 60.9383 79.0575 61.7836C79.0575 62.629 78.3724 63.3143 77.5269 63.3143Z" fill="white"/>
</g>
<defs>
<clipPath id="clip0">
<rect width="90" height="90" fill="white"/>
</clipPath>
</defs>
</svg>
