<svg width="70" height="70" viewBox="0 0 70 70" fill="none" xmlns="http://www.w3.org/2000/svg">
<path d="M34.9999 69.9998C54.3298 69.9998 69.9998 54.3298 69.9998 34.9999C69.9998 15.67 54.3298 0 34.9999 0C15.67 0 0 15.67 0 34.9999C0 54.3298 15.67 69.9998 34.9999 69.9998Z" fill="#FFC843"/>
<path d="M34.9999 63.4028C50.6864 63.4028 63.4027 50.6864 63.4027 35C63.4027 19.3135 50.6864 6.59717 34.9999 6.59717C19.3135 6.59717 6.59714 19.3135 6.59714 35C6.59714 50.6864 19.3135 63.4028 34.9999 63.4028Z" fill="#D49000"/>
<path d="M35.4381 13.9946C36.8417 13.9946 37.9549 15.1078 37.9549 16.5114V17.1889C40.5685 17.5761 42.8915 18.3505 44.9727 19.5122C45.8923 20.0445 46.7152 20.9642 46.7152 22.4163C46.7152 24.2554 45.2631 25.659 43.4239 25.659C42.8433 25.659 42.2623 25.5138 41.73 25.2234C40.3748 24.4974 39.0195 23.9166 37.7127 23.5778V30.9347C45.0695 32.9189 48.2155 35.9198 48.2155 41.3406C48.2155 46.7614 44.0532 50.2461 37.9547 50.9235V53.4887C37.9547 54.8922 36.8416 56.0055 35.438 56.0055C34.0344 56.0055 32.9213 54.8922 32.9213 53.4887V50.8751C29.4849 50.4395 26.242 49.2296 23.3864 47.4871C22.3701 46.858 21.7409 45.8901 21.7409 44.5832C21.7409 42.6956 23.193 41.2919 25.0805 41.2919C25.7097 41.2919 26.3873 41.5339 26.9682 41.9211C29.001 43.2279 30.937 44.1476 33.1634 44.6316V36.9359C26.1937 35.0483 22.7574 32.3864 22.7574 26.6268C22.7574 21.3028 26.823 17.7213 32.9214 17.092V16.5112C32.9214 15.1078 34.0346 13.9946 35.4381 13.9946ZM33.1635 29.6761V23.1421C30.8402 23.4811 29.8239 24.6426 29.8239 26.1914C29.8239 27.6917 30.5015 28.7081 33.1635 29.6761ZM37.713 38.1461V44.8737C39.9879 44.5349 41.1493 43.4701 41.1493 41.7276C41.1495 40.1305 40.3267 39.0656 37.713 38.1461Z" fill="#FFC843"/>
</svg>
