<svg width="90" height="90" viewBox="0 0 90 90" fill="none" xmlns="http://www.w3.org/2000/svg">
<path d="M55.864 64.8364H34.1343V75.4963H55.864V64.8364Z" fill="#333E48"/>
<path opacity="0.2" d="M55.864 64.8364H34.1343V69.5656H55.864V64.8364Z" fill="black"/>
<path d="M61.6633 81.6951C63.5447 81.6951 65.0702 80.1702 65.0702 78.2887C65.0702 76.4067 63.5449 74.8818 61.6633 74.8818H28.3368C26.4554 74.8818 24.93 76.4067 24.93 78.2887C24.93 80.17 26.4552 81.6951 28.3368 81.6951H61.6633Z" fill="#5C6670"/>
<path d="M90 12.4046C90 10.1497 88.155 8.30469 85.9001 8.30469H4.09992C1.845 8.30451 0 10.1495 0 12.4046V62.4706C0 64.7256 1.845 66.5706 4.09992 66.5706H85.9001C88.155 66.5706 90 64.7256 90 62.4706V12.4046Z" fill="#333E48"/>
<path d="M83.8503 14.4541H6.14989V60.4207H83.8503V14.4541Z" fill="white"/>
<path d="M66.2393 35.9456L72.248 41.9543C72.806 42.5126 72.8063 43.4258 72.248 43.9837L70.5964 45.6357C70.0385 46.194 69.1251 46.194 68.5672 45.6359L62.5581 39.6272L60.4292 44.8989C60.1337 45.6305 59.7173 45.6076 59.5039 44.8479L55.224 29.6055C55.0106 28.8458 55.4576 28.3985 56.2177 28.6119L71.46 32.8918C72.2199 33.1052 72.2428 33.5216 71.511 33.8171L66.2393 35.9456Z" fill="#1E252B"/>
<path d="M0 58.394V62.4704C0 64.7253 1.845 66.5703 4.09992 66.5703H85.9001C88.155 66.5703 90 64.7253 90 62.4704V58.394H0Z" fill="#5C6670"/>
<path d="M44.9991 64.326C45.9049 64.326 46.6392 63.5917 46.6392 62.6859C46.6392 61.7802 45.9049 61.0459 44.9991 61.0459C44.0934 61.0459 43.3591 61.7802 43.3591 62.6859C43.3591 63.5917 44.0934 64.326 44.9991 64.326Z" fill="#1E252B"/>
</svg>
