<svg width="90" height="90" viewBox="0 0 90 90" fill="none" xmlns="http://www.w3.org/2000/svg">
<path d="M82.3704 69.1992H7.63049V72.1212H82.3704V69.1992Z" fill="#333E48"/>
<path opacity="0.2" d="M13.6376 69.1992H7.63049V72.1212H13.6376V69.1992Z" fill="black"/>
<path opacity="0.2" d="M82.3699 69.1992H76.3627V72.1212H82.3699V69.1992Z" fill="black"/>
<path d="M36.4514 30.0107H10.3479V37.0879H36.4514V30.0107Z" fill="#E0E0D3"/>
<path d="M11.4303 45.2773H3.83115V82.0893H11.4303V45.2773Z" fill="#333E48"/>
<path opacity="0.2" d="M11.4303 45.2773H3.83115V50.4007H11.4303V45.2773Z" fill="black"/>
<path d="M86.171 45.2773H78.5717V82.0893H86.171V45.2773Z" fill="#333E48"/>
<path opacity="0.2" d="M86.171 45.2773H78.5717V50.4007H86.171V45.2773Z" fill="black"/>
<path d="M90 39.549C90 37.9418 88.6852 36.627 87.078 36.627H2.92201C1.31484 36.627 0 37.9418 0 39.549V43.2632C0 44.8704 1.31484 46.1852 2.92201 46.1852H87.078C88.6852 46.1852 90 44.8704 90 43.2632V39.549Z" fill="#D49000"/>
<path d="M70.7147 33.2574H67.7927V14.4358C67.7927 12.449 66.1764 10.8328 64.1897 10.8328C62.203 10.8328 60.5869 12.4491 60.5869 14.4358H57.6649C57.6649 10.8378 60.5918 7.91064 64.1899 7.91064C67.7879 7.91064 70.715 10.8378 70.715 14.4358V33.2574H70.7147Z" fill="#333E48"/>
<path opacity="0.2" d="M57.9651 12.4785C57.7703 13.0967 57.6647 13.7543 57.6647 14.436H60.5867C60.5867 13.7143 60.802 13.0428 61.1689 12.4785H57.9651Z" fill="black"/>
<path opacity="0.2" d="M70.7152 30.5796H67.7932V33.2581H70.7152V30.5796Z" fill="black"/>
<path d="M80.714 36.6275C80.714 34.2606 78.7952 32.3418 76.4283 32.3418H62.0791C59.7122 32.3418 57.7934 34.2606 57.7934 36.6275H80.714Z" fill="#0055B8"/>
<path d="M62.6783 13.9722H55.5731L53.6752 20.4007H64.5761L62.6783 13.9722Z" fill="#0055B8"/>
</svg>
