<svg width="90" height="90" viewBox="0 0 90 90" fill="none" xmlns="http://www.w3.org/2000/svg">
<g clip-path="url(#clip0)">
<path d="M90 19.9466C90 18.2994 88.6523 16.9517 87.005 16.9517H2.99496C1.34771 16.9518 0 18.2994 0 19.9466V70.0531C0 71.7004 1.34771 73.0481 2.99496 73.0481H87.0052C88.6525 73.0481 90.0002 71.7004 90.0002 70.0531V19.9466H90Z" fill="#0055B8"/>
<path opacity="0.1" d="M44.9993 40.2832L0.19281 71.098C0.582869 72.1356 1.53174 72.905 2.66957 73.0295L44.9993 43.9182L87.3291 73.0295C88.4673 72.9056 89.4164 72.1362 89.8069 71.0985L44.9993 40.2832Z" fill="black"/>
<path opacity="0.2" d="M87.005 16.9521H2.99496C1.34771 16.9521 0 18.2997 0 19.9469V20.3463L44.9998 51.6848L89.9996 20.3463V19.9469C89.9999 18.2997 88.6522 16.9521 87.005 16.9521Z" fill="black"/>
<path d="M87.0051 16.9521H2.99497C2.25177 16.9521 1.57114 17.2283 1.04608 17.6806L45 48.2906L88.954 17.6806C88.4289 17.2281 87.7483 16.9521 87.0051 16.9521Z" fill="#0082CA"/>
</g>
<defs>
<clipPath id="clip0">
<rect width="90" height="90" fill="white"/>
</clipPath>
</defs>
</svg>
