<svg width="100" height="100" viewBox="0 0 100 100" fill="none" xmlns="http://www.w3.org/2000/svg">
<g clip-path="url(#clip0)">
<path d="M60.1323 39.1682L48.7155 27.752C45.7177 24.754 40.857 24.7538 37.8587 27.7519C34.8607 30.7497 34.8613 35.6104 37.8593 38.6087C40.8568 41.6059 45.7173 41.6067 48.7153 38.6089L54.7034 44.5965C56.2022 46.0956 58.6325 46.0956 60.1315 44.5969C61.6307 43.0975 61.6307 40.6673 60.1323 39.1682Z" fill="#C29178"/>
<path d="M60.5774 72.7422L88.6492 44.6704L66.9369 22.9581L38.865 51.0299L60.5774 72.7422Z" fill="#FFBF9E"/>
<path opacity="0.1" d="M49.9995 39.8939L52.1513 37.7422L73.8643 59.4556L71.7403 61.5802L49.9995 39.8939Z" fill="black"/>
<path opacity="0.1" d="M84.5974 48.7197L88.6482 44.6689L66.9359 22.9566L62.8851 27.0074L84.5974 48.7197Z" fill="black"/>
<path d="M90.2938 50.9614L100.001 41.2544L74.3218 15.5754L64.6148 25.2824L90.2938 50.9614Z" fill="#E0E0D3"/>
<path d="M92.0186 44.5205C92.8702 44.5205 93.5606 43.8301 93.5606 42.9785C93.5606 42.1269 92.8702 41.4365 92.0186 41.4365C91.167 41.4365 90.4766 42.1269 90.4766 42.9785C90.4766 43.8301 91.167 44.5205 92.0186 44.5205Z" fill="#5C6670"/>
<path d="M71.7477 61.5882L33.0646 22.958L11.3513 44.6716L49.9814 83.3014C51.4802 84.8001 53.9111 84.8003 55.4101 83.3013C56.9083 81.8026 56.9089 79.372 55.4101 77.8729C56.9089 79.372 59.3392 79.3718 60.8384 77.8729C62.337 76.3739 62.3374 73.9435 60.8388 72.4446C62.3374 73.9435 64.7679 73.9436 66.2661 72.4448C67.7655 70.9458 67.7655 68.5153 66.2665 67.0163C67.7655 68.5153 70.1958 68.5153 71.695 67.0163C73.1933 65.5175 73.2466 63.087 71.7477 61.5882Z" fill="#C29178"/>
<path opacity="0.1" d="M38.3704 40.667C36.8716 42.166 36.8716 44.5963 38.3708 46.0955C39.8697 47.5943 42.3001 47.5941 43.7987 46.0953L49.9999 39.8941L44.5718 34.4658L38.3704 40.667Z" fill="black"/>
<path opacity="0.1" d="M37.1143 27.0074L33.0634 22.9565L11.351 44.6689L15.4019 48.7198L37.1143 27.0074Z" fill="black"/>
<path d="M35.3863 25.2822L25.6793 15.5752L0.000301959 41.2542L9.7073 50.9612L35.3863 25.2822Z" fill="#E0E0D3"/>
<path d="M7.98279 44.5197C8.83419 44.5197 9.52439 43.8295 9.52439 42.9781C9.52439 42.1267 8.83419 41.4365 7.98279 41.4365C7.13139 41.4365 6.44119 42.1267 6.44119 42.9781C6.44119 43.8295 7.13139 44.5197 7.98279 44.5197Z" fill="#5C6670"/>
<path d="M31.0197 68.1413C33.1396 68.1413 34.8581 66.4228 34.8581 64.3028C34.8581 62.1829 33.1396 60.4644 31.0197 60.4644C28.8997 60.4644 27.1812 62.1829 27.1812 64.3028C27.1812 66.4228 28.8997 68.1413 31.0197 68.1413Z" fill="#FFBF9E"/>
<path d="M36.4484 73.57C38.5683 73.57 40.2868 71.8515 40.2868 69.7315C40.2868 67.6116 38.5683 65.8931 36.4484 65.8931C34.3284 65.8931 32.6099 67.6116 32.6099 69.7315C32.6099 71.8515 34.3284 73.57 36.4484 73.57Z" fill="#FFBF9E"/>
<path d="M41.8767 71.3203C39.7569 71.3203 38.0382 73.0389 38.0384 75.1584C38.0382 77.2785 39.7569 78.9973 41.8773 78.9971C43.9966 78.9973 45.7151 77.2783 45.7149 75.159C45.7149 73.0389 43.9964 71.3203 41.8767 71.3203Z" fill="#FFBF9E"/>
<path d="M47.3058 84.4251C49.4256 84.4251 51.1441 82.7066 51.1441 80.5868C51.1441 78.467 49.4256 76.7485 47.3058 76.7485C45.1859 76.7485 43.4675 78.467 43.4675 80.5868C43.4675 82.7066 45.1859 84.4251 47.3058 84.4251Z" fill="#FFBF9E"/>
<path d="M62.1419 27.7523C59.1438 24.7543 54.2831 24.7545 51.2848 27.7525L39.8683 39.1687C38.3696 40.6676 38.3696 43.098 39.8689 44.5974C41.3677 46.0961 43.7981 46.0961 45.297 44.597L51.2848 38.6094C54.2831 41.607 59.1438 41.6064 62.1411 38.6092C65.1395 35.6109 65.1399 30.75 62.1419 27.7523Z" fill="#FFBF9E"/>
</g>
<defs>
<clipPath id="clip0">
<rect width="100" height="100" fill="white"/>
</clipPath>
</defs>
</svg>
