<svg width="80" height="80" viewBox="0 0 80 80" fill="none" xmlns="http://www.w3.org/2000/svg">
<g clip-path="url(#clip0)">
<path d="M79.04 67.6611C80.32 68.9412 80.32 71.0356 79.04 72.3156L72.3156 79.0401C71.0356 80.32 68.9411 80.32 67.6611 79.0401L19.4064 30.7853C18.1264 29.5056 18.1264 27.4109 19.4064 26.1308L26.1308 19.4064C27.4108 18.1263 29.5053 18.1263 30.7853 19.4064L79.04 67.6611Z" fill="#E0E0D3"/>
<path d="M33.2774 35.1973L65.8779 67.7979L67.7985 65.8772L35.198 33.2766L33.2774 35.1973Z" fill="#333E48"/>
<path opacity="0.2" d="M31.6189 42.9968L42.997 31.6187L38.963 27.5846L27.5848 38.9628L31.6189 42.9968Z" fill="black"/>
<path d="M65.545 76.9235L67.6612 79.0397C68.9412 80.3197 71.0358 80.3197 72.3158 79.0397L79.0402 72.3152C80.3202 71.0352 80.3202 68.9408 79.0402 67.6607L76.9239 65.5444L65.545 76.9235Z" fill="#5C6670"/>
<path d="M46.7627 26.2654C46.415 26.2654 46.0675 26.1329 45.8022 25.8677L25.9022 5.9674C24.3003 4.36553 21.6941 4.36553 20.0925 5.9674C19.5619 6.49756 18.702 6.49756 18.1717 5.9674C17.6412 5.43678 17.6412 4.57693 18.1717 4.04662C20.8325 1.38646 25.1622 1.38584 27.823 4.04662L47.7231 23.9469C48.2536 24.4776 48.2536 25.3372 47.7231 25.8677C47.4578 26.1327 47.1102 26.2654 46.7627 26.2654Z" fill="#333E48"/>
<path opacity="0.2" d="M19.6386 2.93311C19.1134 3.22998 18.6187 3.59982 18.1717 4.04654C17.6412 4.57717 17.6412 5.43701 18.1717 5.96732C18.7023 6.49748 19.562 6.49748 20.0925 5.96732C20.5562 5.50357 21.1053 5.17857 21.6884 4.9831L19.6386 2.93311Z" fill="black"/>
<path d="M14.633 0.508145C13.9553 -0.169355 12.8469 -0.169355 12.1694 0.507988L0.508125 12.1694C-0.169531 12.8469 -0.169219 13.9552 0.508125 14.6327L25.9442 40.0686C26.6211 40.746 27.7295 40.746 28.4072 40.0685L40.0684 28.4072C40.7458 27.7297 40.7458 26.6213 40.0684 25.9441L14.633 0.508145Z" fill="#333E48"/>
<path d="M28.9897 30.3474C28.6422 30.3474 28.2946 30.2149 28.0292 29.9497L10.6266 12.5471C10.0961 12.0164 10.0961 11.1566 10.6266 10.6261C11.1572 10.096 12.0171 10.096 12.5474 10.6261L29.9502 28.0288C30.4807 28.5594 30.4807 29.4191 29.9502 29.9496C29.685 30.2147 29.3372 30.3474 28.9897 30.3474Z" fill="#5C6670"/>
</g>
<defs>
<clipPath id="clip0">
<rect width="80" height="80" fill="white"/>
</clipPath>
</defs>
</svg>
