<svg width="40" height="1952" viewBox="0 0 40 1952" fill="none" xmlns="http://www.w3.org/2000/svg">
<line x1="20.5" y1="15.9986" x2="22.2359" y2="1922" stroke="#A5A8A9" stroke-width="3"/>
<g filter="url(#filter0_d)">
<path d="M20 25C25.5228 25 30 20.5228 30 15C30 9.47715 25.5228 5 20 5C14.4772 5 10 9.47715 10 15C10 20.5228 14.4772 25 20 25Z" fill="white"/>
</g>
<path d="M20.2701 20.6759C23.2554 20.6759 25.6754 18.2559 25.6754 15.2706C25.6754 12.2853 23.2554 9.86523 20.2701 9.86523C17.2848 9.86523 14.8647 12.2853 14.8647 15.2706C14.8647 18.2559 17.2848 20.6759 20.2701 20.6759Z" fill="#FF6600"/>
<g filter="url(#filter1_d)">
<path d="M20 261C25.5228 261 30 256.523 30 251C30 245.477 25.5228 241 20 241C14.4772 241 10 245.477 10 251C10 256.523 14.4772 261 20 261Z" fill="white"/>
</g>
<path d="M20.2701 256.676C23.2554 256.676 25.6754 254.256 25.6754 251.271C25.6754 248.285 23.2554 245.865 20.2701 245.865C17.2848 245.865 14.8647 248.285 14.8647 251.271C14.8647 254.256 17.2848 256.676 20.2701 256.676Z" fill="#FF6600"/>
<g filter="url(#filter2_d)">
<path d="M20 494C25.5228 494 30 489.523 30 484C30 478.477 25.5228 474 20 474C14.4772 474 10 478.477 10 484C10 489.523 14.4772 494 20 494Z" fill="white"/>
</g>
<path d="M20.27 489.675C23.2552 489.675 25.6753 487.255 25.6753 484.27C25.6753 481.285 23.2552 478.865 20.27 478.865C17.2847 478.865 14.8646 481.285 14.8646 484.27C14.8646 487.255 17.2847 489.675 20.27 489.675Z" fill="#FF6600"/>
<g filter="url(#filter3_d)">
<path d="M20 960C25.5228 960 30 955.523 30 950C30 944.477 25.5228 940 20 940C14.4772 940 10 944.477 10 950C10 955.523 14.4772 960 20 960Z" fill="white"/>
</g>
<path d="M20.2701 955.676C23.2554 955.676 25.6754 953.256 25.6754 950.271C25.6754 947.285 23.2554 944.865 20.2701 944.865C17.2848 944.865 14.8647 947.285 14.8647 950.271C14.8647 953.256 17.2848 955.676 20.2701 955.676Z" fill="#FF6600"/>
<g filter="url(#filter4_d)">
<path d="M20 1214C25.5228 1214 30 1209.52 30 1204C30 1198.48 25.5228 1194 20 1194C14.4772 1194 10 1198.48 10 1204C10 1209.52 14.4772 1214 20 1214Z" fill="white"/>
</g>
<path d="M20.27 1209.68C23.2552 1209.68 25.6753 1207.26 25.6753 1204.27C25.6753 1201.28 23.2552 1198.86 20.27 1198.86C17.2847 1198.86 14.8646 1201.28 14.8646 1204.27C14.8646 1207.26 17.2847 1209.68 20.27 1209.68Z" fill="#FF6600"/>
<g filter="url(#filter5_d)">
<path d="M20 1492C25.5228 1492 30 1487.52 30 1482C30 1476.48 25.5228 1472 20 1472C14.4772 1472 10 1476.48 10 1482C10 1487.52 14.4772 1492 20 1492Z" fill="white"/>
</g>
<path d="M20.2701 1487.68C23.2554 1487.68 25.6754 1485.26 25.6754 1482.27C25.6754 1479.29 23.2554 1476.87 20.2701 1476.87C17.2848 1476.87 14.8647 1479.29 14.8647 1482.27C14.8647 1485.26 17.2848 1487.68 20.2701 1487.68Z" fill="#FF6600"/>
<g filter="url(#filter6_d)">
<path d="M20 706C25.5228 706 30 701.523 30 696C30 690.477 25.5228 686 20 686C14.4772 686 10 690.477 10 696C10 701.523 14.4772 706 20 706Z" fill="white"/>
</g>
<path d="M20.2701 701.676C23.2554 701.676 25.6754 699.256 25.6754 696.271C25.6754 693.285 23.2554 690.865 20.2701 690.865C17.2848 690.865 14.8647 693.285 14.8647 696.271C14.8647 699.256 17.2848 701.676 20.2701 701.676Z" fill="#FF6600"/>
<g filter="url(#filter7_d)">
<path d="M20 1704C25.5228 1704 30 1699.52 30 1694C30 1688.48 25.5228 1684 20 1684C14.4772 1684 10 1688.48 10 1694C10 1699.52 14.4772 1704 20 1704Z" fill="white"/>
<path d="M20.2701 1699.68C23.2554 1699.68 25.6754 1697.26 25.6754 1694.27C25.6754 1691.29 23.2554 1688.87 20.2701 1688.87C17.2848 1688.87 14.8647 1691.29 14.8647 1694.27C14.8647 1697.26 17.2848 1699.68 20.2701 1699.68Z" fill="#FF6600"/>
</g>
<g filter="url(#filter8_d)">
<path d="M20 1937C25.5228 1937 30 1932.52 30 1927C30 1921.48 25.5228 1917 20 1917C14.4772 1917 10 1921.48 10 1927C10 1932.52 14.4772 1937 20 1937Z" fill="white"/>
</g>
<path d="M20.27 1932.68C23.2552 1932.68 25.6753 1930.26 25.6753 1927.27C25.6753 1924.28 23.2552 1921.86 20.27 1921.86C17.2847 1921.86 14.8646 1924.28 14.8646 1927.27C14.8646 1930.26 17.2847 1932.68 20.27 1932.68Z" fill="#FF6600"/>
<defs>
<filter id="filter0_d" x="0" y="0" width="40" height="40" filterUnits="userSpaceOnUse" color-interpolation-filters="sRGB">
<feFlood flood-opacity="0" result="BackgroundImageFix"/>
<feColorMatrix in="SourceAlpha" type="matrix" values="0 0 0 0 0 0 0 0 0 0 0 0 0 0 0 0 0 0 127 0"/>
<feOffset dy="5"/>
<feGaussianBlur stdDeviation="5"/>
<feColorMatrix type="matrix" values="0 0 0 0 0.690196 0 0 0 0 0.72549 0 0 0 0 0.780392 0 0 0 0.4 0"/>
<feBlend mode="normal" in2="BackgroundImageFix" result="effect1_dropShadow"/>
<feBlend mode="normal" in="SourceGraphic" in2="effect1_dropShadow" result="shape"/>
</filter>
<filter id="filter1_d" x="0" y="236" width="40" height="40" filterUnits="userSpaceOnUse" color-interpolation-filters="sRGB">
<feFlood flood-opacity="0" result="BackgroundImageFix"/>
<feColorMatrix in="SourceAlpha" type="matrix" values="0 0 0 0 0 0 0 0 0 0 0 0 0 0 0 0 0 0 127 0"/>
<feOffset dy="5"/>
<feGaussianBlur stdDeviation="5"/>
<feColorMatrix type="matrix" values="0 0 0 0 0.690196 0 0 0 0 0.72549 0 0 0 0 0.780392 0 0 0 0.4 0"/>
<feBlend mode="normal" in2="BackgroundImageFix" result="effect1_dropShadow"/>
<feBlend mode="normal" in="SourceGraphic" in2="effect1_dropShadow" result="shape"/>
</filter>
<filter id="filter2_d" x="0" y="469" width="40" height="40" filterUnits="userSpaceOnUse" color-interpolation-filters="sRGB">
<feFlood flood-opacity="0" result="BackgroundImageFix"/>
<feColorMatrix in="SourceAlpha" type="matrix" values="0 0 0 0 0 0 0 0 0 0 0 0 0 0 0 0 0 0 127 0"/>
<feOffset dy="5"/>
<feGaussianBlur stdDeviation="5"/>
<feColorMatrix type="matrix" values="0 0 0 0 0.690196 0 0 0 0 0.72549 0 0 0 0 0.780392 0 0 0 0.4 0"/>
<feBlend mode="normal" in2="BackgroundImageFix" result="effect1_dropShadow"/>
<feBlend mode="normal" in="SourceGraphic" in2="effect1_dropShadow" result="shape"/>
</filter>
<filter id="filter3_d" x="0" y="935" width="40" height="40" filterUnits="userSpaceOnUse" color-interpolation-filters="sRGB">
<feFlood flood-opacity="0" result="BackgroundImageFix"/>
<feColorMatrix in="SourceAlpha" type="matrix" values="0 0 0 0 0 0 0 0 0 0 0 0 0 0 0 0 0 0 127 0"/>
<feOffset dy="5"/>
<feGaussianBlur stdDeviation="5"/>
<feColorMatrix type="matrix" values="0 0 0 0 0.690196 0 0 0 0 0.72549 0 0 0 0 0.780392 0 0 0 0.4 0"/>
<feBlend mode="normal" in2="BackgroundImageFix" result="effect1_dropShadow"/>
<feBlend mode="normal" in="SourceGraphic" in2="effect1_dropShadow" result="shape"/>
</filter>
<filter id="filter4_d" x="0" y="1189" width="40" height="40" filterUnits="userSpaceOnUse" color-interpolation-filters="sRGB">
<feFlood flood-opacity="0" result="BackgroundImageFix"/>
<feColorMatrix in="SourceAlpha" type="matrix" values="0 0 0 0 0 0 0 0 0 0 0 0 0 0 0 0 0 0 127 0"/>
<feOffset dy="5"/>
<feGaussianBlur stdDeviation="5"/>
<feColorMatrix type="matrix" values="0 0 0 0 0.690196 0 0 0 0 0.72549 0 0 0 0 0.780392 0 0 0 0.4 0"/>
<feBlend mode="normal" in2="BackgroundImageFix" result="effect1_dropShadow"/>
<feBlend mode="normal" in="SourceGraphic" in2="effect1_dropShadow" result="shape"/>
</filter>
<filter id="filter5_d" x="0" y="1467" width="40" height="40" filterUnits="userSpaceOnUse" color-interpolation-filters="sRGB">
<feFlood flood-opacity="0" result="BackgroundImageFix"/>
<feColorMatrix in="SourceAlpha" type="matrix" values="0 0 0 0 0 0 0 0 0 0 0 0 0 0 0 0 0 0 127 0"/>
<feOffset dy="5"/>
<feGaussianBlur stdDeviation="5"/>
<feColorMatrix type="matrix" values="0 0 0 0 0.690196 0 0 0 0 0.72549 0 0 0 0 0.780392 0 0 0 0.4 0"/>
<feBlend mode="normal" in2="BackgroundImageFix" result="effect1_dropShadow"/>
<feBlend mode="normal" in="SourceGraphic" in2="effect1_dropShadow" result="shape"/>
</filter>
<filter id="filter6_d" x="0" y="681" width="40" height="40" filterUnits="userSpaceOnUse" color-interpolation-filters="sRGB">
<feFlood flood-opacity="0" result="BackgroundImageFix"/>
<feColorMatrix in="SourceAlpha" type="matrix" values="0 0 0 0 0 0 0 0 0 0 0 0 0 0 0 0 0 0 127 0"/>
<feOffset dy="5"/>
<feGaussianBlur stdDeviation="5"/>
<feColorMatrix type="matrix" values="0 0 0 0 0.690196 0 0 0 0 0.72549 0 0 0 0 0.780392 0 0 0 0.4 0"/>
<feBlend mode="normal" in2="BackgroundImageFix" result="effect1_dropShadow"/>
<feBlend mode="normal" in="SourceGraphic" in2="effect1_dropShadow" result="shape"/>
</filter>
<filter id="filter7_d" x="0" y="1679" width="40" height="40" filterUnits="userSpaceOnUse" color-interpolation-filters="sRGB">
<feFlood flood-opacity="0" result="BackgroundImageFix"/>
<feColorMatrix in="SourceAlpha" type="matrix" values="0 0 0 0 0 0 0 0 0 0 0 0 0 0 0 0 0 0 127 0"/>
<feOffset dy="5"/>
<feGaussianBlur stdDeviation="5"/>
<feColorMatrix type="matrix" values="0 0 0 0 0.690196 0 0 0 0 0.72549 0 0 0 0 0.780392 0 0 0 0.4 0"/>
<feBlend mode="normal" in2="BackgroundImageFix" result="effect1_dropShadow"/>
<feBlend mode="normal" in="SourceGraphic" in2="effect1_dropShadow" result="shape"/>
</filter>
<filter id="filter8_d" x="0" y="1912" width="40" height="40" filterUnits="userSpaceOnUse" color-interpolation-filters="sRGB">
<feFlood flood-opacity="0" result="BackgroundImageFix"/>
<feColorMatrix in="SourceAlpha" type="matrix" values="0 0 0 0 0 0 0 0 0 0 0 0 0 0 0 0 0 0 127 0"/>
<feOffset dy="5"/>
<feGaussianBlur stdDeviation="5"/>
<feColorMatrix type="matrix" values="0 0 0 0 0.690196 0 0 0 0 0.72549 0 0 0 0 0.780392 0 0 0 0.4 0"/>
<feBlend mode="normal" in2="BackgroundImageFix" result="effect1_dropShadow"/>
<feBlend mode="normal" in="SourceGraphic" in2="effect1_dropShadow" result="shape"/>
</filter>
</defs>
</svg>
