<svg width="90" height="90" viewBox="0 0 90 90" fill="none" xmlns="http://www.w3.org/2000/svg">
<path d="M43.5472 89.9996C67.5976 89.9996 87.0943 70.5029 87.0943 46.4524C87.0943 22.402 67.5976 2.90527 43.5472 2.90527C19.4967 2.90527 0 22.402 0 46.4524C0 70.5029 19.4967 89.9996 43.5472 89.9996Z" fill="#0082CA"/>
<path d="M43.5477 77.6408C26.3507 77.6408 12.3599 63.6498 12.3599 46.4531C12.3599 29.2561 26.3507 15.2651 43.5477 15.2651C60.7447 15.2651 74.7355 29.2561 74.7355 46.4531C74.7355 63.6498 60.7446 77.6408 43.5477 77.6408Z" fill="white"/>
<path d="M43.5477 65.2805C33.1659 65.2805 24.7198 56.8342 24.7198 46.4528C24.7198 36.0706 33.166 27.6245 43.5477 27.6245C53.9295 27.6245 62.3756 36.0708 62.3756 46.4528C62.3756 56.8344 53.9295 65.2805 43.5477 65.2805Z" fill="#FFC843"/>
<path d="M41.8504 43.8683C40.668 45.0506 40.668 46.9673 41.8504 48.1503C43.0328 49.3328 44.9501 49.3323 46.1322 48.15L79.0334 15.249C80.2155 14.0672 80.2158 12.15 79.033 10.9673C77.8509 9.78499 75.9336 9.78499 74.7513 10.9673L41.8504 43.8683Z" fill="#333E48"/>
<path opacity="0.2" d="M41.8503 48.1503C43.0328 49.3328 44.9501 49.3322 46.1322 48.1499L79.0333 15.249C80.2155 14.0672 80.2158 12.1499 79.033 10.9673L41.8503 48.1503Z" fill="black"/>
<path d="M74.6533 11.0647L62.3786 23.3404L59.265 12.2751L71.54 0.000488281L74.6533 11.0647Z" fill="#0055B8"/>
<path d="M78.9353 15.3472L66.6603 27.6223L77.7254 30.7359L90 18.4606L78.9353 15.3472Z" fill="#0055B8"/>
<path opacity="0.2" d="M61.7059 20.9501L62.3786 23.3404L74.6532 11.0647L73.9809 8.67529L61.7059 20.9501Z" fill="black"/>
<path opacity="0.2" d="M78.9353 15.3472L66.6603 27.6223L69.0498 28.2947L81.3252 16.0199L78.9353 15.3472Z" fill="black"/>
</svg>
