<svg width="425" height="362" viewBox="0 0 425 362" fill="none" xmlns="http://www.w3.org/2000/svg">
<g clip-path="url(#clip0)">
<path opacity="0.18" d="M1.81 272.88C-0.529998 244.67 -2.63 214.97 9.34 189.31C16.0649 175.35 24.7308 162.412 35.08 150.88C44.32 140.66 58.84 138.05 70.63 131.88C89.73 121.88 102.52 103.11 113.03 84.2897C123.54 65.4697 132.83 45.4797 148.03 30.1597C164.89 13.0997 188.23 3.06967 212.08 0.629666C235.93 -1.81033 260.27 3.02967 282.26 12.6297C292.34 17.0397 302.11 22.5297 310.01 30.1997C326.59 46.3097 333.01 69.8097 341.66 91.2497C346.405 103.011 351.993 114.414 358.38 125.37C364.05 135.09 372.48 144.1 377.3 154.12C382.12 164.14 385.05 174.07 391.22 183.65C397.04 192.7 403.48 201.37 408.69 210.81C420.611 232.563 425.501 257.474 422.69 282.12C421.22 294.69 417.56 307.35 409.77 317.32C401.26 328.21 388.61 334.98 375.91 340.43C323.635 362.691 265.565 367.458 210.36 354.02C190.69 349.17 171.36 342.02 151.18 340.68C130.8 339.34 110.57 344.02 90.28 346.34C70.62 348.59 41.54 348.98 24.22 337.62C5.59 325.39 3.44 292.58 1.81 272.88Z" fill="#3E9DF4"/>
<path d="M177.88 246.45C178.46 255.7 176.88 265.01 177.74 274.24C178.04 277.24 178.59 280.38 177.59 283.24C176.666 285.693 174.842 287.703 172.49 288.86C167.02 291.66 159.91 289.86 155.64 285.41C151.37 280.96 149.64 274.55 149.99 268.41C150.34 262.27 152.48 256.41 155.04 250.81C157.34 245.81 161.22 235.94 166.91 233.81C174.26 231.13 177.56 241.21 177.88 246.45Z" fill="#3E3E54"/>
<path d="M168.17 229.7C165.88 225.56 159.55 223.83 154.98 226.1C153.624 226.951 152.211 227.706 150.75 228.36C149.03 228.94 147.16 228.79 145.36 228.97C139.57 229.57 134.44 234.08 133.57 239.32C133.08 242.32 133.84 245.32 133.36 248.32C132.23 255.4 124.5 260.74 123.72 267.85C123.47 270.16 123.99 272.46 124.19 274.76C124.541 279.08 123.791 283.418 122.01 287.37C120.74 290.2 118.95 292.9 118.48 295.91C117.55 301.91 122.58 307.67 128.88 309.51C135.18 311.35 142.26 309.9 148.23 307.07C154.81 303.95 160.67 298.84 162.65 292.37C165.75 282.28 158.94 271.55 162 261.45C162.848 259.103 163.85 256.814 165 254.6C168 248.04 171.87 236.41 168.17 229.7Z" fill="#3E3E54"/>
<path d="M142.65 268.19C142.72 265.46 142.29 262.19 144.37 260.46C144.546 260.293 144.77 260.185 145.01 260.15C145.245 260.162 145.472 260.234 145.67 260.36C147.943 261.606 149.975 263.249 151.67 265.21C153.75 267.62 155.37 270.54 158.05 272.21C159.13 272.9 160.34 273.36 161.46 273.96C163.775 275.212 165.72 277.05 167.1 279.29C167.302 279.557 167.448 279.863 167.528 280.187C167.609 280.512 167.623 280.85 167.57 281.18C167.32 282.03 166.34 282.4 165.47 282.57C162.967 282.994 160.424 283.128 157.89 282.97C154.437 282.877 150.987 282.737 147.54 282.55C145.318 282.507 143.107 282.215 140.95 281.68C140.03 281.42 138.34 280.78 138.11 279.68C137.88 278.58 139.39 277.46 140 276.53C141.628 274.045 142.545 271.16 142.65 268.19Z" fill="url(#paint0_linear)"/>
<path d="M424.64 317.3H0.200001V332.87H424.64V317.3Z" fill="#3E9DF4"/>
<path d="M424.64 317.3H0.200001V325.52H424.64V317.3Z" fill="url(#paint1_linear)"/>
<path d="M179.08 293.4L182.31 320.17C159.059 321.36 135.757 321.16 112.53 319.57C112.01 314.76 113.78 310.02 115.63 305.57C120.23 294.49 126.69 282.63 138.12 279C146.86 276.22 154.53 279.69 163.12 280.55C167.38 280.98 172.05 279.55 175.42 282.94C178 285.54 178.65 289.88 179.08 293.4Z" fill="#3E9DF4"/>
<path d="M179.08 293.4L182.31 320.17C159.059 321.36 135.757 321.16 112.53 319.57C112.01 314.76 113.78 310.02 115.63 305.57C120.23 294.49 126.69 282.63 138.12 279C146.86 276.22 154.53 279.69 163.12 280.55C167.38 280.98 172.05 279.55 175.42 282.94C178 285.54 178.65 289.88 179.08 293.4Z" fill="url(#paint2_linear)"/>
<path d="M76.47 277.58C79.19 278.23 81.98 279.02 84.17 280.76C85.8571 282.222 87.2664 283.977 88.33 285.94C93.677 294.888 97.084 304.86 98.33 315.21C98.5058 316.048 98.4364 316.92 98.13 317.72C97.38 319.24 95.32 319.43 93.62 319.41L14.72 318.56L5.81 319.12C7.81 310.24 13.63 280.78 26.16 276.96C31.1813 275.701 36.2936 274.838 41.45 274.38C46.8166 274.158 52.1914 274.232 57.55 274.6C63.9256 275.091 70.2521 276.088 76.47 277.58Z" fill="#3E9DF4"/>
<path d="M76.47 277.58C79.19 278.23 81.98 279.02 84.17 280.76C85.8571 282.222 87.2664 283.977 88.33 285.94C93.677 294.888 97.084 304.86 98.33 315.21C98.5058 316.048 98.4364 316.92 98.13 317.72C97.38 319.24 95.32 319.43 93.62 319.41L14.72 318.56L5.81 319.12C7.81 310.24 13.63 280.78 26.16 276.96C31.1813 275.701 36.2936 274.838 41.45 274.38C46.8166 274.158 52.1914 274.232 57.55 274.6C63.9256 275.091 70.2521 276.088 76.47 277.58Z" fill="url(#paint3_linear)"/>
<path d="M64.13 275.02C64.155 276.328 63.9865 277.632 63.63 278.89C62.53 282.16 58.73 284.06 55.32 283.56C53.6192 283.236 52.0176 282.52 50.6426 281.468C49.2676 280.416 48.1573 279.057 47.4 277.5C45.919 274.383 45.232 270.947 45.4 267.5C45.2967 265.935 45.6923 264.377 46.53 263.05C47.0968 262.421 47.7893 261.918 48.5627 261.574C49.3362 261.229 50.1733 261.051 51.02 261.05C54.0612 260.865 57.0555 261.869 59.37 263.85C60.5 264.85 62.7 265.67 63.37 266.75C64.19 268.24 64.2 273.2 64.13 275.02Z" fill="url(#paint4_linear)"/>
<path d="M46.47 264.81C46.47 264.81 56.97 281.34 60.79 276.64C61.9092 275.267 62.7147 273.666 63.15 271.948C63.5853 270.231 63.6399 268.44 63.31 266.7L46.47 264.81Z" fill="url(#paint5_linear)"/>
<path d="M84.68 276.27L78.45 280.53C77.9673 280.822 77.5294 281.182 77.15 281.6C76.6135 282.377 76.2706 283.272 76.15 284.21C74.1903 293.749 73.2616 303.472 73.38 313.21C73.3221 314.23 73.4753 315.251 73.83 316.21C74.4001 317.324 75.3407 318.204 76.49 318.7C78.78 319.81 81.41 319.9 83.95 319.97L94.04 320.24C95.0513 320.33 96.0705 320.221 97.04 319.92C99.37 319.02 100.28 316.13 100.1 313.64C99.7623 311.017 98.9918 308.469 97.82 306.1L90.96 290.02C89.3 286.03 87.86 279.28 84.68 276.27Z" fill="#3E9DF4"/>
<path d="M151.62 312.75C153.642 312.715 155.659 312.947 157.62 313.44C158.595 313.695 159.494 314.184 160.24 314.863C160.985 315.542 161.555 316.392 161.9 317.34C162.65 320.02 160.69 322.85 158.18 324.04C155.67 325.23 152.78 325.19 150 325.13L127.6 324.6C124.993 324.66 122.391 324.353 119.87 323.69C118.611 323.347 117.437 322.744 116.425 321.921C115.412 321.098 114.583 320.072 113.99 318.91C112.37 315.29 114.32 310.77 117.66 308.62C122.73 305.37 128.13 307 133.23 308.92C139.12 311.156 145.327 312.448 151.62 312.75Z" fill="#3E9DF4"/>
<path d="M323.43 319.66C327.88 308.22 337.15 292.21 341.6 280.77C343.68 275.43 346.04 269.77 350.89 266.67C354.16 264.59 358.13 264.03 361.98 263.51L381.13 260.88C386.27 260.19 390.4 261.88 394.58 264.95C398.76 268.02 401.88 272.33 404.58 276.77C410.844 287.034 415.289 298.303 417.72 310.08C418.25 312.68 418.56 315.77 416.67 317.64C415.3 319.01 413.18 319.26 411.24 319.36C383.53 320.93 351.23 318.21 323.43 319.66Z" fill="#3E9DF4"/>
<path d="M323.43 319.66C327.88 308.22 337.15 292.21 341.6 280.77C343.68 275.43 346.04 269.77 350.89 266.67C354.16 264.59 358.13 264.03 361.98 263.51L381.13 260.88C386.27 260.19 390.4 261.88 394.58 264.95C398.76 268.02 401.88 272.33 404.58 276.77C410.844 287.034 415.289 298.303 417.72 310.08C418.25 312.68 418.56 315.77 416.67 317.64C415.3 319.01 413.18 319.26 411.24 319.36C383.53 320.93 351.23 318.21 323.43 319.66Z" fill="url(#paint6_linear)"/>
<path d="M375.69 267.01C374.645 268.39 373.207 269.422 371.566 269.972C369.924 270.521 368.155 270.562 366.49 270.09C365.976 269.957 365.498 269.711 365.09 269.37C364.712 268.98 364.416 268.517 364.22 268.01C362.71 264.51 362.64 260.59 362.58 256.78C362.446 255.233 362.658 253.676 363.2 252.22C365.07 248.14 373.9 244.04 376.74 249.02C379.13 253.22 378.49 263.18 375.69 267.01Z" fill="url(#paint7_linear)"/>
<path d="M91.08 206.01C90.2785 205.524 89.3363 205.324 88.4067 205.442C87.477 205.56 86.6147 205.989 85.96 206.66C84.6871 208.055 84.0121 209.893 84.08 211.78C84.0145 212.88 84.2533 213.977 84.77 214.95C85.0366 215.43 85.4264 215.831 85.8992 216.11C86.372 216.389 86.9108 216.538 87.46 216.54C88.2924 216.438 89.0632 216.049 89.64 215.44C90.2602 214.783 90.7429 214.009 91.0597 213.163C91.3764 212.316 91.5209 211.416 91.4845 210.513C91.4482 209.61 91.2318 208.724 90.8481 207.906C90.4644 207.088 89.921 206.355 89.25 205.75" fill="white"/>
<path d="M107.48 193.98C106.27 195.79 106.48 198.63 108.38 199.77C109.299 200.261 110.341 200.476 111.38 200.39C112.603 200.348 113.814 200.14 114.98 199.77C115.337 199.609 115.733 199.554 116.12 199.61C116.459 199.756 116.761 199.978 117 200.26C117.902 201.03 119.073 201.411 120.255 201.318C121.437 201.225 122.535 200.666 123.305 199.765C124.075 198.863 124.456 197.692 124.363 196.51C124.27 195.327 123.712 194.23 122.81 193.46C122.56 193.26 122.25 193.02 122.29 192.7C122.32 192.532 122.396 192.376 122.51 192.25C123.074 191.381 123.284 190.33 123.098 189.311C122.912 188.293 122.344 187.383 121.51 186.77C117.91 184.27 117.19 187.82 115.63 189.77C113.61 192.32 109.58 190.88 107.48 193.98Z" fill="white"/>
<path d="M151.23 175.59C152.7 175.49 154.32 175.09 155.09 173.84C155.458 173.148 155.647 172.375 155.64 171.59C155.707 170.335 155.653 169.076 155.48 167.83C154.89 163.63 148.95 161.59 146.77 165.67C144.59 169.75 145.58 175.99 151.23 175.59Z" fill="white"/>
<path d="M188.24 192.24C187.88 191.96 187.41 192.43 187.24 192.84C186.719 194.078 186.495 195.421 186.585 196.761C186.675 198.102 187.078 199.402 187.76 200.56C187.907 200.834 188.116 201.07 188.37 201.25C188.627 201.391 188.917 201.46 189.21 201.45C189.958 201.395 190.668 201.1 191.235 200.607C191.801 200.115 192.192 199.453 192.35 198.72C192.484 197.982 192.465 197.225 192.293 196.495C192.121 195.766 191.8 195.079 191.35 194.48C190.544 193.272 189.363 192.362 187.99 191.89" fill="white"/>
<path d="M267.68 204.37C268.237 204.355 268.767 204.129 269.163 203.737C269.558 203.345 269.79 202.817 269.81 202.26C270.59 197.84 265.21 190.26 260.56 194.52C255.91 198.78 263.08 205.07 267.68 204.37Z" fill="white"/>
<path d="M312.53 167.61C313.048 166.684 313.219 165.603 313.012 164.562C312.805 163.521 312.233 162.588 311.4 161.93C310.884 161.517 310.253 161.275 309.594 161.238C308.934 161.2 308.279 161.369 307.72 161.72C306.5 162.63 306.42 164.39 306.45 165.91C305.29 165.35 303.83 166.47 303.7 167.75C303.693 168.397 303.843 169.037 304.137 169.613C304.432 170.19 304.861 170.686 305.39 171.06C305.92 171.526 306.538 171.88 307.209 172.1C307.879 172.32 308.587 172.402 309.29 172.34C309.989 172.262 310.646 171.963 311.164 171.486C311.681 171.01 312.034 170.381 312.17 169.69C312.29 168.74 311.91 167.76 312.1 166.82" fill="white"/>
<path d="M329.01 184.38C327.858 183.82 326.548 183.672 325.3 183.96C324.811 184.042 324.362 184.281 324.02 184.64C323.687 185.127 323.532 185.713 323.58 186.3C323.579 187.178 323.69 188.051 323.91 188.9C324.011 189.483 324.295 190.019 324.72 190.43C325.65 191.2 327.04 190.73 328.14 190.23C328.99 189.84 329.95 189.33 330.14 188.41C330.219 187.833 330.114 187.245 329.84 186.73C329.336 185.535 328.692 184.403 327.92 183.36" fill="white"/>
<path d="M354.33 187.88C353.867 188.553 353.646 189.363 353.702 190.179C353.759 190.994 354.089 191.766 354.64 192.37C354.885 192.651 355.196 192.867 355.545 193C355.894 193.133 356.27 193.177 356.64 193.13C357.081 192.99 357.473 192.727 357.77 192.373C358.068 192.019 358.258 191.588 358.32 191.13C358.513 189.974 358.267 188.787 357.631 187.803C356.995 186.819 356.013 186.108 354.88 185.81" fill="white"/>
<path d="M196.08 33.59C192.049 36.5424 188.877 40.5153 186.89 45.1C186.483 46.1407 185.867 47.0869 185.08 47.88C183.27 49.46 180.54 48.95 178.16 48.65C173.843 48.0935 169.456 48.5289 165.332 49.9232C161.209 51.3176 157.458 53.6341 154.365 56.6965C151.271 59.7589 148.917 63.4866 147.482 67.5958C146.046 71.7051 145.567 76.0876 146.08 80.41C137.63 80.72 131.21 88.71 129.15 96.91C128.032 101.287 127.858 105.852 128.639 110.302C129.42 114.752 131.138 118.985 133.68 122.72C136.277 126.408 139.722 129.418 143.724 131.497C147.726 133.577 152.17 134.665 156.68 134.67C156.11 141.04 159 147.18 162.24 152.67C164.43 156.39 166.87 160.06 170.24 162.79C173.61 165.52 177.99 167.23 182.24 166.48C182.88 176.01 191.66 183.72 201.11 185.05C210.56 186.38 220.17 182.31 227.42 176.1C231.33 179.86 237.47 180.54 242.68 179.03C247.89 177.52 252.34 174.13 256.4 170.54C264 172.72 271.9 168.99 278.93 165.37C283.4 163.06 288.08 160.57 290.75 156.31C293.42 152.05 293.64 146.77 292.53 141.95C291.42 137.13 289.06 132.69 286.73 128.32C290.78 125.96 294.95 123.49 297.67 119.67C300.39 115.85 301.24 110.28 298.39 106.57C297.66 105.62 296.71 104.77 296.46 103.57C296.17 102.24 296.9 100.93 297.46 99.7001C300.22 93.7001 299.4 86.51 296.57 80.55C293.74 74.59 289.11 69.68 284.21 65.26C280.53 61.95 276.59 58.81 272 56.98C267.41 55.15 262 54.78 257.6 56.98C256.37 53.13 255.06 49.14 252.29 46.2C249.52 43.26 244.84 41.68 241.29 43.69C242.53 42.98 234.34 34.93 233.51 34.34C229.952 31.8336 225.83 30.2433 221.51 29.71C214.24 28.88 202.28 29.34 196.08 33.59Z" fill="white"/>
<path d="M250.25 279.13C245.35 284.39 242.51 291.2 239.76 297.84L231.94 316.84C231.683 317.273 231.525 317.758 231.479 318.26C231.432 318.761 231.497 319.267 231.67 319.74C231.97 320.114 232.346 320.419 232.774 320.635C233.202 320.851 233.671 320.972 234.15 320.99C238.154 321.595 242.186 321.995 246.23 322.19C266.583 323.463 286.957 323.93 307.35 323.59C309.79 323.59 312.35 323.47 314.51 322.37C320.13 319.52 320.58 311.71 319.58 305.49C318.428 298.268 316.393 291.215 313.52 284.49C312.515 281.816 311.038 279.343 309.16 277.19C304.5 272.31 297.09 271.53 290.35 271.34C277.44 270.94 259.91 268.74 250.25 279.13Z" fill="#3E9DF4"/>
<path d="M235.28 274.78C235.055 274.022 234.596 273.353 233.97 272.87C233.426 272.591 232.821 272.453 232.21 272.47C230.434 272.393 228.656 272.457 226.89 272.66C225.759 272.695 224.671 273.107 223.8 273.83C223.166 274.59 222.776 275.524 222.68 276.51C221.25 284.26 222.89 292.19 223.53 300.04C223.96 305.39 224.01 311.04 226.9 315.6C228.201 317.593 229.982 319.227 232.078 320.354C234.174 321.481 236.52 322.064 238.9 322.05C240.9 322.05 243.2 321.31 243.97 319.46C244.273 318.525 244.359 317.533 244.22 316.56C243.29 302.47 241.26 287.74 235.28 274.78Z" fill="#3E9DF4"/>
<path d="M234.27 267.88C235.22 265.83 236.5 263.96 237.63 262C237.953 261.517 238.162 260.966 238.24 260.39C238.275 260.1 238.22 259.806 238.083 259.549C237.945 259.291 237.731 259.082 237.47 258.95C236.34 258.52 235.47 260.08 234.26 260.32C233.05 260.56 232.26 259.63 231.48 258.84C228.139 255.505 224.187 252.843 219.84 251C219.621 250.867 219.376 250.78 219.121 250.745C218.866 250.711 218.607 250.73 218.36 250.8C217.88 251 217.75 251.8 218.24 251.98C217.775 252.013 217.311 251.894 216.92 251.64C216.49 251.46 215.87 251.45 215.68 251.87C215.49 252.29 216.05 252.87 215.91 253.43C215.387 253.452 214.864 253.373 214.37 253.2C213.86 253.1 213.19 253.27 213.09 253.79C213.076 253.986 213.096 254.182 213.15 254.37C213.22 255.155 213.22 255.945 213.15 256.73C213.15 258.82 214.42 260.73 215.66 262.38C218.3 265.97 221.2 269.38 223.25 273.38C223.797 274.633 224.51 275.807 225.37 276.87C226.61 278.18 231.19 280.07 232.37 277.77C232.94 276.69 232.47 274.32 232.67 273.05C232.966 271.262 233.504 269.523 234.27 267.88Z" fill="url(#paint8_linear)"/>
<path d="M296.31 299.65C296.71 301.59 296.77 303.81 295.51 305.35C294.25 306.89 291.91 307.26 289.85 307.35C279.85 307.87 269.59 306.15 259.85 308.43C258.444 308.615 257.147 309.283 256.18 310.32C255.18 311.67 255.31 313.53 255.51 315.21L256.35 322.39L246.58 320.61C246.323 320.6 246.071 320.538 245.839 320.428C245.607 320.318 245.399 320.162 245.229 319.969C245.059 319.777 244.93 319.552 244.849 319.308C244.769 319.064 244.738 318.806 244.76 318.55C243.98 314.809 243.644 310.989 243.76 307.17C243.888 303.347 245.382 299.696 247.97 296.88C250.32 294.56 253.51 293.33 256.68 292.42C264.23 290.27 272.12 289.63 279.94 289C283.33 288.73 288.94 288 291.87 290.28C294.25 292.12 295.71 296.77 296.31 299.65Z" fill="url(#paint9_linear)"/>
<path d="M388.79 295.49C387.79 297.08 385.5 297.22 383.59 297.22C375.214 297.257 366.865 298.172 358.68 299.95C355.662 300.471 352.75 301.485 350.06 302.95C348.721 303.685 347.545 304.685 346.603 305.888C345.661 307.091 344.973 308.473 344.58 309.95C343.95 312.95 345.24 316.41 347.98 317.76C349.679 318.431 351.51 318.698 353.33 318.54L407.78 317.95C409.027 318.022 410.275 317.842 411.45 317.42C414.15 316.23 415.31 312.85 415.15 309.9C413.29 274.57 395.55 264.51 392.6 264.96C390.24 265.31 389.85 283.54 389.19 286.15C388.44 289.11 390.67 292.6 388.79 295.49Z" fill="#3E9DF4"/>
<path d="M341.73 310.6C339.514 310.284 337.258 310.406 335.09 310.96C330.706 311.999 326.684 314.203 323.45 317.34C323.071 317.663 322.773 318.071 322.58 318.53C322.467 319.069 322.55 319.631 322.814 320.115C323.078 320.598 323.506 320.972 324.02 321.17C325.062 321.536 326.178 321.639 327.27 321.47L337.5 320.75C339.011 320.731 340.507 320.446 341.92 319.91C343.61 319.16 345.05 317.67 346.92 317.59C347.462 317.639 348.009 317.602 348.54 317.48C350.17 316.87 349.75 314.25 348.82 313.28C347.4 311.8 343.66 310.88 341.73 310.6Z" fill="url(#paint10_linear)"/>
<path d="M76.4 243.97C76.4 253.04 73.19 263.21 64.98 267.07C59.08 269.84 51.81 268.53 46.47 264.81C41.13 261.09 37.54 255.27 35.34 249.14C32.81 242.08 31.96 234.25 34.09 227.06C36.22 219.87 41.62 213.47 48.76 211.19C68.65 204.88 76.42 228.98 76.4 243.97Z" fill="url(#paint11_linear)"/>
<path d="M47.22 224.31C47.9138 224.135 48.5849 223.88 49.22 223.55C50.38 222.82 50.98 221.45 52.04 220.55C53.2151 219.79 54.5432 219.299 55.93 219.11C59.5676 218.251 63.0109 216.714 66.08 214.58C69.08 212.49 71.88 208.98 70.7 205.58C70.2229 204.369 69.4242 203.311 68.39 202.52C66.8298 201.253 64.9915 200.372 63.0257 199.952C61.0599 199.531 59.0224 199.582 57.08 200.1C51.76 201.6 48.08 206.34 43.63 209.58C38.37 213.39 31.29 215.76 28.92 221.81C27.64 225.09 28.06 228.89 26.56 232.08C25.84 233.61 24.65 235.18 25.12 236.81C25.55 238.26 27.21 239.22 27.27 240.73C27.2208 241.451 27.0198 242.153 26.68 242.79C25.37 246.07 26.06 249.89 27.68 253.02C29.4702 256.076 31.7122 258.844 34.33 261.23C37.33 264.23 41.19 267.54 45.42 266.77C45.6698 266.737 45.909 266.648 46.12 266.51C46.98 265.86 46.12 264.51 45.37 263.79C42.5022 261.029 40.3767 257.59 39.19 253.79C39.0054 253.34 38.9669 252.843 39.08 252.37C39.2491 252.021 39.5375 251.743 39.8931 251.587C40.2488 251.431 40.6484 251.408 41.02 251.52C41.7586 251.764 42.4275 252.183 42.97 252.74C43.3783 252.338 43.6375 251.809 43.7047 251.24C43.772 250.671 43.6433 250.096 43.34 249.61C42.01 247.12 39.74 245.61 38.57 242.87C37.532 240.8 37.1616 238.46 37.51 236.17C38.38 230.88 41.98 225.96 47.22 224.31Z" fill="#3E3E54"/>
<path d="M74.62 258.5C71.9682 258.314 69.3419 259.12 67.25 260.76C66.31 261.43 65.33 262.49 65.68 263.6C65.9027 264.053 66.2563 264.428 66.6949 264.678C67.1335 264.927 67.6369 265.04 68.14 265C69.1437 264.901 70.1567 264.966 71.14 265.19C69.3217 267.605 68.1296 270.432 67.67 273.42C67.23 276.33 67.67 279.73 70.12 281.42C71.8546 282.443 73.8917 282.828 75.88 282.51C77.4714 282.421 79.0303 282.024 80.47 281.34C82.0028 280.461 83.2619 279.174 84.1075 277.622C84.953 276.07 85.352 274.315 85.26 272.55C85.14 269.14 83.43 266.24 81.2 263.77C79.23 261.6 77.85 258.88 74.62 258.5Z" fill="url(#paint12_linear)"/>
<path d="M263.73 244.43C262.564 246.603 261.718 248.934 261.22 251.35C260.915 253.528 261.134 255.748 261.859 257.825C262.584 259.902 263.795 261.775 265.39 263.29C267.72 265.5 270.92 267.13 271.93 270.18C272.85 272.97 271.61 276.18 272.8 278.9C273.99 281.62 277.24 282.74 280.04 282.15C282.825 281.401 285.217 279.611 286.72 277.15C288.176 274.683 289.398 272.085 290.37 269.39C291.84 265.868 293.554 262.453 295.5 259.17C296.951 256.933 298.238 254.593 299.35 252.17C300.482 249.286 301.071 246.218 301.09 243.12C301.23 235.96 298.62 228.41 292.85 224.17C290.201 222.263 287.013 221.251 283.749 221.28C280.485 221.309 277.315 222.377 274.7 224.33C272.03 226.33 271.12 229 269.7 231.96C267.707 236.093 265.717 240.25 263.73 244.43Z" fill="url(#paint13_linear)"/>
<path d="M276.26 207.96C275.26 207.03 273.9 205.96 272.76 206.68C272.341 206.984 272.027 207.41 271.86 207.9C271.132 209.662 271.029 211.621 271.57 213.45C270.452 212.9 269.171 212.779 267.97 213.11C266.16 213.88 265.88 216.39 266.46 218.27C267.04 220.15 268.16 221.91 268.17 223.87C268.17 224.87 267.87 225.87 267.85 226.93C267.801 227.442 267.9 227.958 268.133 228.417C268.367 228.875 268.727 229.258 269.17 229.52C270.4 230.07 271.72 229.1 272.84 228.34C278.78 224.34 287.84 226.19 291.75 232.22C295.66 238.25 294.19 246.02 292.64 252.97C293.03 253.57 293.77 252.66 294.24 252.12C295.24 250.97 297.4 251.91 297.7 253.41C297.772 254.172 297.631 254.94 297.292 255.627C296.953 256.314 296.429 256.893 295.78 257.3C294.54 258.2 293.06 258.71 291.78 259.53C291.604 259.616 291.447 259.736 291.318 259.884C291.189 260.031 291.091 260.203 291.03 260.39C290.994 260.718 291.06 261.05 291.22 261.34C291.632 262.283 292.1 263.201 292.62 264.09C292.789 264.471 293.035 264.813 293.343 265.093C293.651 265.374 294.015 265.587 294.41 265.72C294.992 265.768 295.576 265.635 296.08 265.34C300.17 263.34 302.95 259.43 305.24 255.49C307.53 251.55 309.36 246.84 307.13 243.04C306.69 242.29 306.13 241.63 305.7 240.87C305.071 239.411 304.699 237.855 304.6 236.27C303.466 229.017 299.913 222.36 294.52 217.38C291.97 215.02 289.26 212.96 285.81 212.38C281.9 211.75 279.21 210.88 276.26 207.96Z" fill="#B7A451"/>
<path d="M351.18 241.79C350.88 245.5 351.52 249.79 354.59 251.85C356.8 253.35 359.68 253.3 362.36 253.19C366.12 253.04 370.01 252.85 373.36 251.19C378.49 248.69 381.55 243.34 383.88 238.12C385.651 234.56 386.791 230.72 387.25 226.77C387.55 222.77 386.56 218.61 383.84 215.71C382.102 213.961 379.953 212.675 377.59 211.97C360.96 206.5 352.19 228.88 351.18 241.79Z" fill="url(#paint14_linear)"/>
<path d="M362.18 206.37C362.241 205.025 362.618 203.713 363.28 202.54C364.098 201.374 365.291 200.524 366.66 200.13C370.84 198.81 375.27 200.78 379.2 202.71L389.4 207.71C391.315 208.337 393.056 209.407 394.479 210.834C395.902 212.261 396.968 214.004 397.59 215.92C398.199 217.167 398.601 218.505 398.78 219.88C398.81 221.728 398.366 223.553 397.49 225.18C396.943 226.62 396.008 227.879 394.79 228.82C395.84 229.3 396.14 230.67 396.01 231.82C395.716 233.846 394.776 235.722 393.33 237.17C391.886 238.606 390.294 239.883 388.58 240.98L385.28 243.26C384.7 243.66 383.97 244.08 383.28 243.79C383.041 243.657 382.845 243.458 382.716 243.217C382.586 242.976 382.529 242.703 382.55 242.43C382.6 241.886 382.746 241.354 382.98 240.86C384.693 236.533 385.457 231.888 385.22 227.24C385.224 226.434 385.068 225.636 384.76 224.89C384.402 224.259 383.947 223.689 383.41 223.2L378.65 218.43C377.469 217.135 376.125 215.998 374.65 215.05C373.251 214.25 371.685 213.786 370.076 213.696C368.467 213.606 366.859 213.892 365.38 214.53C364.72 214.82 363.54 215.59 362.79 215.39C361.79 215.12 362.06 214.17 362 213.19C361.863 210.916 361.923 208.634 362.18 206.37Z" fill="#3E3E54"/>
<path d="M387.64 240.28C387.717 240.898 387.669 241.524 387.497 242.123C387.325 242.721 387.033 243.278 386.64 243.76C385.828 244.846 384.74 245.695 383.49 246.22C382.927 246.516 382.275 246.591 381.66 246.43C381.245 246.216 380.899 245.887 380.663 245.484C380.428 245.08 380.312 244.617 380.33 244.15C380.301 243.1 380.531 242.058 381 241.118C381.469 240.178 382.163 239.368 383.02 238.76C384.72 237.65 387.22 237.94 387.64 240.28Z" fill="url(#paint15_linear)"/>
<path d="M350.82 234.81C351.78 234.51 352.768 234.312 353.77 234.22C354.434 234.132 355.106 234.132 355.77 234.22C356.599 234.408 357.402 234.697 358.16 235.08C360.16 236 362.33 237.08 363.3 239.08C363.555 239.763 363.849 240.431 364.18 241.08C365.04 242.134 366.208 242.893 367.52 243.25C368.59 243.66 368.71 245.1 369.61 245.8C370.69 246.64 372.26 246.3 373.47 245.69C374.832 245.019 376.036 244.064 377 242.89C377.584 242 378.326 241.223 379.19 240.6C379.635 240.314 380.175 240.215 380.692 240.326C381.209 240.436 381.661 240.747 381.95 241.19C382.044 241.548 382.063 241.921 382.004 242.286C381.946 242.652 381.811 243 381.61 243.31C380.148 246.274 378.159 248.948 375.74 251.2C374.951 251.983 374.059 252.656 373.09 253.2C371.612 253.881 370.03 254.307 368.41 254.46C365.183 254.92 361.929 255.171 358.67 255.21C356.784 255.334 354.892 255.072 353.11 254.44C352.564 254.216 352.057 253.906 351.61 253.52C350.534 252.386 349.836 250.947 349.61 249.4C348.4 244.14 349.08 239.82 350.82 234.81Z" fill="#3E3E54"/>
<path d="M361.18 245.95C361.249 246.572 361.127 247.199 360.83 247.75C360.18 248.75 358.77 248.9 357.58 248.75C356.477 248.599 355.409 248.261 354.42 247.75C354.032 247.565 353.69 247.295 353.42 246.96C353.06 246.359 352.905 245.657 352.98 244.96C352.992 243.98 353.058 243.002 353.18 242.03C353.242 241.304 353.418 240.592 353.7 239.92C354.16 238.92 354.92 238.18 356 238.62C356.966 239.03 357.845 239.621 358.59 240.36C360.111 241.842 361.033 243.832 361.18 245.95Z" fill="url(#paint16_linear)"/>
<path d="M172.78 278.12C173.578 275.438 174.804 272.902 176.41 270.61L181.69 262.16C181.828 261.869 182.061 261.632 182.35 261.49C182.524 261.457 182.703 261.461 182.876 261.502C183.048 261.544 183.21 261.621 183.35 261.73C185.81 263.26 186.41 266.6 186.11 269.48C185.81 272.36 184.85 275.21 185.11 278.09C185.432 279.645 185.666 281.218 185.81 282.8C185.758 283.974 185.455 285.123 184.922 286.17C184.389 287.217 183.638 288.137 182.72 288.87C180.47 290.76 175.4 293.35 173.5 289.95C171.91 287.02 172.08 281.2 172.78 278.12Z" fill="url(#paint17_linear)"/>
<path d="M178.37 286.88C175.78 287.58 173.07 288.83 171.96 291.27C171.499 292.483 171.265 293.771 171.27 295.07C170.89 301.843 170.743 308.623 170.83 315.41C170.707 316.788 171.029 318.169 171.75 319.35C172.75 320.64 174.56 320.96 176.2 321.01C179.283 321.101 182.35 320.538 185.2 319.36C186.106 319.089 186.884 318.499 187.39 317.7C187.662 317.014 187.751 316.27 187.65 315.54C187.3 308.81 185.73 302.02 185.65 295.32C185.55 290.58 184.79 285.14 178.37 286.88Z" fill="#3E9DF4"/>
<path d="M160.14 316.97C159.746 316.966 159.359 317.07 159.02 317.27C158.667 317.621 158.447 318.084 158.4 318.58C158.04 320.42 157.86 322.65 159.31 323.83C160.04 324.329 160.881 324.642 161.76 324.74C163.88 325.14 166.01 325.51 168.13 325.87C168.813 326.045 169.532 326.017 170.2 325.79C170.693 325.486 171.167 325.152 171.62 324.79C172.459 324.409 173.397 324.304 174.3 324.49C176.6 324.72 178.9 325.04 181.18 325.49C181.948 325.681 182.745 325.728 183.53 325.63C183.921 325.574 184.289 325.41 184.591 325.155C184.894 324.9 185.118 324.566 185.24 324.19C185.52 323.04 184.44 322.03 183.44 321.38C176.32 316.67 168.34 316.41 160.14 316.97Z" fill="url(#paint18_linear)"/>
<path d="M152.14 284.94C153.69 286.69 158.91 288.31 160.99 287.24C162.37 286.53 162.49 282.7 163.11 281.24C163.587 280.094 163.952 278.905 164.2 277.69C164.692 276.012 164.795 274.243 164.5 272.52C164.341 271.661 163.941 270.866 163.349 270.225C162.756 269.584 161.993 269.125 161.15 268.9C159.51 268.6 149.55 267.48 150.5 268.85C154.43 274.56 148.43 280.77 152.14 284.94Z" fill="url(#paint19_linear)"/>
<path d="M155.35 278.79C155.8 280.156 156.415 281.462 157.18 282.68C157.57 283.286 158.086 283.802 158.694 284.19C159.301 284.578 159.986 284.831 160.7 284.93C161.041 284.964 161.384 284.912 161.7 284.78C162.6 284.36 162.84 283.22 162.97 282.24L163.68 276.94C163.766 276.541 163.745 276.127 163.62 275.74C163.444 275.412 163.186 275.136 162.87 274.94C162.113 274.373 161.325 273.849 160.51 273.37C158.82 272.37 156.61 271.27 154.57 271.66C154.234 271.707 153.917 271.845 153.654 272.061C153.391 272.276 153.192 272.559 153.08 272.88C152.83 273.75 153.51 274.64 153.86 275.38C154.4 276.47 154.89 277.62 155.35 278.79Z" fill="url(#paint20_linear)"/>
<path d="M173.77 247.36C173.77 247.36 178.58 266.81 173.12 273.58C167.66 280.35 158.91 280.14 155.42 276.42C151.93 272.7 138.95 256.42 143.76 246.63C148.57 236.84 167.36 225.07 173.77 247.36Z" fill="url(#paint21_linear)"/>
<path d="M153.73 241.88C153.36 244.14 153.67 246.52 152.87 248.66C151.47 252.38 147.11 254.32 145.67 258.02C145.32 258.92 145.16 259.89 144.74 260.76C144.567 261.211 144.282 261.611 143.911 261.921C143.539 262.231 143.095 262.44 142.62 262.53C142.141 262.538 141.669 262.411 141.259 262.163C140.848 261.916 140.516 261.557 140.3 261.13C139.875 260.27 139.64 259.328 139.61 258.37C138.99 251.97 139.73 245.16 143.3 239.82C144.668 237.733 146.493 235.984 148.635 234.706C150.778 233.427 153.184 232.652 155.67 232.44C158.67 232.28 159.67 232.91 157.57 235.13C155.69 237.11 154.19 239.05 153.73 241.88Z" fill="#3E3E54"/>
<path d="M145.08 264.79C144.844 264.8 144.615 264.877 144.42 265.01C144.299 265.12 144.2 265.252 144.13 265.4C143.731 266.009 143.548 266.734 143.61 267.46C143.77 268.005 144.081 268.494 144.508 268.869C144.934 269.245 145.459 269.491 146.02 269.58C147.233 269.897 148.51 269.873 149.71 269.51C149.827 269.484 149.935 269.425 150.02 269.34C150.079 269.236 150.11 269.119 150.11 269C150.11 268.881 150.079 268.764 150.02 268.66C149.56 267.588 148.928 266.599 148.15 265.73C147.765 265.318 147.279 265.015 146.741 264.85C146.202 264.685 145.629 264.664 145.08 264.79Z" fill="url(#paint22_linear)"/>
<path d="M234.93 319.55C234.39 320.21 233.93 321.22 234.51 321.81C234.713 321.96 234.945 322.066 235.191 322.121C235.437 322.176 235.693 322.179 235.94 322.13L253.88 321.07C254.177 321.068 254.472 321.014 254.75 320.91C255.64 320.51 255.75 319.29 255.64 318.31C255.54 316.76 255.44 315.22 255.33 313.68C255.22 312.14 255.57 311.49 253.95 311.27C251.71 310.96 248.89 311.69 246.75 312.27C242.157 313.429 238.031 315.97 234.93 319.55Z" fill="url(#paint23_linear)"/>
<path opacity="0.43" d="M200.76 99.5999C194.76 90.3999 193.98 77.0799 201.38 68.9299C204.891 65.2469 209.469 62.7598 214.47 61.8199C223.17 59.9999 233.13 62.5499 238.47 69.6399C241.625 74.0269 243.114 79.3944 242.67 84.7799C242.219 90.1343 240.506 95.3057 237.67 99.8699C236.08 102.56 234.17 105.15 233.47 108.2C233.02 110.2 233.1 112.2 232.72 114.2C232.123 116.967 230.669 119.475 228.565 121.369C226.461 123.263 223.814 124.446 221 124.75C216 125.18 209 121.89 208 116.51C207.46 113.6 208 111.36 206.6 108.44C205.08 105.24 202.69 102.54 200.76 99.5999Z" fill="#3E9DF4"/>
<path d="M211.25 118.12C212.38 112.6 211.25 106.92 210.56 101.33C210.212 99.4829 210.294 97.5804 210.8 95.7701C211.44 94.0101 213.12 92.4901 214.98 92.6301C217.1 92.8001 218.51 94.9001 219.2 96.9101C220.042 99.3843 220.298 102.02 219.95 104.61C219.76 105.98 219.25 107.53 217.95 108.05C216.755 106.286 216.262 104.139 216.567 102.031C216.872 99.9218 217.954 98.003 219.6 96.6501C220.283 96.0567 221.165 95.7425 222.07 95.7701C223.53 95.9301 224.47 97.4301 224.82 98.8601C225.23 100.509 225.178 102.239 224.67 103.86C224.557 104.337 224.298 104.767 223.93 105.09C223.736 105.234 223.497 105.304 223.256 105.285C223.015 105.267 222.789 105.162 222.62 104.99C222.489 104.755 222.427 104.488 222.44 104.22C222.28 101.1 222.44 97.6301 224.61 95.3701C224.932 94.9717 225.386 94.7021 225.89 94.6101C226.305 94.5739 226.721 94.6683 227.08 94.8801C229.13 96.0801 229.8 98.8001 229.43 101.14C229.06 103.48 227.88 105.6 227.01 107.8C225.607 111.356 224.983 115.172 225.18 118.99" stroke="white" stroke-width="0.78" stroke-miterlimit="10"/>
<path d="M205.71 121.46C205.48 121.83 205.16 122.13 204.94 122.46C204.21 123.67 204.63 125.22 205.08 126.57C205.96 129.22 206.95 132.04 209.18 133.73C210.756 134.791 212.57 135.447 214.46 135.64C218.144 136.209 221.899 136.141 225.56 135.44C227.231 135.187 228.839 134.62 230.3 133.77C231.027 133.341 231.66 132.771 232.162 132.092C232.663 131.413 233.023 130.641 233.22 129.82C233.273 129.313 233.366 128.812 233.5 128.32C233.65 127.89 233.92 127.51 234.11 127.1C234.314 126.626 234.419 126.116 234.419 125.6C234.419 125.084 234.314 124.574 234.11 124.1C233.782 123.536 233.514 122.94 233.31 122.32C233.244 121.711 233.288 121.094 233.44 120.5C233.781 118.198 233.296 115.849 232.07 113.87C229.081 116.378 225.471 118.033 221.62 118.66C217.972 119.217 214.243 118.481 211.08 116.58C209.75 115.73 208.39 114.21 207.18 116.05C206.08 117.67 206.69 119.88 205.71 121.46Z" fill="#3E3E54"/>
</g>
<defs>
<linearGradient id="paint0_linear" x1="149.55" y1="292.22" x2="159.28" y2="256.93" gradientUnits="userSpaceOnUse">
<stop stop-opacity="0"/>
<stop offset="0.99"/>
</linearGradient>
<linearGradient id="paint1_linear" x1="85.088" y1="2959.29" x2="180234" y2="2959.29" gradientUnits="userSpaceOnUse">
<stop stop-opacity="0"/>
<stop offset="0.99"/>
</linearGradient>
<linearGradient id="paint2_linear" x1="142.77" y1="295.88" x2="163.75" y2="361.15" gradientUnits="userSpaceOnUse">
<stop stop-opacity="0"/>
<stop offset="0.8"/>
</linearGradient>
<linearGradient id="paint3_linear" x1="5860" y1="13685.2" x2="6375.21" y2="17109.7" gradientUnits="userSpaceOnUse">
<stop stop-opacity="0"/>
<stop offset="0.8"/>
</linearGradient>
<linearGradient id="paint4_linear" x1="45.38" y1="272.31" x2="64.16" y2="272.31" gradientUnits="userSpaceOnUse">
<stop stop-color="#E5C5D5"/>
<stop offset="0.42" stop-color="#EAD4D1"/>
<stop offset="1" stop-color="#F0E9CB"/>
</linearGradient>
<linearGradient id="paint5_linear" x1="1282.27" y1="3947.54" x2="1314.21" y2="3459.92" gradientUnits="userSpaceOnUse">
<stop stop-opacity="0"/>
<stop offset="0.99"/>
</linearGradient>
<linearGradient id="paint6_linear" x1="38075.4" y1="17629.3" x2="37283.8" y2="21956.4" gradientUnits="userSpaceOnUse">
<stop stop-opacity="0"/>
<stop offset="0.99"/>
</linearGradient>
<linearGradient id="paint7_linear" x1="362.58" y1="258.58" x2="378.21" y2="258.58" gradientUnits="userSpaceOnUse">
<stop stop-color="#867580"/>
<stop offset="0.57" stop-color="#9B8F8E"/>
</linearGradient>
<linearGradient id="paint8_linear" x1="6051.36" y1="7897.72" x2="6684.76" y2="7897.72" gradientUnits="userSpaceOnUse">
<stop stop-color="#E5C5D5"/>
<stop offset="0.42" stop-color="#EAD4D1"/>
<stop offset="1" stop-color="#F0E9CB"/>
</linearGradient>
<linearGradient id="paint9_linear" x1="15199.1" y1="10138.7" x2="15701.3" y2="13131.9" gradientUnits="userSpaceOnUse">
<stop stop-opacity="0"/>
<stop offset="0.99"/>
</linearGradient>
<linearGradient id="paint10_linear" x1="9578.3" y1="3903.18" x2="10313.2" y2="3903.18" gradientUnits="userSpaceOnUse">
<stop stop-color="#867580"/>
<stop offset="0.57" stop-color="#9B8F8E"/>
</linearGradient>
<linearGradient id="paint11_linear" x1="2287.19" y1="14602.8" x2="4181.16" y2="14602.8" gradientUnits="userSpaceOnUse">
<stop stop-color="#E5C5D5"/>
<stop offset="0.42" stop-color="#EAD4D1"/>
<stop offset="1" stop-color="#F0E9CB"/>
</linearGradient>
<linearGradient id="paint12_linear" x1="1727.93" y1="6962.06" x2="2114.56" y2="6962.06" gradientUnits="userSpaceOnUse">
<stop stop-color="#E5C5D5"/>
<stop offset="0.42" stop-color="#EAD4D1"/>
<stop offset="1" stop-color="#F0E9CB"/>
</linearGradient>
<linearGradient id="paint13_linear" x1="11462.8" y1="16018.5" x2="13064.8" y2="16018.5" gradientUnits="userSpaceOnUse">
<stop stop-color="#E5C5D5"/>
<stop offset="0.42" stop-color="#EAD4D1"/>
<stop offset="1" stop-color="#F0E9CB"/>
</linearGradient>
<linearGradient id="paint14_linear" x1="13741.9" y1="10288.9" x2="15053" y2="10288.9" gradientUnits="userSpaceOnUse">
<stop stop-color="#867580"/>
<stop offset="0.57" stop-color="#9B8F8E"/>
</linearGradient>
<linearGradient id="paint15_linear" x1="3313.73" y1="2327.76" x2="3368.18" y2="2327.76" gradientUnits="userSpaceOnUse">
<stop stop-color="#867580"/>
<stop offset="0.57" stop-color="#9B8F8E"/>
</linearGradient>
<linearGradient id="paint16_linear" x1="3416.11" y1="2823.49" x2="3483.9" y2="2823.49" gradientUnits="userSpaceOnUse">
<stop stop-color="#867580"/>
<stop offset="0.57" stop-color="#9B8F8E"/>
</linearGradient>
<linearGradient id="paint17_linear" x1="2831.92" y1="8810.05" x2="3025.86" y2="8810.05" gradientUnits="userSpaceOnUse">
<stop stop-color="#E5C5D5"/>
<stop offset="0.42" stop-color="#EAD4D1"/>
<stop offset="1" stop-color="#F0E9CB"/>
</linearGradient>
<linearGradient id="paint18_linear" x1="4963.47" y1="3347.29" x2="5700" y2="3347.29" gradientUnits="userSpaceOnUse">
<stop stop-color="#E5C5D5"/>
<stop offset="0.42" stop-color="#EAD4D1"/>
<stop offset="1" stop-color="#F0E9CB"/>
</linearGradient>
<linearGradient id="paint19_linear" x1="2560.15" y1="5797.24" x2="2762.9" y2="5797.24" gradientUnits="userSpaceOnUse">
<stop stop-color="#E5C5D5"/>
<stop offset="0.42" stop-color="#EAD4D1"/>
<stop offset="1" stop-color="#F0E9CB"/>
</linearGradient>
<linearGradient id="paint20_linear" x1="1992.3" y1="4187.65" x2="2222.24" y2="3903.02" gradientUnits="userSpaceOnUse">
<stop stop-opacity="0"/>
<stop offset="0.99"/>
</linearGradient>
<linearGradient id="paint21_linear" x1="5480.31" y1="11944.1" x2="6570.75" y2="11944.1" gradientUnits="userSpaceOnUse">
<stop stop-color="#E5C5D5"/>
<stop offset="0.42" stop-color="#EAD4D1"/>
<stop offset="1" stop-color="#F0E9CB"/>
</linearGradient>
<linearGradient id="paint22_linear" x1="1201.79" y1="1662.06" x2="1244.24" y2="1662.06" gradientUnits="userSpaceOnUse">
<stop stop-color="#E5C5D5"/>
<stop offset="0.42" stop-color="#EAD4D1"/>
<stop offset="1" stop-color="#F0E9CB"/>
</linearGradient>
<linearGradient id="paint23_linear" x1="5660.27" y1="3862.75" x2="6119.61" y2="3862.75" gradientUnits="userSpaceOnUse">
<stop stop-color="#E5C5D5"/>
<stop offset="0.42" stop-color="#EAD4D1"/>
<stop offset="1" stop-color="#F0E9CB"/>
</linearGradient>
<clipPath id="clip0">
<rect width="424.64" height="361.51" fill="white"/>
</clipPath>
</defs>
</svg>
