<svg width="461" height="377" viewBox="0 0 461 377" fill="none" xmlns="http://www.w3.org/2000/svg">
<g clip-path="url(#clip0)">
<path opacity="0.18" d="M100.104 80.5418C72.8651 95.1033 44.7995 110.353 25.8136 134.74C14.4119 149.402 6.81504 166.856 2.81468 185.017C-4.03766 216.015 1.03535 251.951 24.6084 273.269C32.811 280.721 42.8435 285.981 53.1914 290.022C74.6413 298.384 97.6972 301.805 120.649 300.031C139.496 298.559 158.311 293.59 177.064 295.958C199.936 298.837 219.907 312.224 241.214 321.039C267.691 331.951 296.521 335.886 324.951 332.469C332.118 331.597 339.375 330.202 345.678 326.678C353.161 322.492 358.708 315.653 364.607 309.402C377.908 295.252 393.599 283.561 410.958 274.867C420.063 270.308 429.711 266.525 437.617 260.11C458.439 243.25 462.004 213.079 460.792 186.324C459.581 159.569 453.555 130.036 432.159 113.788C427.382 110.164 422.007 107.354 417.375 103.533C401.929 90.7904 397.31 69.4597 387.417 52.0251C365.232 13.0388 315.732 -4.02949 271.167 0.794857C207.306 7.70933 155.005 51.1979 100.104 80.5418Z" fill="#3E9DF4"/>
<path d="M434.689 186.596C434.108 191.964 427.489 200.975 418.334 211.103C403.329 227.673 381.529 247.216 368.418 258.602C361.654 264.481 357.205 268.187 357.205 268.187V166.181C357.205 166.181 373.081 145.836 384.615 144.529C396.149 143.221 419.425 156.722 419.425 156.722C419.425 156.722 436.632 167.93 434.689 186.596Z" fill="#3E9DF4"/>
<path d="M418.334 211.103C403.329 227.673 381.529 247.216 368.418 258.601C367.44 257.042 367.244 254.92 367.156 253C366.809 243.408 366.891 233.804 366.979 224.206C367.061 214.885 367.143 205.571 367.73 196.27C368.285 187.606 369.345 178.747 373.308 171.012C374.202 171.812 374.94 172.771 375.485 173.841C380.476 182.422 383.63 191.888 386.785 201.284C388.346 205.915 389.906 210.564 391.467 215.233C394.964 213.308 398.09 210.774 400.698 207.75C403.096 205.092 405.235 202.218 407.437 199.402C408.976 197.432 411.98 191.825 414.378 193.934C418.264 197.325 418.58 205.085 418.334 211.103Z" fill="url(#paint0_linear)"/>
<path d="M368.859 31.876H110.42V331.421H368.859V31.876Z" fill="#3E9DF4"/>
<path d="M368.859 31.876H110.42V331.421H368.859V31.876Z" fill="url(#paint1_linear)"/>
<path d="M333.342 46.3553L110.42 66.3536C111.423 66.3536 110.42 38.5694 110.42 31.876H345.457V34.225C345.457 37.4411 344.18 40.5255 341.909 42.8002C339.637 45.0749 336.556 46.3537 333.342 46.3553Z" fill="url(#paint2_linear)"/>
<path d="M368.859 66.3535H110.42V365.899H368.859V66.3535Z" fill="#3E9DF4"/>
<path d="M147.161 66.3535H110.42V365.899H147.161V66.3535Z" fill="url(#paint3_linear)"/>
<path d="M169.485 122.339H124.844V167.015H169.485V122.339Z" fill="white"/>
<path d="M216.606 122.339H171.965V167.015H216.606V122.339Z" fill="white"/>
<path d="M263.733 122.339H219.092V167.015H263.733V122.339Z" fill="white"/>
<path d="M310.854 122.339H266.213V167.015H310.854V122.339Z" fill="white"/>
<path d="M169.485 168.979H124.844V213.654H169.485V168.979Z" fill="white"/>
<path d="M216.606 168.979H171.965V213.654H216.606V168.979Z" fill="white"/>
<path d="M263.733 168.979H219.092V213.654H263.733V168.979Z" fill="white"/>
<path d="M310.854 168.979H266.213V213.654H310.854V168.979Z" fill="white"/>
<path d="M169.485 215.618H124.844V260.294H169.485V215.618Z" fill="white"/>
<path d="M216.606 215.618H171.965V260.294H216.606V215.618Z" fill="white"/>
<path d="M263.733 215.618H219.092V260.294H263.733V215.618Z" fill="white"/>
<path d="M310.854 215.618H266.213V260.294H310.854V215.618Z" fill="white"/>
<path d="M169.485 262.258H124.844V306.934H169.485V262.258Z" fill="white"/>
<path d="M216.606 262.258H171.965V306.934H216.606V262.258Z" fill="white"/>
<path d="M263.733 262.258H219.092V306.934H263.733V262.258Z" fill="white"/>
<path d="M310.854 262.258H266.213V306.934H310.854V262.258Z" fill="white"/>
<path d="M169.485 308.897H124.844V353.573H169.485V308.897Z" fill="white"/>
<path d="M216.606 308.897H171.965V353.573H216.606V308.897Z" fill="white"/>
<path d="M263.733 308.897H219.092V353.573H263.733V308.897Z" fill="white"/>
<path d="M357.186 122.339H312.545V167.015H357.186V122.339Z" fill="white"/>
<path d="M357.186 75.6992H312.545V120.375H357.186V75.6992Z" fill="white"/>
<path d="M310.854 75.6992H266.213V120.375H310.854V75.6992Z" fill="white"/>
<path d="M357.186 168.979H312.545V213.654H357.186V168.979Z" fill="white"/>
<path d="M357.186 215.618H312.545V260.294H357.186V215.618Z" fill="white"/>
<path d="M357.186 262.258H312.545V306.934H357.186V262.258Z" fill="white"/>
<path d="M130.441 19.7649V43.9877C130.441 45.2948 132.1 46.3557 134.138 46.3557C136.182 46.3557 137.836 45.2948 137.836 43.9877V19.7649C137.836 18.4578 136.182 17.397 134.138 17.397C132.1 17.397 130.441 18.4578 130.441 19.7649Z" fill="#3E9DF4"/>
<path d="M165.788 19.7649V43.9877C165.788 45.2948 167.441 46.3557 169.485 46.3557C171.529 46.3557 173.183 45.2948 173.183 43.9877V19.7649C173.183 18.4578 171.529 17.397 169.485 17.397C167.441 17.397 165.788 18.4578 165.788 19.7649Z" fill="#3E9DF4"/>
<path d="M201.135 19.7649V43.9877C201.135 45.2948 202.788 46.3557 204.832 46.3557C206.876 46.3557 208.53 45.2948 208.53 43.9877V19.7649C208.53 18.4578 206.876 17.397 204.832 17.397C202.788 17.397 201.135 18.4578 201.135 19.7649Z" fill="#3E9DF4"/>
<path d="M236.482 19.7649V43.9877C236.482 45.2948 238.135 46.3557 240.179 46.3557C242.217 46.3557 243.877 45.2948 243.877 43.9877V19.7649C243.877 18.4578 242.217 17.397 240.179 17.397C238.135 17.397 236.482 18.4578 236.482 19.7649Z" fill="#3E9DF4"/>
<path d="M271.822 19.7649V43.9877C271.822 45.2948 273.482 46.3557 275.526 46.3557C277.564 46.3557 279.224 45.2948 279.224 43.9877V19.7649C279.224 18.4578 277.564 17.397 275.526 17.397C273.482 17.397 271.822 18.4578 271.822 19.7649Z" fill="#3E9DF4"/>
<path d="M307.169 19.7649V43.9877C307.169 45.2948 308.829 46.3557 310.867 46.3557C312.911 46.3557 314.571 45.2948 314.571 43.9877V19.7649C314.571 18.4578 312.911 17.397 310.867 17.397C308.829 17.397 307.169 18.4578 307.169 19.7649Z" fill="#3E9DF4"/>
<path d="M341.759 19.7649V43.9877C341.759 45.2948 343.419 46.3557 345.457 46.3557C347.501 46.3557 349.154 45.2948 349.154 43.9877V19.7649C349.154 18.4578 347.501 17.397 345.457 17.397C343.419 17.397 341.759 18.4578 341.759 19.7649Z" fill="#3E9DF4"/>
<path d="M374.746 31.876H368.866V365.899H374.746V31.876Z" fill="#3E9DF4"/>
<path d="M374.746 31.876H368.866V365.899H374.746V31.876Z" fill="url(#paint4_linear)"/>
<path d="M276.523 82.2475C276.524 82.9507 276.317 83.6384 275.928 84.2237C275.539 84.809 274.985 85.2657 274.336 85.5359C273.687 85.8062 272.973 85.8778 272.284 85.7419C271.595 85.6059 270.961 85.2685 270.463 84.7721C269.966 84.2758 269.626 83.643 269.488 82.9536C269.35 82.2642 269.419 81.5493 269.686 80.8992C269.954 80.2491 270.408 79.6931 270.992 79.3014C271.575 78.9097 272.262 78.7 272.964 78.6987C273.906 78.6987 274.809 79.0722 275.476 79.7374C276.143 80.4026 276.52 81.3052 276.523 82.2475Z" fill="url(#paint5_linear)"/>
<path d="M276.523 128.894C276.524 129.597 276.317 130.284 275.928 130.87C275.539 131.455 274.985 131.912 274.336 132.182C273.687 132.452 272.973 132.524 272.284 132.388C271.595 132.252 270.961 131.914 270.463 131.418C269.966 130.922 269.626 130.289 269.488 129.6C269.35 128.91 269.419 128.195 269.686 127.545C269.954 126.895 270.408 126.339 270.992 125.947C271.575 125.556 272.262 125.346 272.964 125.345C273.906 125.345 274.809 125.718 275.476 126.383C276.143 127.049 276.52 127.951 276.523 128.894Z" fill="url(#paint6_linear)"/>
<path d="M285.199 128.894C285.2 129.597 284.993 130.284 284.604 130.87C284.214 131.455 283.66 131.912 283.012 132.182C282.363 132.452 281.649 132.524 280.96 132.388C280.27 132.252 279.637 131.914 279.139 131.418C278.641 130.922 278.302 130.289 278.164 129.6C278.025 128.91 278.094 128.195 278.362 127.545C278.63 126.895 279.084 126.339 279.668 125.947C280.251 125.556 280.938 125.346 281.64 125.345C282.582 125.345 283.485 125.718 284.152 126.383C284.819 127.049 285.196 127.951 285.199 128.894Z" fill="url(#paint7_linear)"/>
<path d="M293.925 128.894C293.926 129.597 293.719 130.284 293.33 130.87C292.941 131.455 292.387 131.912 291.738 132.182C291.089 132.452 290.375 132.524 289.686 132.388C288.997 132.252 288.363 131.914 287.865 131.418C287.368 130.922 287.028 130.289 286.89 129.6C286.752 128.91 286.821 128.195 287.088 127.545C287.356 126.895 287.811 126.339 288.394 125.947C288.977 125.556 289.664 125.346 290.367 125.345C291.308 125.345 292.211 125.718 292.878 126.383C293.545 127.049 293.922 127.951 293.925 128.894Z" fill="url(#paint8_linear)"/>
<path d="M276.523 222.842C276.523 223.545 276.315 224.233 275.924 224.817C275.534 225.402 274.979 225.858 274.33 226.127C273.681 226.396 272.967 226.466 272.278 226.329C271.589 226.192 270.956 225.853 270.459 225.356C269.962 224.859 269.624 224.225 269.487 223.536C269.349 222.846 269.42 222.131 269.689 221.482C269.958 220.832 270.413 220.277 270.997 219.886C271.581 219.496 272.268 219.287 272.971 219.287C273.911 219.287 274.813 219.661 275.478 220.327C276.143 220.992 276.517 221.895 276.517 222.836L276.523 222.842Z" fill="url(#paint9_linear)"/>
<path d="M132.34 226.391C134.298 226.391 135.886 224.802 135.886 222.842C135.886 220.882 134.298 219.293 132.34 219.293C130.381 219.293 128.794 220.882 128.794 222.842C128.794 224.802 130.381 226.391 132.34 226.391Z" fill="#FF2235"/>
<path d="M285.199 222.842C285.199 223.545 284.991 224.233 284.6 224.817C284.21 225.402 283.655 225.858 283.006 226.127C282.357 226.396 281.643 226.466 280.953 226.329C280.264 226.192 279.631 225.853 279.135 225.356C278.638 224.859 278.299 224.225 278.162 223.536C278.025 222.846 278.096 222.131 278.365 221.482C278.633 220.832 279.089 220.277 279.673 219.886C280.257 219.496 280.944 219.287 281.647 219.287C282.587 219.287 283.489 219.661 284.154 220.327C284.819 220.992 285.193 221.895 285.193 222.836L285.199 222.842Z" fill="url(#paint10_linear)"/>
<path d="M293.925 222.842C293.925 223.545 293.717 224.233 293.327 224.817C292.936 225.402 292.381 225.858 291.732 226.127C291.083 226.396 290.369 226.466 289.68 226.329C288.991 226.192 288.358 225.853 287.861 225.356C287.364 224.859 287.026 224.225 286.889 223.536C286.752 222.846 286.822 222.131 287.091 221.482C287.36 220.832 287.815 220.277 288.399 219.886C288.983 219.496 289.67 219.287 290.373 219.287C291.313 219.287 292.215 219.661 292.88 220.327C293.545 220.992 293.919 221.895 293.919 222.836L293.925 222.842Z" fill="url(#paint11_linear)"/>
<path d="M434.266 127.365C433.275 131.419 434.6 137.039 432.72 140.758C429.565 147.009 420.34 151.158 418.977 158.022C418.895 158.42 408.629 163.371 403.336 161.678C400.566 160.801 399.159 158.098 401.291 151.985C401.96 150.091 405.708 149.384 406.718 147.622L406.509 147.464C401.386 143.593 400.831 135.391 401.891 129.916C402.951 124.441 405.38 119.181 407.986 114.18C409.992 110.328 414.523 108.238 418.864 108.307C424.322 108.402 430.082 110.587 432.922 115.253C435.092 118.809 435.25 123.311 434.266 127.365Z" fill="url(#paint12_linear)"/>
<path d="M409.052 97.8759C406.257 99.3535 403.285 101.096 400.155 100.623C400.075 101.375 400.197 102.135 400.51 102.824C400.823 103.513 401.315 104.104 401.935 104.538L399.991 104.974C399.912 104.979 399.834 105.003 399.764 105.042C399.694 105.081 399.634 105.135 399.588 105.201C399.563 105.271 399.555 105.346 399.562 105.42C399.57 105.495 399.594 105.566 399.632 105.63C400.11 106.746 400.896 107.703 401.897 108.39C401.55 109.135 400.294 108.971 399.865 109.653C399.775 109.851 399.728 110.066 399.728 110.284C399.728 110.502 399.775 110.717 399.865 110.916C400.299 112.093 401.04 113.133 402.011 113.928C400.85 115.191 401.575 117.527 403.178 118.102C404.002 118.332 404.883 118.238 405.64 117.841C406.398 117.443 406.975 116.77 407.254 115.961C407.326 116.691 407.157 117.425 406.774 118.051C412.068 118.885 417.728 119.668 422.599 117.42C422.371 117.924 422.246 118.47 422.233 119.023C423.409 119.392 424.656 119.47 425.868 119.251C426.12 121.852 425.887 124.477 425.18 126.992C424.744 128.559 424.12 130.074 423.842 131.672C423.479 133.29 423.767 134.987 424.643 136.395C425.483 136.319 426.076 135.53 426.398 134.753C426.63 133.944 426.98 133.173 427.439 132.467C428.701 130.99 431.325 131.533 432.341 133.168C433.357 134.804 432.972 137.001 432.001 138.649C431.4 139.621 430.606 140.459 429.668 141.111C428.73 141.762 427.669 142.214 426.549 142.438C426.732 144.2 426.921 145.962 427.104 147.717C430.429 144.56 434.152 141.851 437.143 138.397C440.134 134.943 442.399 130.522 442.014 125.963C441.781 123.153 440.557 120.482 440.462 117.66C440.418 116.397 440.607 115.102 440.557 113.827C440.439 111.794 439.728 109.841 438.511 108.21C437.294 106.578 435.625 105.341 433.711 104.651C432.102 104.102 430.329 103.944 428.903 103.016C427.129 101.867 426.208 99.7261 424.448 98.5516C422.555 97.2887 419.615 96.7709 417.413 96.1457C414.548 95.3501 411.57 96.5562 409.052 97.8759Z" fill="#3F3D56"/>
<path d="M369.358 157.625C369.133 157.763 368.939 157.947 368.789 158.164C368.639 158.382 368.536 158.628 368.487 158.888C368.512 159.16 368.625 159.417 368.808 159.619C368.991 159.822 369.235 159.96 369.503 160.012C370.042 160.107 370.596 160.081 371.124 159.936L374.33 159.305C372.599 160.273 371.163 161.691 370.172 163.409C370.055 163.607 369.998 163.835 370.008 164.065C370.018 164.295 370.095 164.517 370.229 164.704C370.658 165.247 371.383 165.032 371.964 164.805L374.746 163.693L372.853 165.531C372.265 166.061 371.751 166.668 371.326 167.337C371.143 167.649 371.006 167.988 370.923 168.341C370.871 168.563 370.908 168.797 371.025 168.993C371.143 169.189 371.333 169.331 371.554 169.389C371.697 169.433 371.851 169.433 371.995 169.389C373.152 169.061 374.227 168.493 375.15 167.722C374.467 168.683 373.705 169.585 372.872 170.418C372.039 171.258 371.567 172.392 371.56 173.576C371.563 173.703 371.605 173.826 371.68 173.929C371.773 174.023 371.895 174.081 372.027 174.093C373.055 174.264 373.989 173.512 374.765 172.831L377.623 170.235C378.084 169.858 378.49 169.418 378.829 168.928C379.018 168.645 379.125 168.315 379.138 167.975C379.109 167.641 378.949 167.333 378.694 167.118C378.438 166.903 378.108 166.797 377.775 166.825C377.573 166.845 377.378 166.912 377.207 167.021C377.289 166.472 377.504 165.96 377.636 165.423C377.799 164.894 377.763 164.324 377.535 163.82C377.412 163.573 377.201 163.382 376.944 163.285C376.686 163.188 376.402 163.192 376.147 163.295C376.482 162.638 376.696 161.926 376.778 161.193C376.811 160.822 376.742 160.45 376.579 160.116C376.415 159.782 376.163 159.499 375.85 159.298C375.679 159.228 375.521 159.127 375.384 159.002C375.131 158.692 375.333 158.25 375.44 157.865C375.523 157.638 375.56 157.397 375.549 157.156C375.539 156.915 375.481 156.678 375.379 156.46C375.277 156.241 375.133 156.044 374.955 155.881C374.777 155.718 374.569 155.592 374.342 155.51C374.088 155.419 373.817 155.385 373.547 155.409C371.92 155.579 370.563 156.602 369.358 157.625Z" fill="url(#paint13_linear)"/>
<path d="M421.129 181.349C428.385 174.933 437.37 179.795 434.215 188.958C427.394 208.779 413.116 254.194 399.556 254.194C381.889 254.194 374.746 222.842 374.746 222.842L382.905 206.316C382.905 206.316 394.445 231.657 400.256 224.799C406.068 217.942 409.5 191.963 420.795 181.645L421.129 181.349Z" fill="#3E9DF4"/>
<path d="M380.229 205.224C380.122 203.754 380.097 202.278 380.154 200.804C380.116 194.372 378.218 188.089 374.689 182.713C374.318 183.246 374.158 183.899 374.241 184.544L374.336 201.316C374.392 202.707 374.299 204.1 374.059 205.471C373.844 206.468 373.478 207.422 373.194 208.407C372.594 210.454 372.38 212.596 372.563 214.722C372.618 215.863 372.926 216.979 373.465 217.986C373.743 218.486 374.134 218.914 374.608 219.234C375.082 219.555 375.624 219.759 376.191 219.83C376.563 219.83 378.084 216.673 378.305 216.243C378.982 214.98 379.613 213.707 380.198 212.423C380.633 211.451 381.561 210.017 381.397 208.925C381.214 207.7 380.381 206.569 380.229 205.224Z" fill="url(#paint14_linear)"/>
<path d="M413.948 151.904C412.422 153.622 410.907 155.346 409.38 157.069C408.214 158.538 406.826 159.817 405.266 160.858C404.661 161.217 404.012 161.497 403.336 161.692C400.566 160.814 399.159 158.111 401.291 151.999C401.96 150.104 405.708 149.397 406.718 147.635L406.509 147.478C407.235 147.82 408 148.07 408.787 148.223C410.428 148.469 414.466 147.193 414.964 149.624C415.141 150.464 414.548 151.254 413.948 151.904Z" fill="url(#paint15_linear)"/>
<path d="M230.481 284.157L236.841 294.045C237.126 294.486 237.573 294.795 238.085 294.907C238.597 295.018 239.132 294.922 239.573 294.639C239.73 294.534 239.872 294.408 239.996 294.266L257.512 274.06C257.76 273.775 257.921 273.424 257.976 273.05C258.03 272.676 257.976 272.294 257.82 271.95C257.664 271.606 257.412 271.314 257.094 271.109C256.777 270.904 256.407 270.795 256.029 270.795H255.884C255.595 270.794 255.31 270.858 255.048 270.98C254.786 271.102 254.555 271.28 254.37 271.502L240.665 287.92C240.332 288.32 239.854 288.571 239.336 288.62C238.819 288.668 238.303 288.51 237.901 288.179C237.75 288.052 237.618 287.903 237.51 287.737L233.781 282.054C233.573 281.739 233.28 281.49 232.936 281.337C232.591 281.184 232.21 281.132 231.838 281.189C231.523 281.242 231.227 281.371 230.973 281.565C230.72 281.759 230.518 282.012 230.384 282.302C230.251 282.592 230.19 282.91 230.207 283.229C230.223 283.547 230.318 283.857 230.481 284.131V284.157Z" fill="#3E9DF4"/>
<path d="M153.9 334.162L161.907 342.049C162.189 342.327 162.381 342.682 162.461 343.07C162.54 343.458 162.502 343.861 162.352 344.227C162.202 344.593 161.946 344.907 161.617 345.127C161.289 345.348 160.902 345.465 160.506 345.465H160.166C159.637 345.465 159.129 345.256 158.752 344.884L150.96 337.079C150.585 336.706 150.078 336.497 149.55 336.497C149.021 336.497 148.514 336.706 148.139 337.079L140.347 344.884C140.162 345.069 139.943 345.215 139.701 345.315C139.46 345.414 139.201 345.465 138.94 345.465H138.593C138.197 345.465 137.81 345.348 137.482 345.127C137.153 344.907 136.898 344.593 136.747 344.227C136.597 343.861 136.559 343.458 136.638 343.07C136.718 342.682 136.91 342.327 137.192 342.049L145.205 334.162C145.577 333.79 145.785 333.286 145.785 332.76C145.785 332.234 145.577 331.73 145.205 331.358L137.116 323.263C136.839 322.984 136.65 322.629 136.573 322.243C136.497 321.856 136.536 321.456 136.687 321.092C136.837 320.728 137.092 320.417 137.419 320.197C137.745 319.978 138.13 319.86 138.523 319.859C139.045 319.858 139.546 320.062 139.918 320.428L148.12 328.523C148.493 328.89 148.995 329.095 149.518 329.095C150.041 329.095 150.543 328.89 150.916 328.523L159.118 320.428C159.49 320.062 159.991 319.858 160.513 319.859C160.907 319.859 161.292 319.976 161.62 320.195C161.948 320.414 162.203 320.725 162.355 321.089C162.506 321.453 162.546 321.854 162.47 322.241C162.393 322.628 162.204 322.984 161.926 323.263L153.837 331.358C153.471 331.735 153.269 332.242 153.276 332.768C153.283 333.294 153.498 333.795 153.875 334.162H153.9Z" fill="#3E9DF4"/>
<path d="M82.4932 309.364H84.4492L85.4272 353.604L84.4492 346.317H82.4932V309.364Z" fill="#3E9DF4"/>
<path d="M84.4492 325.492V325.543C84.4492 326.925 83.957 328.308 83.4333 329.963C79.9882 330.96 77.6915 331.762 74.3095 328.264C70.9275 324.766 67.4382 318.003 68.5424 314.587C71.9875 313.589 78.701 317.22 82.0894 320.718C83.8435 322.505 84.4366 324.002 84.4492 325.492Z" fill="#3E9DF4"/>
<path d="M94.5384 328.289C91.434 331.301 89.2509 330.897 86.4052 329.988V346.317H84.4492V309.364H86.4052V321.116C86.5882 320.914 86.7838 320.712 86.9983 320.484C90.4939 317.1 97.2516 313.601 100.665 314.713C101.668 318.179 98.034 324.898 94.5384 328.289Z" fill="#3E9DF4"/>
<path d="M94.5384 328.289C91.434 331.301 89.2509 330.897 86.4052 329.988V346.317H84.4492V309.364H86.4052V321.116C86.5882 320.914 86.7838 320.712 86.9983 320.484C90.4939 317.1 97.2516 313.601 100.665 314.713C101.668 318.179 98.034 324.898 94.5384 328.289Z" fill="url(#paint16_linear)"/>
<path d="M84.4491 300.441H75.7165C75.7165 306.649 79.6222 311.681 84.4428 311.681L86.4998 306.169L84.4491 300.441Z" fill="#3E9DF4"/>
<path d="M84.6006 302.595L84.4492 302.703V302.071L84.6006 302.595Z" fill="#3E9DF4"/>
<path d="M67.9177 287.781C66.8135 291.197 70.3028 297.967 73.6911 301.459C77.0794 304.95 79.3699 304.161 82.8087 303.157C83.9129 299.741 84.853 297.411 81.4647 293.913C78.0764 290.414 71.3628 286.783 67.9177 287.781Z" fill="#3E9DF4"/>
<path d="M93.9137 301.502C93.6235 301.786 93.3395 302.039 93.0619 302.266C92.3868 307.608 88.7839 311.681 84.4491 311.681V302.702L84.6006 302.595L84.4491 302.064V302.696C84.2507 302.837 84.0394 302.96 83.8182 303.062C80.7138 301.262 78.2025 295.535 78.4044 290.666C78.6064 285.798 81.0545 278.599 84.2851 277.033C87.3895 278.833 89.4149 286.189 89.2319 291.064V291.424C92.8095 288.968 97.4345 287.086 100.066 287.938C101.044 291.399 97.403 298.111 93.9137 301.502Z" fill="#3E9DF4"/>
<path d="M93.9137 301.502C93.6235 301.786 93.3395 302.039 93.0619 302.266C92.3868 307.608 88.7839 311.681 84.4491 311.681V302.702L84.6006 302.595L84.4491 302.064V302.696C84.2507 302.837 84.0394 302.96 83.8182 303.062C80.7138 301.262 78.2025 295.535 78.4044 290.666C78.6064 285.798 81.0545 278.599 84.2851 277.033C87.3895 278.833 89.4149 286.189 89.2319 291.064V291.424C92.8095 288.968 97.4345 287.086 100.066 287.938C101.044 291.399 97.403 298.111 93.9137 301.502Z" fill="url(#paint17_linear)"/>
<path d="M84.6006 302.595L84.4492 302.703V302.071L84.6006 302.595Z" fill="#3E9DF4"/>
<path d="M67.1921 340.678L70.2712 365.583H84.5122L90.3298 351.413L84.5122 339.983L67.1921 340.678Z" fill="#3E9DF4"/>
<path d="M101.839 340.678L98.7596 365.583H84.5123V339.983L101.839 340.678Z" fill="#3E9DF4"/>
<path d="M90.8598 340.154L90.7021 340.23L85.8688 342.63L84.5501 343.299H65.3118C64.7311 343.299 64.1742 343.068 63.7636 342.657C63.353 342.246 63.1223 341.689 63.1223 341.108V335.538C63.1198 335.281 63.1681 335.025 63.2644 334.785C63.3608 334.546 63.5032 334.328 63.6837 334.144C63.8641 333.96 64.0791 333.813 64.3162 333.712C64.5533 333.611 64.808 333.558 65.0657 333.556H65.2487L84.5501 333.594L90.8598 340.154Z" fill="#3E9DF4"/>
<path d="M90.8598 340.154L90.7021 340.23L85.8688 342.63L84.5501 343.299H65.3118C64.7311 343.299 64.1742 343.068 63.7636 342.657C63.353 342.246 63.1223 341.689 63.1223 341.108V335.538C63.1198 335.281 63.1681 335.025 63.2644 334.785C63.3608 334.546 63.5032 334.328 63.6837 334.144C63.8641 333.96 64.0791 333.813 64.3162 333.712C64.5533 333.611 64.808 333.558 65.0657 333.556H65.2487L84.5501 333.594L90.8598 340.154Z" fill="url(#paint18_linear)"/>
<path d="M103.719 343.299H84.5123V333.348H103.719C104.3 333.348 104.857 333.578 105.267 333.989C105.678 334.4 105.909 334.958 105.909 335.539V341.108C105.909 341.689 105.678 342.247 105.267 342.658C104.857 343.069 104.3 343.299 103.719 343.299Z" fill="#3E9DF4"/>
<path d="M84.5186 343.299V365.583H70.2713L67.5139 343.299H84.5186Z" fill="url(#paint19_linear)"/>
<path d="M101.517 343.299L98.7596 365.583H84.5186V343.299H101.517Z" fill="url(#paint20_linear)"/>
<path d="M105.908 335.791V341.36C105.908 341.941 105.678 342.499 105.267 342.91C104.857 343.321 104.3 343.551 103.719 343.551H84.5501V333.6H103.751C104.326 333.608 104.875 333.842 105.278 334.252C105.682 334.662 105.909 335.215 105.908 335.791Z" fill="url(#paint21_linear)"/>
<path opacity="0.18" d="M71.9307 365.615L35.7382 372.561C35.4333 372.564 35.1322 372.629 34.8538 372.753C34.5753 372.878 34.3254 373.058 34.1195 373.283C33.9137 373.508 33.7564 373.773 33.6575 374.062C33.5585 374.351 33.52 374.656 33.5443 374.961C33.5686 375.265 33.6553 375.561 33.7988 375.83C33.9424 376.099 34.1398 376.336 34.3787 376.525C34.6177 376.715 34.8931 376.853 35.1878 376.932C35.4824 377.01 35.7901 377.027 36.0915 376.981H36.1988H444.98C445.556 377.005 446.118 376.803 446.548 376.418C446.977 376.034 447.24 375.497 447.28 374.921C447.321 374.346 447.135 373.777 446.763 373.337C446.391 372.896 445.862 372.617 445.289 372.561L392.533 365.918H392.23L72.3913 365.602C72.2377 365.59 72.0834 365.595 71.9307 365.615Z" fill="#1D2741"/>
</g>
<defs>
<linearGradient id="paint0_linear" x1="402.231" y1="178.987" x2="294.218" y2="382.077" gradientUnits="userSpaceOnUse">
<stop stop-opacity="0"/>
<stop offset="0.91" stop-opacity="0.8"/>
<stop offset="1"/>
</linearGradient>
<linearGradient id="paint1_linear" x1="104985" y1="30163.1" x2="98386.6" y2="108335" gradientUnits="userSpaceOnUse">
<stop stop-opacity="0"/>
<stop offset="0.91" stop-opacity="0.8"/>
<stop offset="1"/>
</linearGradient>
<linearGradient id="paint2_linear" x1="225.623" y1="13.2353" x2="228.473" y2="57.3235" gradientUnits="userSpaceOnUse">
<stop offset="0.01"/>
<stop offset="0.1" stop-opacity="0.77"/>
<stop offset="0.99" stop-opacity="0"/>
</linearGradient>
<linearGradient id="paint3_linear" x1="11392.6" y1="153421" x2="-9589.87" y2="153429" gradientUnits="userSpaceOnUse">
<stop stop-opacity="0"/>
<stop offset="0.91" stop-opacity="0.8"/>
<stop offset="1"/>
</linearGradient>
<linearGradient id="paint4_linear" x1="4547.26" y1="98936.1" x2="1800.01" y2="98943.6" gradientUnits="userSpaceOnUse">
<stop stop-opacity="0"/>
<stop offset="0.91" stop-opacity="0.8"/>
<stop offset="1"/>
</linearGradient>
<linearGradient id="paint5_linear" x1="272.775" y1="79.267" x2="273.963" y2="97.2825" gradientUnits="userSpaceOnUse">
<stop stop-color="#183866"/>
<stop offset="1" stop-color="#1A7FC1"/>
</linearGradient>
<linearGradient id="paint6_linear" x1="3340.85" y1="2751.86" x2="3354.23" y2="2954.78" gradientUnits="userSpaceOnUse">
<stop stop-color="#183866"/>
<stop offset="1" stop-color="#1A7FC1"/>
</linearGradient>
<linearGradient id="paint7_linear" x1="3447.22" y1="2751.86" x2="3460.53" y2="2954.78" gradientUnits="userSpaceOnUse">
<stop stop-color="#183866"/>
<stop offset="1" stop-color="#1A7FC1"/>
</linearGradient>
<linearGradient id="paint8_linear" x1="3554.22" y1="2751.86" x2="3567.52" y2="2954.78" gradientUnits="userSpaceOnUse">
<stop stop-color="#183866"/>
<stop offset="1" stop-color="#1A7FC1"/>
</linearGradient>
<linearGradient id="paint9_linear" x1="3340.78" y1="3903.62" x2="3354.16" y2="4106.54" gradientUnits="userSpaceOnUse">
<stop stop-color="#183866"/>
<stop offset="1" stop-color="#1A7FC1"/>
</linearGradient>
<linearGradient id="paint10_linear" x1="3447.23" y1="3903.62" x2="3460.54" y2="4106.54" gradientUnits="userSpaceOnUse">
<stop stop-color="#183866"/>
<stop offset="1" stop-color="#1A7FC1"/>
</linearGradient>
<linearGradient id="paint11_linear" x1="3554.22" y1="3903.62" x2="3567.52" y2="4106.54" gradientUnits="userSpaceOnUse">
<stop stop-color="#183866"/>
<stop offset="1" stop-color="#1A7FC1"/>
</linearGradient>
<linearGradient id="paint12_linear" x1="443.674" y1="147.009" x2="385.089" y2="124.181" gradientUnits="userSpaceOnUse">
<stop stop-color="#ECC4D7"/>
<stop offset="0.16" stop-color="#EDCBD5"/>
<stop offset="0.42" stop-color="#EFD4D1"/>
<stop offset="0.7" stop-color="#F2EAC9"/>
</linearGradient>
<linearGradient id="paint13_linear" x1="368.487" y1="164.76" x2="379.169" y2="164.76" gradientUnits="userSpaceOnUse">
<stop stop-color="#ECC4D7"/>
<stop offset="0.42" stop-color="#EFD4D1"/>
<stop offset="1" stop-color="#F2EAC9"/>
</linearGradient>
<linearGradient id="paint14_linear" x1="5636.27" y1="18323.4" x2="5762.25" y2="18323.4" gradientUnits="userSpaceOnUse">
<stop stop-color="#ECC4D7"/>
<stop offset="0.42" stop-color="#EFD4D1"/>
<stop offset="1" stop-color="#F2EAC9"/>
</linearGradient>
<linearGradient id="paint15_linear" x1="9817.26" y1="6100.08" x2="9273.09" y2="6762.73" gradientUnits="userSpaceOnUse">
<stop stop-color="#ECC4D7"/>
<stop offset="0.42" stop-color="#EFD4D1"/>
<stop offset="1" stop-color="#F2EAC9"/>
</linearGradient>
<linearGradient id="paint16_linear" x1="88.5883" y1="347.921" x2="92.5063" y2="314.139" gradientUnits="userSpaceOnUse">
<stop offset="0.1" stop-opacity="0.77"/>
<stop offset="0.99" stop-opacity="0"/>
</linearGradient>
<linearGradient id="paint17_linear" x1="3655.69" y1="4812.82" x2="2956.97" y2="4855.72" gradientUnits="userSpaceOnUse">
<stop offset="0.1" stop-opacity="0.77"/>
<stop offset="0.99" stop-opacity="0"/>
</linearGradient>
<linearGradient id="paint18_linear" x1="77.6221" y1="296.874" x2="76.9269" y2="341.96" gradientUnits="userSpaceOnUse">
<stop offset="0.36" stop-opacity="0.77"/>
<stop offset="0.99" stop-opacity="0"/>
</linearGradient>
<linearGradient id="paint19_linear" x1="2109.43" y1="1897.85" x2="2142.41" y2="1053.37" gradientUnits="userSpaceOnUse">
<stop offset="0.01"/>
<stop offset="0.1" stop-opacity="0.77"/>
<stop offset="0.99" stop-opacity="0"/>
</linearGradient>
<linearGradient id="paint20_linear" x1="2785.39" y1="1775.51" x2="2168.05" y2="893.476" gradientUnits="userSpaceOnUse">
<stop offset="0.01"/>
<stop offset="0.1" stop-opacity="0.77"/>
<stop offset="0.99" stop-opacity="0"/>
</linearGradient>
<linearGradient id="paint21_linear" x1="3507.44" y1="1304.3" x2="3436.61" y2="779.294" gradientUnits="userSpaceOnUse">
<stop offset="0.1" stop-opacity="0.77"/>
<stop offset="0.99" stop-opacity="0"/>
</linearGradient>
<clipPath id="clip0">
<rect width="461" height="377" fill="white"/>
</clipPath>
</defs>
</svg>
