<svg width="465" height="354" viewBox="0 0 465 354" fill="none" xmlns="http://www.w3.org/2000/svg">
<g clip-path="url(#clip0)">
<path d="M118.436 68.2346C117.01 67.3507 115.458 66.427 113.778 66.5385C113.075 66.6029 112.389 66.786 111.747 67.08C110.742 67.4253 109.862 68.0596 109.216 68.9035C108.3 70.2811 108.547 72.0886 108.626 73.737C108.639 73.8873 108.623 74.0386 108.579 74.1829C108.505 74.3363 108.396 74.4701 108.26 74.5731C107.316 75.4171 106.573 76.4619 106.086 77.6308C105.602 78.8117 105.585 80.1327 106.039 81.3256C106.409 82.0661 106.923 82.7255 107.55 83.2654C108.177 83.8054 108.906 84.2152 109.693 84.471C111.397 85.1399 113.531 85.3389 114.916 84.1206C115.693 83.3058 116.227 82.2913 116.461 81.1903C117.13 78.9049 117.647 76.524 118.961 74.5412C119.786 73.4347 120.333 72.1454 120.554 70.7827C120.737 69.4688 119.447 68.8637 118.436 68.2346Z" fill="#3F3D56"/>
<path d="M118.436 68.2346C117.01 67.3507 115.458 66.427 113.778 66.5385C113.075 66.6029 112.389 66.786 111.747 67.08C110.742 67.4253 109.862 68.0596 109.216 68.9035C108.3 70.2811 108.547 72.0886 108.626 73.737C108.639 73.8873 108.623 74.0386 108.579 74.1829C108.505 74.3363 108.396 74.4701 108.26 74.5731C107.316 75.4171 106.573 76.4619 106.086 77.6308C105.602 78.8117 105.585 80.1327 106.039 81.3256C106.409 82.0661 106.923 82.7255 107.55 83.2654C108.177 83.8054 108.906 84.2152 109.693 84.471C111.397 85.1399 113.531 85.3389 114.916 84.1206C115.693 83.3058 116.227 82.2913 116.461 81.1903C117.13 78.9049 117.647 76.524 118.961 74.5412C119.786 73.4347 120.333 72.1454 120.554 70.7827C120.737 69.4688 119.447 68.8637 118.436 68.2346Z" fill="url(#paint0_linear)"/>
<path opacity="0.18" d="M168.638 23.3631C150.564 37.9591 137.848 57.97 123.055 75.9184C107.867 94.3161 90.3496 110.658 70.9431 124.532C52.288 137.87 31.5389 149.217 17.5337 167.412C-6.35251 198.42 -4.68048 244.438 15.6467 277.906C35.9738 311.374 71.8986 333.153 109.599 343.704C147.299 354.255 187.038 354.717 226.179 353.626C273.713 352.304 321.116 348.813 368.39 343.154C388.024 340.805 408.144 337.907 425.366 328.192C458.751 309.352 474.213 264.027 459.3 228.711C452.931 213.629 442.086 200.944 431.218 188.697C404.943 159.099 377.124 129.724 361.248 93.4846C330.61 23.5144 239.492 -33.8585 168.638 23.3631Z" fill="#3E9DF4"/>
<path d="M242.142 198.882H237.85V336.322H242.142V198.882Z" fill="#3E9DF4"/>
<path d="M242.142 198.882H237.85V336.322H242.142V198.882Z" fill="url(#paint1_linear)"/>
<path d="M296.364 322.53C288.999 325.27 282.828 327.746 281.403 329.187C279.396 331.258 277.334 333.368 274.707 334.586C271.649 335.996 268.162 336.02 264.794 336.035L216.361 336.123C212.929 336.123 209.442 336.123 206.169 335.096C203.52 334.323 201.208 332.679 199.609 330.43C198.18 331.193 196.675 331.804 195.118 332.253C190.182 333.846 185.229 335.393 180.261 336.895C165.73 341.243 150.634 345.121 135.57 343.369C124.893 342.127 114.757 338.114 104.773 334.124C99.9079 332.189 95.0112 330.222 90.5923 327.412C86.1733 324.601 82.2242 320.842 79.9948 316.104C79.7794 315.758 79.7053 315.341 79.7878 314.942C80.0027 314.313 80.8228 314.193 81.4917 314.145C92.1688 313.97 102.989 313.803 113.34 316.343C124.16 318.979 134.407 324.258 145.793 323.836C158.939 323.358 172.068 322.634 185.221 322.021C187.316 321.901 189.416 321.901 191.511 322.021C191.853 321.664 192.273 321.391 192.737 321.224C194.752 320.428 225.247 321.678 226.974 320.882C230.685 319.194 233.495 319.234 237.683 318.995C247.238 318.453 256.936 318.557 266.538 318.342C268.361 318.294 281.323 317.092 294.676 315.571C298.919 315.196 300.321 321.065 296.364 322.53Z" fill="url(#paint2_linear)"/>
<path d="M136.494 340.989C136.804 341.971 137.335 342.87 138.046 343.617C138.756 344.363 139.628 344.938 140.594 345.297C141.508 345.547 142.461 345.628 143.405 345.536C144.796 345.492 146.159 345.127 147.386 344.468C147.997 344.133 148.528 343.668 148.941 343.105C149.354 342.542 149.638 341.896 149.774 341.212C150.109 339.07 148.628 336.76 149.583 334.841C150.575 336.343 151.913 337.584 153.484 338.461C155.055 339.338 156.814 339.826 158.612 339.882C159.388 339.891 160.165 339.857 160.937 339.778C161.198 339.803 161.461 339.763 161.702 339.662C161.944 339.561 162.157 339.401 162.322 339.198C162.488 338.995 162.6 338.754 162.65 338.497C162.7 338.24 162.686 337.974 162.609 337.724C162.634 337.423 162.579 337.121 162.45 336.848C162.222 336.542 161.905 336.314 161.542 336.195L153.039 332.492C151.176 331.696 149.145 330.852 147.163 331.29C146.072 331.584 145.053 332.099 144.169 332.803C143.491 333.352 142.748 333.815 141.955 334.18C141.177 334.491 140.328 334.579 139.503 334.435C138.89 334.234 138.24 334.171 137.6 334.252C136.366 334.602 135.681 335.319 135.729 336.529C135.753 338.046 136.011 339.55 136.494 340.989Z" fill="#3E9DF4"/>
<path d="M151.422 310.188C151.239 314.305 153.93 318.868 154.822 322.626C155.714 326.385 154.114 330.414 151.422 331.664C149.695 332.461 149.304 331.569 148.62 331.545C147.455 328.212 146.802 324.722 146.685 321.193C146.446 315.539 147.21 309.91 147.8 304.288C149.164 291.207 149.548 278.042 148.946 264.903L157.33 264.601L155.897 274.586C155.897 274.586 151.574 306.079 151.422 310.188Z" fill="url(#paint3_linear)"/>
<path d="M146.685 321.153C146.802 324.682 147.454 328.172 148.62 331.505C148.245 331.505 145.944 335.311 145.116 336.282C142.791 338.966 135.626 332.301 136.398 328.503C138.404 318.573 138.404 315.881 138.404 315.881C138.404 315.881 138.181 294.589 137.608 286.538C137.317 280.701 137.675 274.849 138.675 269.091C138.954 267.57 137.425 265.237 137.425 265.237L148.906 264.831C149.508 277.969 149.125 291.135 147.76 304.216C147.21 309.869 146.446 315.499 146.685 321.153Z" fill="url(#paint4_linear)"/>
<path d="M158.939 190.649C158.939 190.649 165.738 205.141 166.28 212.149C166.821 219.156 160.555 252.592 160.905 264.401C160.905 264.401 142.656 267.626 133.707 264.76C133.707 264.76 128.34 244.9 126.199 239.708C124.057 234.517 121.724 205.165 127.624 199.798C133.524 194.431 154.464 186.715 158.939 190.649Z" fill="#3F3D56"/>
<path d="M146.597 118.512L169.886 148.054L186.71 128.37L190.644 135.887C190.644 135.887 174.178 160.23 171.678 160.23C169.178 160.23 155.929 153.063 155.929 153.063L146.597 118.512Z" fill="#3E9DF4"/>
<path d="M146.597 118.512L169.886 148.054L186.71 128.37L190.644 135.887C190.644 135.887 174.178 160.23 171.678 160.23C169.178 160.23 155.929 153.063 155.929 153.063L146.597 118.512Z" fill="url(#paint5_linear)"/>
<path d="M186.814 128.482C186.416 128.426 186.209 128.928 186.153 129.278C185.966 130.657 185.966 132.056 186.153 133.435C186.156 133.839 186.251 134.238 186.431 134.6C186.61 134.963 186.869 135.281 187.188 135.529C187.837 135.78 188.532 135.886 189.226 135.84C189.598 135.941 189.993 135.916 190.349 135.768C190.819 135.465 190.747 134.765 190.612 134.223C190.383 133.19 190.069 132.178 189.672 131.197C189.396 130.503 188.94 129.896 188.35 129.437C187.92 129.175 187.299 128.553 186.814 128.482Z" fill="#3E9DF4"/>
<path d="M186.814 128.482C186.416 128.426 186.209 128.928 186.153 129.278C185.954 130.656 186.24 130.488 186.416 131.866C186.519 132.662 186.455 135.123 187.156 135.529C187.805 135.78 188.5 135.886 189.194 135.84C189.566 135.941 189.961 135.916 190.317 135.768C190.787 135.465 190.715 134.765 190.58 134.223C190.351 133.19 190.037 132.178 189.64 131.197C189.364 130.503 188.908 129.896 188.319 129.437C187.92 129.175 187.299 128.553 186.814 128.482Z" fill="url(#paint6_linear)"/>
<path d="M113.531 128.331C112.297 128.187 114.2 125.942 114.924 124.906C115.733 123.915 116.699 123.062 117.783 122.382C120.534 120.397 123.122 118.195 125.522 115.797C125.522 115.797 144.981 117.278 146.597 118.528C148.214 119.778 155.005 134.996 156.948 140.896C158.891 146.797 158.023 155.397 156.773 157.539C155.523 159.681 160.881 189.757 160.881 189.757C160.881 189.757 159.185 194.049 154.352 190.553C154.352 190.553 144.153 205.045 130.466 202.903L122.95 201.828C122.95 201.828 133.683 180.623 129.391 166.664C125.1 152.705 118.659 136.867 118.659 136.867L114.948 130.457C114.948 130.457 114.256 128.418 113.531 128.331Z" fill="#3E9DF4"/>
<path d="M113.531 128.331C112.297 128.187 114.2 125.942 114.924 124.906C115.733 123.915 116.699 123.062 117.783 122.382C120.534 120.397 123.122 118.195 125.522 115.797C125.522 115.797 144.981 117.278 146.597 118.528C148.214 119.778 155.005 134.996 156.948 140.896C158.891 146.797 158.023 155.397 156.773 157.539C155.523 159.681 160.881 189.757 160.881 189.757C160.881 189.757 159.185 194.049 154.352 190.553C154.352 190.553 144.153 205.045 130.466 202.903L122.95 201.828C122.95 201.828 133.683 180.623 129.391 166.664C125.1 152.705 118.659 136.867 118.659 136.867L114.948 130.457C114.948 130.457 114.256 128.418 113.531 128.331Z" fill="url(#paint7_linear)"/>
<g opacity="0.21">
<path opacity="0.21" d="M154.042 190.896C147.816 184.669 148.683 170.638 150.507 159.968L151.446 160.127C148.882 175.113 150.013 185.521 154.711 190.227L154.042 190.896Z" fill="white"/>
</g>
<g opacity="0.21">
<path opacity="0.21" d="M151.446 160.127L150.507 159.968C151.621 153.47 147.21 147.968 147.163 147.912L147.903 147.307C148.094 147.546 152.633 153.191 151.446 160.127Z" fill="white"/>
</g>
<path d="M141.263 138.316C141.669 138.651 147.027 147.768 147.537 147.609C148.333 147.354 143.413 137.416 143.15 136.604C141.621 131.741 139.949 126.924 138.134 122.151C137.951 121.537 137.601 120.985 137.123 120.559C136.804 120.37 136.449 120.252 136.081 120.211C135.713 120.169 135.341 120.207 134.989 120.32C134.069 120.609 133.224 121.096 132.513 121.747C131.802 122.397 131.242 123.196 130.872 124.086C129.957 126.029 131.318 127.375 132.465 128.968C134.979 132.453 137.936 135.596 141.263 138.316Z" fill="white"/>
<path d="M136.955 124.883C136 126.245 134.009 126.476 132.409 125.966C131.182 125.535 130.059 124.852 129.11 123.962C128.161 123.073 127.408 121.995 126.899 120.798C125.892 118.399 125.385 115.819 125.41 113.217C125.33 111.799 125.448 110.375 125.761 108.989C125.885 108.482 126.059 107.989 126.278 107.516C126.534 106.862 127.014 106.32 127.632 105.987C128.104 105.797 128.618 105.736 129.121 105.812C130.405 105.949 131.641 106.379 132.733 107.069C133.825 107.759 134.744 108.692 135.419 109.793C136.892 112.182 135.419 114.961 135.984 117.701C136.015 117.873 136.058 118.043 136.111 118.21C136.47 119.333 137.019 120.376 137.314 121.515C137.5 122.069 137.564 122.657 137.502 123.238C137.441 123.819 137.254 124.381 136.955 124.883Z" fill="url(#paint8_linear)"/>
<path d="M135.984 117.716C134.865 118.249 133.583 118.326 132.409 117.931C131.181 117.501 130.057 116.819 129.108 115.929C128.16 115.039 127.407 113.961 126.899 112.763C126.356 111.568 125.974 110.307 125.761 109.013C125.885 108.506 126.059 108.013 126.278 107.539C126.534 106.885 127.014 106.344 127.632 106.01C128.104 105.82 128.618 105.76 129.121 105.835C130.405 105.972 131.641 106.402 132.733 107.093C133.825 107.783 134.744 108.715 135.419 109.817C136.892 112.206 135.387 114.953 135.984 117.716Z" fill="url(#paint9_linear)"/>
<path d="M145.841 81.0866C145.57 78.427 143.086 76.6114 140.809 75.2099C135.514 71.9531 129.59 68.9033 123.404 69.5244C121.488 69.7409 119.611 70.2261 117.83 70.9657C116.222 71.5302 114.749 72.4254 113.507 73.5935C112.896 74.1868 112.429 74.9123 112.142 75.7143C111.855 76.5163 111.755 77.3735 111.851 78.2199C112.146 79.9797 113.531 81.5405 113.332 83.3082C113.143 84.1433 112.838 84.9475 112.424 85.6971C111.921 86.8858 111.684 88.1699 111.728 89.4598C111.772 90.7498 112.096 92.0147 112.679 93.1663C113.061 93.9228 113.563 94.6156 113.889 95.396C114.216 96.1763 114.359 96.9886 114.622 97.7848C115.396 100.137 117.063 102.09 119.264 103.224C120.218 103.764 121.321 103.982 122.409 103.845C123.624 103.508 124.724 102.847 125.593 101.934L138.237 90.6978C141.39 87.9188 145.841 85.8643 145.841 81.0866Z" fill="#3F3D56"/>
<path d="M145.841 81.0866C145.57 78.427 143.086 76.6114 140.809 75.2099C135.514 71.9531 129.59 68.9033 123.404 69.5244C121.488 69.7409 119.611 70.2261 117.83 70.9657C116.222 71.5302 114.749 72.4254 113.507 73.5935C112.896 74.1868 112.429 74.9123 112.142 75.7143C111.855 76.5163 111.755 77.3735 111.851 78.2199C112.146 79.9797 113.531 81.5405 113.332 83.3082C113.143 84.1433 112.838 84.9475 112.424 85.6971C111.921 86.8858 111.684 88.1699 111.728 89.4598C111.772 90.7498 112.096 92.0147 112.679 93.1663C113.061 93.9228 113.563 94.6156 113.889 95.396C114.216 96.1763 114.359 96.9886 114.622 97.7848C115.396 100.137 117.063 102.09 119.264 103.224C120.218 103.764 121.321 103.982 122.409 103.845C123.624 103.508 124.724 102.847 125.593 101.934L138.237 90.6978C141.39 87.9188 145.841 85.8643 145.841 81.0866Z" fill="url(#paint10_linear)"/>
<path d="M296.093 212.029H191.416L193.836 205.858V79.1595L191.416 70.3047H296.093L294.214 79.1595V205.858L296.093 212.029Z" fill="#CACCCC"/>
<path d="M294.222 79.1592H193.836V205.857H294.222V79.1592Z" fill="white"/>
<path d="M146.056 90.8807C147.648 96.1521 148.11 102.244 146.462 107.483C145.132 111.712 143.206 114.061 138.787 114.435C136.568 114.557 134.35 114.193 132.287 113.367C130.224 112.542 128.366 111.276 126.843 109.657C126.327 108.961 125.597 108.452 124.765 108.208C124.283 108.176 123.798 108.208 123.324 108.304C122.462 108.367 121.596 108.259 120.776 107.986C119.956 107.712 119.198 107.279 118.547 106.711C117.512 105.851 116.644 104.585 116.827 103.247C117.01 101.909 118.722 100.858 119.781 101.702C119.224 96.6617 118.786 91.1116 121.716 86.9709C124.383 83.2124 129.152 81.6357 133.659 80.712C135.57 80.2311 137.552 80.0962 139.511 80.3138C145.347 81.2216 144.702 86.3259 146.056 90.8807Z" fill="url(#paint11_linear)"/>
<path d="M123.786 88.1658C122.442 90.3264 121.792 92.8469 121.923 95.3882C122.059 97.9089 122.346 100.419 122.783 102.905C122.839 103.383 122.783 104.036 122.313 104.132C122.011 104.195 121.732 103.964 121.517 103.741C118.71 100.899 117.109 97.0816 117.05 93.0869C116.996 91.2788 117.379 89.4843 118.165 87.8553C119.391 85.4266 122.87 82.1777 125.721 81.8273C129.989 81.3018 124.351 87.3297 123.786 88.1658Z" fill="#3F3D56"/>
<path d="M125.482 138.754L117.966 172.039L142.298 173.472L140.506 178.839C140.506 178.839 105.8 181.339 105.083 179.556C104.367 177.772 113.531 128.33 113.531 128.33C113.531 128.33 121.899 129.445 125.482 138.754Z" fill="#3E9DF4"/>
<path d="M142.298 173.456L141.948 174.507L140.793 177.979L140.506 178.823C140.506 178.823 105.8 181.332 105.083 179.54C104.367 177.748 113.531 128.314 113.531 128.314C113.531 128.314 121.899 129.429 125.474 138.738L117.966 172.023L142.298 173.456Z" fill="url(#paint12_linear)"/>
<path d="M187.403 130.457C187.713 129.843 187.992 129.23 188.271 128.609L190.413 123.911C190.735 123.029 191.246 122.227 191.909 121.562C193.39 120.28 195.763 120.503 197.244 119.173C197.349 119.335 197.416 119.517 197.443 119.708C197.469 119.898 197.453 120.092 197.396 120.276C197.339 120.46 197.243 120.629 197.113 120.772C196.984 120.914 196.824 121.026 196.647 121.1C200.458 119.071 204.458 117.417 208.59 116.163C209.243 116.848 208.391 117.907 207.611 118.44L202.969 121.626C204.358 120.055 206.238 118.999 208.303 118.632C206.82 121.311 204.758 123.626 202.268 125.408L204.211 123.704C204.022 124.245 203.753 124.755 203.415 125.217C200.93 128.872 196.822 131.03 192.889 133.044L187.315 135.895C186.113 134.438 186.527 132.097 187.403 130.457Z" fill="url(#paint13_linear)"/>
<path d="M150.984 160.047L144.272 185.369L162.251 184.835L171.646 160.222L150.984 160.047Z" fill="white"/>
<path d="M159.536 173.775C157.283 176.948 153.864 179.099 150.029 179.755C148.455 180.113 146.806 179.922 145.355 179.213C144.89 178.896 144.406 178.606 143.906 178.345C143.048 178.058 142.141 177.945 141.239 178.011H140.777L141.932 174.539C142.367 174.5 142.798 174.425 143.221 174.316C144.973 173.861 146.672 173.226 148.293 172.421C148.386 172.599 148.44 172.795 148.451 172.995C148.462 173.196 148.43 173.396 148.357 173.583L158.931 172.556C159.067 172.519 159.21 172.515 159.349 172.544C159.487 172.573 159.617 172.634 159.727 172.723C159.99 172.994 159.783 173.456 159.536 173.775Z" fill="url(#paint14_linear)"/>
<path d="M145.562 332.006C144.71 333.344 143.301 334.307 141.916 333.989C141.495 333.874 141.094 333.694 140.729 333.455C138.611 332.141 137.545 329.705 136.661 327.085C135.825 331.281 135.506 334.475 136.159 336.855C136.812 339.236 137.035 341.203 138.611 342.86C140.188 344.516 143.954 343.656 146.04 343.489C146.732 343.472 147.399 343.225 147.935 342.788C148.835 341.992 149.121 340.526 149.304 339.189C149.403 338.527 149.453 337.859 149.456 337.19C149.42 336.351 149.308 335.516 149.121 334.698C148.699 332.603 148.365 330.071 147.529 328.136C147.051 326.997 146.836 328.877 146.653 329.458C146.402 330.351 146.035 331.208 145.562 332.006Z" fill="#3E9DF4"/>
<path d="M151.797 325.74C150.953 325.541 147.362 321.026 146.773 320.389C147.027 322.133 146.86 328.041 148.628 332.389C148.906 333.43 149.33 334.427 149.886 335.351C150.588 336.168 151.467 336.814 152.457 337.238C153.792 337.892 155.197 338.392 156.645 338.727C158.429 339.141 160.555 339.205 161.837 337.891C162.22 337.461 162.507 336.955 162.68 336.406C162.853 335.857 162.908 335.278 162.84 334.706C162.689 333.556 162.333 332.442 161.789 331.417C160.093 327.898 157.864 325.772 154.822 322.658C154.703 324.426 154.106 326.297 151.797 325.74Z" fill="#3E9DF4"/>
<path d="M145.562 332.006C144.71 333.344 143.301 334.307 141.916 333.989C141.495 333.874 141.094 333.694 140.729 333.455C138.611 332.141 137.545 329.705 136.661 327.085C135.825 331.281 135.506 334.475 136.159 336.855C136.812 339.236 137.035 341.203 138.611 342.86C140.188 344.516 143.954 343.656 146.04 343.489C146.732 343.472 147.399 343.225 147.935 342.788C148.835 341.992 149.121 340.526 149.304 339.189C149.403 338.527 149.453 337.859 149.456 337.19C149.42 336.351 149.308 335.516 149.121 334.698C148.699 332.603 148.365 330.071 147.529 328.136C147.051 326.997 146.836 328.877 146.653 329.458C146.402 330.351 146.035 331.208 145.562 332.006Z" fill="url(#paint15_linear)"/>
<path d="M151.797 325.74C150.953 325.541 147.362 321.026 146.773 320.389C147.027 322.133 146.86 328.041 148.628 332.389C148.906 333.43 149.33 334.427 149.886 335.351C150.588 336.168 151.467 336.814 152.457 337.238C153.792 337.892 155.197 338.392 156.645 338.727C158.429 339.141 160.555 339.205 161.837 337.891C162.22 337.461 162.507 336.955 162.68 336.406C162.853 335.857 162.908 335.278 162.84 334.706C162.689 333.556 162.333 332.442 161.789 331.417C160.093 327.898 157.864 325.772 154.822 322.658C154.703 324.426 154.106 326.297 151.797 325.74Z" fill="url(#paint16_linear)"/>
<path d="M122.616 118.512L125.84 132.296L131.565 134.621L130.665 141.955L148.023 149.122L141.263 138.308L129.415 124.087C129.415 124.087 125.633 118.385 125.522 115.805C125.41 113.225 122.616 118.512 122.616 118.512Z" fill="#3E9DF4"/>
<path d="M122.616 118.512L125.84 132.296L131.565 134.621L130.665 141.955L148.023 149.122L141.263 138.308L129.415 124.087C129.415 124.087 125.633 118.385 125.522 115.805C125.41 113.225 122.616 118.512 122.616 118.512Z" fill="url(#paint17_linear)"/>
<path d="M135.857 114.992C136.914 115.346 137.846 115.999 138.54 116.871C139.479 118.217 144.981 126.427 144.981 126.427L144.185 129.517L147.274 134.35L147.545 147.632L142.577 134.892C142.577 134.892 137.489 120.678 136.804 119.459C136.119 118.241 135.458 115.932 135.857 114.992Z" fill="#3E9DF4"/>
<path d="M135.857 114.992C136.914 115.346 137.846 115.999 138.54 116.871C139.479 118.217 148.341 127.613 148.341 127.613L145.387 131.252L149.814 133.936L147.537 147.624L142.569 134.884C142.569 134.884 137.481 120.67 136.796 119.451C136.111 118.233 135.458 115.932 135.857 114.992Z" fill="url(#paint18_linear)"/>
<path d="M255.829 328.797H224.164C221.939 328.797 220.135 330.599 220.135 332.822C220.135 335.045 221.939 336.847 224.164 336.847H255.829C258.054 336.847 259.858 335.045 259.858 332.822C259.858 330.599 258.054 328.797 255.829 328.797Z" fill="#3E9DF4"/>
<path d="M255.829 328.797H224.164C221.939 328.797 220.135 330.599 220.135 332.822C220.135 335.045 221.939 336.847 224.164 336.847H255.829C258.054 336.847 259.858 335.045 259.858 332.822C259.858 330.599 258.054 328.797 255.829 328.797Z" fill="url(#paint19_linear)"/>
<path opacity="0.18" d="M247.501 99.7832C253.366 99.8898 259.069 101.726 263.895 105.06C268.721 108.395 272.456 113.081 274.63 118.529C276.805 123.978 277.323 129.947 276.119 135.689C274.916 141.431 272.044 146.69 267.864 150.806C263.685 154.923 258.383 157.714 252.624 158.829C246.865 159.945 240.905 159.335 235.491 157.077C230.077 154.819 225.45 151.013 222.19 146.135C218.93 141.258 217.182 135.527 217.165 129.66C217.165 128.649 217.221 127.661 217.316 126.674L246.967 129.604L247.501 99.7832Z" fill="#3E9DF4"/>
<path opacity="0.47" d="M244.682 97.1241C244.876 97.1123 245.07 97.1123 245.263 97.1241L244.73 126.905L215.079 123.983C215.809 116.634 219.241 109.817 224.711 104.855C230.18 99.8921 237.297 97.1372 244.682 97.1241Z" fill="#3E9DF4"/>
<path opacity="0.18" d="M276.307 176.88H207.38C206.871 176.899 206.364 176.805 205.896 176.606C205.427 176.406 205.009 176.105 204.67 175.724C204.332 175.344 204.081 174.893 203.937 174.405C203.793 173.917 203.759 173.402 203.837 172.899C204.01 171.804 204.563 170.806 205.399 170.078C206.234 169.35 207.299 168.939 208.407 168.917H277.374C277.883 168.898 278.389 168.992 278.857 169.192C279.325 169.392 279.744 169.693 280.081 170.074C280.419 170.454 280.669 170.905 280.812 171.393C280.955 171.882 280.988 172.396 280.909 172.899C280.738 174 280.181 175.005 279.338 175.734C278.496 176.463 277.421 176.869 276.307 176.88Z" fill="#3E9DF4"/>
<path opacity="0.18" d="M276.307 196.207H207.38C206.871 196.225 206.364 196.132 205.896 195.932C205.427 195.732 205.009 195.431 204.67 195.051C204.332 194.67 204.081 194.22 203.937 193.731C203.793 193.243 203.759 192.728 203.837 192.225C204.01 191.131 204.563 190.132 205.399 189.404C206.234 188.676 207.299 188.265 208.407 188.244H277.374C277.883 188.225 278.389 188.318 278.857 188.518C279.325 188.718 279.744 189.019 280.081 189.4C280.419 189.78 280.669 190.231 280.812 190.72C280.955 191.208 280.988 191.722 280.909 192.225C280.738 193.326 280.181 194.331 279.338 195.06C278.496 195.789 277.421 196.195 276.307 196.207Z" fill="#3E9DF4"/>
</g>
<defs>
<linearGradient id="paint0_linear" x1="110.004" y1="74.1351" x2="116.581" y2="77.7576" gradientUnits="userSpaceOnUse">
<stop stop-opacity="0"/>
<stop offset="0.99"/>
</linearGradient>
<linearGradient id="paint1_linear" x1="1519.86" y1="46385.6" x2="1543.03" y2="46385.6" gradientUnits="userSpaceOnUse">
<stop stop-opacity="0"/>
<stop offset="0.99"/>
</linearGradient>
<linearGradient id="paint2_linear" x1="191.002" y1="265.157" x2="187.776" y2="359.646" gradientUnits="userSpaceOnUse">
<stop offset="0.01"/>
<stop offset="0.13" stop-opacity="0.69"/>
<stop offset="1" stop-opacity="0"/>
</linearGradient>
<linearGradient id="paint3_linear" x1="146.637" y1="298.276" x2="157.33" y2="298.276" gradientUnits="userSpaceOnUse">
<stop stop-color="#ECC4D7"/>
<stop offset="0.42" stop-color="#EFD4D1"/>
<stop offset="1" stop-color="#F2EAC9"/>
</linearGradient>
<linearGradient id="paint4_linear" x1="2381.89" y1="32916.1" x2="2589.8" y2="32916.1" gradientUnits="userSpaceOnUse">
<stop stop-color="#ECC4D7"/>
<stop offset="0.42" stop-color="#EFD4D1"/>
<stop offset="1" stop-color="#F2EAC9"/>
</linearGradient>
<linearGradient id="paint5_linear" x1="9664.08" y1="10313.9" x2="5104.58" y2="12547.3" gradientUnits="userSpaceOnUse">
<stop stop-opacity="0"/>
<stop offset="0.99"/>
</linearGradient>
<linearGradient id="paint6_linear" x1="1298.69" y1="1905.89" x2="1264.16" y2="1926.41" gradientUnits="userSpaceOnUse">
<stop stop-opacity="0"/>
<stop offset="0.99"/>
</linearGradient>
<linearGradient id="paint7_linear" x1="9467.7" y1="23334" x2="3139.59" y2="24522.5" gradientUnits="userSpaceOnUse">
<stop stop-opacity="0"/>
<stop offset="0.99"/>
</linearGradient>
<linearGradient id="paint8_linear" x1="2081.23" y1="4618.59" x2="2265.98" y2="4618.59" gradientUnits="userSpaceOnUse">
<stop stop-color="#ECC4D7"/>
<stop offset="0.42" stop-color="#EFD4D1"/>
<stop offset="1" stop-color="#F2EAC9"/>
</linearGradient>
<linearGradient id="paint9_linear" x1="1930.91" y1="2759.36" x2="1238.2" y2="2890.06" gradientUnits="userSpaceOnUse">
<stop stop-color="#ECC4D7"/>
<stop offset="0.42" stop-color="#EFD4D1"/>
<stop offset="1" stop-color="#F2EAC9"/>
</linearGradient>
<linearGradient id="paint10_linear" x1="5432.18" y1="6309.52" x2="6148.28" y2="6692.73" gradientUnits="userSpaceOnUse">
<stop stop-opacity="0"/>
<stop offset="0.99"/>
</linearGradient>
<linearGradient id="paint11_linear" x1="4730.89" y1="6840.2" x2="5913.49" y2="6840.2" gradientUnits="userSpaceOnUse">
<stop stop-color="#ECC4D7"/>
<stop offset="0.42" stop-color="#EFD4D1"/>
<stop offset="1" stop-color="#F2EAC9"/>
</linearGradient>
<linearGradient id="paint12_linear" x1="6035.23" y1="14060.3" x2="3213.82" y2="14339.5" gradientUnits="userSpaceOnUse">
<stop stop-opacity="0"/>
<stop offset="0.99"/>
</linearGradient>
<linearGradient id="paint13_linear" x1="5481.75" y1="4722.63" x2="6102.85" y2="4722.63" gradientUnits="userSpaceOnUse">
<stop stop-color="#ECC4D7"/>
<stop offset="0.42" stop-color="#EFD4D1"/>
<stop offset="1" stop-color="#F2EAC9"/>
</linearGradient>
<linearGradient id="paint14_linear" x1="3582.47" y1="2398.4" x2="4039.05" y2="2398.4" gradientUnits="userSpaceOnUse">
<stop stop-color="#ECC4D7"/>
<stop offset="0.42" stop-color="#EFD4D1"/>
<stop offset="1" stop-color="#F2EAC9"/>
</linearGradient>
<linearGradient id="paint15_linear" x1="2512.84" y1="8654.8" x2="2746.72" y2="8654.8" gradientUnits="userSpaceOnUse">
<stop stop-opacity="0"/>
<stop offset="0.99"/>
</linearGradient>
<linearGradient id="paint16_linear" x1="3172.26" y1="9420.75" x2="3497.39" y2="9420.75" gradientUnits="userSpaceOnUse">
<stop stop-opacity="0"/>
<stop offset="0.99"/>
</linearGradient>
<linearGradient id="paint17_linear" x1="4412.82" y1="8327.68" x2="2052.46" y2="6456.44" gradientUnits="userSpaceOnUse">
<stop stop-opacity="0"/>
<stop offset="0.99"/>
</linearGradient>
<linearGradient id="paint18_linear" x1="2941.9" y1="7718.59" x2="1225.64" y2="8013.4" gradientUnits="userSpaceOnUse">
<stop stop-opacity="0"/>
<stop offset="0.99"/>
</linearGradient>
<linearGradient id="paint19_linear" x1="12189.4" y1="3658.81" x2="12190.1" y2="3800.02" gradientUnits="userSpaceOnUse">
<stop stop-opacity="0"/>
<stop offset="0.99"/>
</linearGradient>
<clipPath id="clip0">
<rect width="465" height="354" fill="white"/>
</clipPath>
</defs>
</svg>
