<svg width="858" height="921" viewBox="0 0 858 921" fill="none" xmlns="http://www.w3.org/2000/svg">
<path fill-rule="evenodd" clip-rule="evenodd" d="M309.647 83.182C381.072 34.8819 459.668 -6.89672 547.143 2.00005C646.566 12.1121 760.868 42.8418 821.672 135.258C881.979 226.918 849.749 345.816 844.076 453.309C839.381 542.274 840.67 637.114 791.666 703.855C745.217 767.116 658.461 764.015 590.753 798.318C514.065 837.17 456.125 938.65 369.204 917.886C282.651 897.208 249.329 776.571 188.191 702.148C123.43 623.315 3.88175 571.088 0.772761 469.396C-2.3782 366.331 115.409 327.878 174.49 254.003C220.951 195.909 249.507 123.851 309.647 83.182Z" fill="url(#paint0_linear)"/>
<defs>
<linearGradient id="paint0_linear" x1="315.433" y1="63.1771" x2="620.216" y2="838.548" gradientUnits="userSpaceOnUse">
<stop stop-color="#6D678E"/>
<stop offset="1" stop-color="#F6B5CC"/>
</linearGradient>
</defs>
</svg>
