<svg width="886" height="783" viewBox="0 0 886 783" fill="none" xmlns="http://www.w3.org/2000/svg">
<path fill-rule="evenodd" clip-rule="evenodd" d="M683.263 109.472C753.967 148.957 822.161 197.266 851.244 274.702C884.3 362.715 906.158 472.063 853.5 562.737C801.273 652.669 687.308 676.344 594.093 717.501C516.945 751.564 437.336 793.175 360.429 780.443C287.532 768.375 253.852 694.021 196.532 651.683C131.61 603.731 21.6057 598.321 2.78358 516.28C-15.959 434.586 72.0476 354.987 109.36 271.721C148.883 183.521 142.997 60.5706 227.635 14.5C313.415 -32.1927 395.198 50.5266 482.35 68.6929C550.885 82.9785 623.729 76.2258 683.263 109.472Z" fill="url(#paint0_linear)" fill-opacity="0.7"/>
<defs>
<linearGradient id="paint0_linear" x1="976.363" y1="-171.94" x2="448.635" y2="415.94" gradientUnits="userSpaceOnUse">
<stop stop-color="#6D678E"/>
<stop offset="1" stop-color="#F6B5CC"/>
</linearGradient>
</defs>
</svg>
