<svg width="47" height="41" viewBox="0 0 47 41" fill="none" xmlns="http://www.w3.org/2000/svg">
<g filter="url(#filter0_f)">
<path d="M33.7225 36.5C34.8387 34.5666 35.5632 32.4323 35.8546 30.219C36.146 28.0056 35.9986 25.7565 35.4208 23.6001C34.843 21.4437 33.8461 19.4222 32.487 17.6511C31.128 15.8799 29.4334 14.3938 27.5 13.2776C25.5666 12.1614 23.4323 11.4369 21.219 11.1455C19.0056 10.8541 16.7565 11.0015 14.6001 11.5793C12.4437 12.1571 10.4222 13.154 8.65107 14.513C6.87994 15.8721 5.39382 17.5666 4.27759 19.5L8.95463 22.2003C9.71626 20.8811 10.7303 19.7249 11.9387 18.7976C13.1472 17.8703 14.5265 17.1901 15.9979 16.7958C17.4692 16.4016 19.0038 16.301 20.514 16.4998C22.0243 16.6987 23.4805 17.193 24.7997 17.9546C26.1189 18.7163 27.2752 19.7303 28.2025 20.9387C29.1298 22.1472 29.8099 23.5265 30.2042 24.9979C30.5984 26.4692 30.699 28.0038 30.5002 29.514C30.3014 31.0243 29.807 32.4805 29.0454 33.7997L33.7225 36.5Z" fill="#F6B5CC"/>
</g>
<defs>
<filter id="filter0_f" x="0.277588" y="0.777588" width="45.9449" height="39.7224" filterUnits="userSpaceOnUse" color-interpolation-filters="sRGB">
<feFlood flood-opacity="0" result="BackgroundImageFix"/>
<feBlend mode="normal" in="SourceGraphic" in2="BackgroundImageFix" result="shape"/>
<feGaussianBlur stdDeviation="2" result="effect1_foregroundBlur"/>
</filter>
</defs>
</svg>
