<svg width="93" height="93" viewBox="0 0 93 93" fill="none" xmlns="http://www.w3.org/2000/svg">
<g clip-path="url(#clip0)">
<path d="M73.8794 79.5863L32.0366 87.0315C29.7522 87.4353 27.4009 86.9164 25.4985 85.5888C23.5961 84.2612 22.2981 82.2331 21.8891 79.9496L11.8162 23.3388C11.4124 21.0544 11.9312 18.7031 13.2589 16.8007C14.5865 14.8984 16.6145 13.6003 18.898 13.1913L60.7408 5.74609C63.0252 5.34231 65.3765 5.86115 67.2789 7.18879C69.1813 8.51643 70.4793 10.5445 70.8883 12.8279L80.9612 69.4388C81.365 71.7232 80.8462 74.0745 79.5186 75.9769C78.1909 77.8792 76.1629 79.1773 73.8794 79.5863ZM19.336 15.6526C17.7049 15.9449 16.2564 16.8721 15.3081 18.2309C14.3598 19.5897 13.9892 21.2691 14.2775 22.9009L24.3504 79.5117C24.6426 81.1427 25.5698 82.5912 26.9287 83.5395C28.2875 84.4878 29.9669 84.8585 31.5986 84.5702L73.4414 77.125C75.0725 76.8327 76.521 75.9055 77.4693 74.5467C78.4176 73.1879 78.7882 71.5084 78.4999 69.8767L68.427 13.2659C68.1348 11.6349 67.2076 10.1864 65.8487 9.23805C64.4899 8.28975 62.8105 7.91911 61.1788 8.20743L19.336 15.6526Z" fill="#FFFDFA" fill-opacity="0.9"/>
<path d="M55.7741 77.7295L48.3901 79.0433C47.4109 79.2176 46.4026 78.9957 45.587 78.4265C44.7714 77.8573 44.2154 76.9874 44.0411 76.0082L43.1652 71.0856C42.991 70.1064 43.2129 69.0981 43.7821 68.2825C44.3513 67.4669 45.2211 66.9109 46.2003 66.7366L53.5843 65.4228C54.5635 65.2485 55.5718 65.4704 56.3874 66.0396C57.203 66.6088 57.759 67.4787 57.9333 68.4578L58.8092 73.3805C58.9834 74.3597 58.7615 75.368 58.1923 76.1836C57.6231 76.9992 56.7533 77.5552 55.7741 77.7295ZM46.6383 69.198C46.3119 69.256 46.0219 69.4414 45.8322 69.7133C45.6425 69.9851 45.5685 70.3212 45.6266 70.6476L46.5025 75.5703C46.5606 75.8967 46.7459 76.1866 47.0178 76.3764C47.2896 76.5661 47.6257 76.6401 47.9521 76.582L55.3361 75.2681C55.6625 75.2101 55.9525 75.0247 56.1422 74.7528C56.332 74.481 56.4059 74.1449 56.3478 73.8185L55.4719 68.8958C55.4139 68.5694 55.2285 68.2795 54.9566 68.0897C54.6848 67.9 54.3487 67.826 54.0223 67.8841L46.6383 69.198Z" fill="#FFFDFA" fill-opacity="0.9"/>
<path d="M38.5447 80.7949L31.1607 82.1088C30.1815 82.283 29.1732 82.0611 28.3576 81.4919C27.5421 80.9227 26.986 80.0529 26.8118 79.0737L25.9359 74.151C25.7616 73.1718 25.9835 72.1635 26.5527 71.3479C27.1219 70.5324 27.9918 69.9763 28.9709 69.8021L36.355 68.4882C37.3341 68.314 38.3424 68.5359 39.158 69.105C39.9736 69.6742 40.5297 70.5441 40.7039 71.5233L41.5798 76.446C41.754 77.4251 41.5322 78.4334 40.963 79.249C40.3938 80.0646 39.5239 80.6207 38.5447 80.7949ZM29.4089 72.2634C29.0825 72.3215 28.7925 72.5068 28.6028 72.7787C28.4131 73.0506 28.3391 73.3866 28.3972 73.713L29.2731 78.6357C29.3312 78.9621 29.5165 79.2521 29.7884 79.4418C30.0603 79.6315 30.3964 79.7055 30.7228 79.6474L38.1068 78.3336C38.4332 78.2755 38.7231 78.0901 38.9129 77.8183C39.1026 77.5464 39.1765 77.2103 39.1185 76.8839L38.2426 71.9612C38.1845 71.6348 37.9991 71.3449 37.7273 71.1552C37.4554 70.9654 37.1193 70.8915 36.7929 70.9495L29.4089 72.2634Z" fill="#FFFDFA" fill-opacity="0.9"/>
<path d="M73.0035 74.6635L65.6195 75.9774C64.6403 76.1516 63.632 75.9297 62.8164 75.3605C62.0008 74.7914 61.4448 73.9215 61.2705 72.9423L57.7669 53.2516C57.5927 52.2724 57.8146 51.2641 58.3838 50.4485C58.953 49.6329 59.8228 49.0769 60.802 48.9026L68.186 47.5888C69.1652 47.4146 70.1735 47.6364 70.9891 48.2056C71.8047 48.7748 72.3607 49.6447 72.535 50.6239L76.0386 70.3146C76.2128 71.2938 75.9909 72.3021 75.4217 73.1176C74.8525 73.9332 73.9827 74.4893 73.0035 74.6635ZM61.2399 51.364C60.9136 51.4221 60.6236 51.6074 60.4339 51.8793C60.2441 52.1511 60.1702 52.4872 60.2283 52.8136L63.7319 72.5044C63.79 72.8307 63.9753 73.1207 64.2472 73.3104C64.519 73.5002 64.8551 73.5741 65.1815 73.516L72.5655 72.2022C72.8919 72.1441 73.1819 71.9588 73.3716 71.6869C73.5614 71.415 73.6353 71.0789 73.5772 70.7525L70.0736 51.0618C70.0155 50.7354 69.8302 50.4455 69.5583 50.2557C69.2865 50.066 68.9504 49.992 68.624 50.0501L61.2399 51.364Z" fill="#FFFDFA" fill-opacity="0.9"/>
<path d="M53.1464 62.9614L45.7624 64.2753C44.7832 64.4495 43.7749 64.2276 42.9593 63.6584C42.1437 63.0892 41.5877 62.2194 41.4134 61.2402L40.5375 56.3175C40.3633 55.3383 40.5852 54.33 41.1544 53.5144C41.7236 52.6989 42.5934 52.1428 43.5726 51.9686L50.9566 50.6547C51.9358 50.4805 52.9441 50.7024 53.7597 51.2715C54.5753 51.8407 55.1314 52.7106 55.3056 53.6898L56.1815 58.6125C56.3557 59.5916 56.1338 60.5999 55.5646 61.4155C54.9955 62.2311 54.1256 62.7872 53.1464 62.9614ZM44.0106 54.4299C43.6842 54.488 43.3942 54.6733 43.2045 54.9452C43.0148 55.2171 42.9408 55.5532 42.9989 55.8795L43.8748 60.8022C43.9329 61.1286 44.1182 61.4186 44.3901 61.6083C44.6619 61.798 44.998 61.872 45.3244 61.8139L52.7085 60.5001C53.0349 60.442 53.3248 60.2566 53.5145 59.9848C53.7043 59.7129 53.7782 59.3768 53.7202 59.0504L52.8442 54.1277C52.7862 53.8013 52.6008 53.5114 52.329 53.3217C52.0571 53.1319 51.721 53.058 51.3946 53.116L44.0106 54.4299Z" fill="#FFFDFA" fill-opacity="0.9"/>
<path d="M35.917 66.0268L28.533 67.3407C27.5538 67.5149 26.5455 67.293 25.7299 66.7238C24.9143 66.1547 24.3582 65.2848 24.184 64.3056L23.3081 59.3829C23.1339 58.4037 23.3558 57.3955 23.925 56.5799C24.4941 55.7643 25.364 55.2082 26.3432 55.034L33.7272 53.7201C34.7064 53.5459 35.7147 53.7678 36.5303 54.337C37.3459 54.9062 37.9019 55.776 38.0762 56.7552L38.9521 61.6779C39.1263 62.6571 38.9044 63.6654 38.3352 64.4809C37.766 65.2965 36.8962 65.8526 35.917 66.0268ZM26.7811 57.4953C26.4548 57.5534 26.1648 57.7388 25.9751 58.0106C25.7853 58.2825 25.7114 58.6186 25.7695 58.945L26.6454 63.8677C26.7034 64.1941 26.8888 64.484 27.1607 64.6737C27.4325 64.8635 27.7686 64.9374 28.095 64.8794L35.479 63.5655C35.8054 63.5074 36.0954 63.3221 36.2851 63.0502C36.4748 62.7783 36.5488 62.4422 36.4907 62.1158L35.6148 57.1932C35.5567 56.8668 35.3714 56.5768 35.0995 56.3871C34.8277 56.1974 34.4916 56.1234 34.1652 56.1815L26.7811 57.4953Z" fill="#FFFDFA" fill-opacity="0.9"/>
<path d="M50.5187 48.1933L43.1346 49.5072C42.1555 49.6814 41.1472 49.4595 40.3316 48.8903C39.516 48.3212 38.9599 47.4513 38.7857 46.4721L37.9098 41.5494C37.7356 40.5703 37.9575 39.562 38.5266 38.7464C39.0958 37.9308 39.9657 37.3747 40.9449 37.2005L48.3289 35.8866C49.3081 35.7124 50.3164 35.9343 51.132 36.5035C51.9475 37.0727 52.5036 37.9425 52.6778 38.9217L53.5537 43.8444C53.728 44.8236 53.5061 45.8319 52.9369 46.6475C52.3677 47.463 51.4978 48.0191 50.5187 48.1933ZM41.3828 39.6618C41.0564 39.7199 40.7665 39.9053 40.5768 40.1771C40.387 40.449 40.3131 40.7851 40.3711 41.1115L41.247 46.0342C41.3051 46.3606 41.4905 46.6505 41.7623 46.8402C42.0342 47.03 42.3703 47.1039 42.6967 47.0459L50.0807 45.732C50.4071 45.6739 50.6971 45.4886 50.8868 45.2167C51.0765 44.9448 51.1505 44.6087 51.0924 44.2824L50.2165 39.3597C50.1584 39.0333 49.9731 38.7433 49.7012 38.5536C49.4293 38.3639 49.0932 38.2899 48.7669 38.348L41.3828 39.6618Z" fill="#FFFDFA" fill-opacity="0.9"/>
<path d="M33.2893 51.2588L25.9053 52.5726C24.9261 52.7469 23.9178 52.525 23.1022 51.9558C22.2866 51.3866 21.7306 50.5167 21.5563 49.5375L20.6804 44.6149C20.5062 43.6357 20.7281 42.6274 21.2973 41.8118C21.8665 40.9962 22.7363 40.4402 23.7155 40.2659L31.0995 38.9521C32.0787 38.7778 33.087 38.9997 33.9026 39.5689C34.7182 40.1381 35.2742 41.008 35.4485 41.9871L36.3244 46.9098C36.4986 47.889 36.2767 48.8973 35.7075 49.7129C35.1383 50.5285 34.2685 51.0845 33.2893 51.2588ZM24.1535 42.7273C23.8271 42.7853 23.5371 42.9707 23.3474 43.2426C23.1577 43.5144 23.0837 43.8505 23.1418 44.1769L24.0177 49.0996C24.0757 49.426 24.2611 49.7159 24.533 49.9057C24.8048 50.0954 25.1409 50.1694 25.4673 50.1113L32.8513 48.7974C33.1777 48.7394 33.4677 48.554 33.6574 48.2821C33.8472 48.0103 33.9211 47.6742 33.863 47.3478L32.9871 42.4251C32.9291 42.0987 32.7437 41.8087 32.4718 41.619C32.2 41.4293 31.8639 41.3553 31.5375 41.4134L24.1535 42.7273Z" fill="#FFFDFA" fill-opacity="0.9"/>
<path d="M67.748 45.1274L60.364 46.4413C59.3848 46.6155 58.3765 46.3936 57.561 45.8244C56.7454 45.2552 56.1893 44.3854 56.0151 43.4062L55.1392 38.4835C54.9649 37.5043 55.1868 36.496 55.756 35.6805C56.3252 34.8649 57.1951 34.3088 58.1742 34.1346L65.5583 32.8207C66.5375 32.6465 67.5457 32.8684 68.3613 33.4376C69.1769 34.0068 69.733 34.8766 69.9072 35.8558L70.7831 40.7785C70.9573 41.7577 70.7355 42.766 70.1663 43.5815C69.5971 44.3971 68.7272 44.9532 67.748 45.1274ZM58.6122 36.5959C58.2858 36.654 57.9959 36.8393 57.8061 37.1112C57.6164 37.3831 57.5424 37.7192 57.6005 38.0456L58.4764 42.9682C58.5345 43.2946 58.7198 43.5846 58.9917 43.7743C59.2636 43.9641 59.5997 44.038 59.9261 43.9799L67.3101 42.6661C67.6365 42.608 67.9264 42.4226 68.1162 42.1508C68.3059 41.8789 68.3799 41.5428 68.3218 41.2164L67.4459 36.2938C67.3878 35.9674 67.2024 35.6774 66.9306 35.4877C66.6587 35.2979 66.3226 35.224 65.9962 35.2821L58.6122 36.5959Z" fill="#FFFDFA" fill-opacity="0.9"/>
<path d="M64.6824 27.8983L22.8396 35.3435C21.8604 35.5177 20.8521 35.2958 20.0365 34.7266C19.2209 34.1574 18.6649 33.2876 18.4906 32.3084L16.7388 22.463C16.5646 21.4838 16.7865 20.4755 17.3557 19.66C17.9249 18.8444 18.7947 18.2883 19.7739 18.1141L61.6167 10.6689C62.5959 10.4946 63.6042 10.7165 64.4198 11.2857C65.2354 11.8549 65.7914 12.7248 65.9656 13.704L67.7175 23.5493C67.8917 24.5285 67.6698 25.5368 67.1006 26.3524C66.5314 27.168 65.6616 27.724 64.6824 27.8983ZM20.2119 20.5754C19.8855 20.6335 19.5955 20.8188 19.4058 21.0907C19.2161 21.3626 19.1421 21.6987 19.2002 22.0251L20.952 31.8704C21.0101 32.1968 21.1954 32.4868 21.4673 32.6765C21.7391 32.8662 22.0752 32.9402 22.4016 32.8821L64.2444 25.4369C64.5708 25.3788 64.8608 25.1935 65.0505 24.9216C65.2402 24.6498 65.3142 24.3137 65.2561 23.9873L63.5043 14.1419C63.4462 13.8155 63.2609 13.5256 62.989 13.3358C62.7172 13.1461 62.3811 13.0721 62.0547 13.1302L20.2119 20.5754Z" fill="#FFFDFA" fill-opacity="0.9"/>
<path d="M60.3335 24.8632C59.3543 25.0375 58.346 24.8156 57.5304 24.2464C56.7148 23.6772 56.1588 22.8073 55.9845 21.8282L55.5466 19.3668C55.3723 18.3876 55.5942 17.3793 56.1634 16.5638C56.7326 15.7482 57.6025 15.1921 58.5817 15.0179C59.5608 14.8436 60.5691 15.0655 61.3847 15.6347C62.2003 16.2039 62.7564 17.0738 62.9306 18.053L63.3686 20.5143C63.5428 21.4935 63.3209 22.5018 62.7517 23.3174C62.1825 24.1329 61.3127 24.689 60.3335 24.8632ZM59.0196 17.4792C58.6932 17.5373 58.4033 17.7226 58.2135 17.9945C58.0238 18.2664 57.9498 18.6025 58.0079 18.9289L58.4459 21.3902C58.5039 21.7166 58.6893 22.0066 58.9612 22.1963C59.233 22.386 59.5691 22.46 59.8955 22.4019C60.2219 22.3438 60.5119 22.1585 60.7016 21.8866C60.8913 21.6147 60.9653 21.2786 60.9072 20.9523L60.4693 18.4909C60.4112 18.1645 60.2258 17.8746 59.954 17.6848C59.6821 17.4951 59.346 17.4211 59.0196 17.4792Z" fill="#FFFDFA" fill-opacity="0.9"/>
</g>
<defs>
<clipPath id="clip0">
<rect y="14.0146" width="80" height="80" transform="rotate(-10.0892 0 14.0146)" fill="white"/>
</clipPath>
</defs>
</svg>
