<svg width="87" height="87" viewBox="0 0 87 87" fill="none" xmlns="http://www.w3.org/2000/svg">
<g clip-path="url(#clip0)">
<path d="M63.1843 65.5279C64.0638 63.73 64.591 61.7802 64.7372 59.7841L73.3129 48.7707C73.3157 48.7626 73.318 48.7543 73.3197 48.7459C74.784 46.6903 76.5924 44.9032 78.6651 43.4633C79.1656 43.1607 79.4804 42.6267 79.503 42.0423L79.9031 32.3385C79.9042 32.2362 79.8916 32.1343 79.8656 32.0354C79.8612 32.016 79.8634 31.9948 79.8588 31.9766C79.8541 31.9584 79.8253 31.9093 79.8108 31.8739C79.7834 31.7938 79.7473 31.7169 79.7034 31.6446C79.6718 31.6063 79.6377 31.5702 79.6012 31.5366C79.5575 31.4811 79.5089 31.4297 79.456 31.3828C79.38 31.3275 79.2976 31.2816 79.2105 31.2462C79.1846 31.2391 79.1667 31.216 79.1415 31.2067C78.9299 31.1329 78.7015 31.1217 78.4836 31.1743C78.4643 31.1787 78.4431 31.1765 78.4234 31.1819L78.4122 31.1788L69.1048 33.9483C68.5418 34.1137 68.1 34.5516 67.9297 35.1131C67.0402 37.4809 65.7472 39.6767 64.108 41.6031L64.1046 41.6155L59.8159 47.1298C58.7372 46.11 57.519 45.2489 56.1978 44.5723C57.7366 41.0571 58.9513 37.4088 59.8266 33.6727C62.6123 31.7373 64.5106 28.7703 65.1004 25.4299C66.2028 18.681 61.5825 12.3151 61.3843 12.0463C61.0864 11.642 60.5632 11.4737 60.0855 11.6284C59.6078 11.7832 59.2826 12.2263 59.2784 12.7284C59.2585 15.0633 58.1246 17.2208 52.5457 20.7631C50.1121 22.0899 48.7221 24.7563 49.0281 27.5111C49.145 28.5648 49.4459 29.5897 49.9172 30.5393C49.1664 32.2021 48.4995 33.7888 47.9107 35.351C46.9268 37.9322 46.1272 40.5799 45.5179 43.2741C44.3647 43.5418 43.245 43.9376 42.1797 44.4542L43.1496 19.6237C43.1561 19.6001 43.1383 19.577 43.1374 19.5538C43.1397 19.4738 43.1334 19.3937 43.1184 19.315L40.3806 7.48966C40.1066 6.30608 39.0743 5.45232 37.8603 5.40532C36.6464 5.35832 35.5511 6.12971 35.1865 7.28856L31.5433 18.8642C31.5203 18.9487 31.5066 19.0354 31.5023 19.1228C31.4974 19.1408 31.493 19.1565 31.4884 19.1734L30.5119 44.4583C29.6233 44.2553 28.716 44.1453 27.8046 44.1301L25.7546 27.6587C25.5749 26.3932 24.4198 25.5013 23.15 25.6477L12.726 26.9443C11.4492 27.1069 10.5433 28.2701 10.6984 29.5479L13.4848 51.8649C8.54806 50.7801 3.64552 53.8248 2.42941 58.7309C1.21331 63.6369 4.12619 68.6189 8.99805 69.9655L58.4886 83.5963C61.7162 84.4351 65.1461 83.4883 67.4864 81.1125C69.8266 78.7367 70.7216 75.2929 69.8342 72.0783C68.9468 68.8637 66.4119 66.3667 63.1843 65.5279ZM70.0568 36.0983L75.5823 34.4545L72.8028 38.026C72.4068 38.5345 72.498 39.2677 73.0064 39.6637C73.5149 40.0597 74.2481 39.9685 74.6441 39.4601L77.4236 35.8886L77.1822 41.6463C75.396 42.9092 73.7984 44.4196 72.4374 46.1323C71.115 46.3529 69.7606 46.0102 68.7022 45.1872C67.6438 44.3643 66.978 43.136 66.8661 41.8001C68.195 40.0606 69.2694 38.1408 70.0568 36.0983ZM65.0376 44.2164C65.5312 45.3311 66.3032 46.3001 67.2794 47.0302C68.0462 47.644 68.9275 48.0989 69.8719 48.3687C70.1 48.4306 70.3314 48.4794 70.565 48.5148L64.5904 56.1871C64.1683 53.5215 63.0719 51.0081 61.4053 48.8854L65.0376 44.2164ZM51.8406 31.9391L57.3964 33.8408C57.1419 34.9009 56.8303 35.9841 56.4915 37.0779C54.572 36.6939 52.7053 36.0815 50.9313 35.2536C50.7952 35.1944 50.6612 35.1405 50.5258 35.0827C50.9301 34.0541 51.3629 33.0188 51.8383 31.9385L51.8406 31.9391ZM53.7988 22.7334C57.6925 20.2614 59.9382 18.1536 60.9542 15.8704C62.4925 18.6702 63.1343 21.8747 62.793 25.0509C62.3004 27.7621 60.7572 30.1692 58.4991 31.7485C56.3144 31.0016 54.1541 30.2614 52.0182 29.5279C51.3249 28.3978 51.1227 27.0337 51.4584 25.7511C51.7941 24.4685 52.6385 23.3784 53.7966 22.7328L53.7988 22.7334ZM49.7037 37.268L50.0181 37.4006C51.4057 38.0239 52.8345 38.5512 54.2944 38.9789C54.76 39.1071 55.2607 39.2051 55.7627 39.3022C55.2617 40.7216 54.6777 42.1872 54.0348 43.691C53.761 43.5998 53.4963 43.4978 53.2173 43.421C51.5183 42.9563 49.7529 42.7823 47.9959 42.9062C48.4656 40.9981 49.0349 39.1159 49.7015 37.2674L49.7037 37.268ZM37.3808 48.025L37.9382 33.4309C37.9516 32.7948 37.4527 32.2652 36.8169 32.2406C36.1811 32.216 35.6429 32.7054 35.607 33.3406L35.1007 46.4749C34.3839 45.9715 33.6189 45.5407 32.8169 45.1888L33.6826 22.7619C34.2875 23.2672 34.9934 23.6374 35.753 23.8476C35.8238 23.8671 35.902 23.8778 35.9749 23.8942L35.8349 27.509C35.8111 27.93 36.0164 28.3311 36.3719 28.5581C36.7273 28.785 37.1776 28.8025 37.5496 28.6037C37.9215 28.4049 38.1572 28.0209 38.1661 27.5992L38.3056 23.9819C39.1618 23.8543 39.976 23.5272 40.6826 23.0272L39.7909 45.8692C38.9153 46.5027 38.1076 47.2251 37.3808 48.025ZM37.2308 21.7243C35.7155 21.6071 34.4087 20.6145 33.8894 19.1861L35.1233 15.2639C35.4945 15.4448 35.8813 15.5919 36.279 15.7032C36.6631 15.8108 37.0583 15.8737 37.4568 15.8909C38.2704 15.9006 39.0774 15.7431 39.8277 15.4282L40.759 19.4457C40.1339 20.834 38.7528 21.7267 37.2302 21.7266L37.2308 21.7243ZM37.769 7.73606C37.932 7.74277 38.0707 7.8571 38.1083 8.01584L39.2915 13.1398C38.7481 13.4135 38.1491 13.5591 37.5407 13.5652C36.9351 13.5122 36.3498 13.3208 35.83 13.0057L37.4093 7.98789C37.4587 7.83241 37.606 7.72924 37.769 7.73606ZM23.4415 27.9594L23.729 30.2725L19.0927 30.8494C18.5422 30.9207 18.1182 31.3699 18.0788 31.9236C18.0394 32.4772 18.3955 32.9819 18.9303 33.1305C19.0781 33.1709 19.2325 33.1822 19.3846 33.1637L24.0212 32.5856L24.3092 34.9012L21.9896 35.1905C21.4368 35.2592 21.0097 35.709 20.9698 36.2646C20.9299 36.8202 21.2882 37.3265 21.8255 37.4735C21.973 37.5136 22.1269 37.5248 22.2787 37.5064L24.5983 37.2171L24.8862 39.5327L20.2456 40.1121C19.6929 40.1808 19.2658 40.6306 19.2258 41.1862C19.1859 41.7418 19.5443 42.2481 20.0815 42.3951C20.229 42.4353 20.383 42.4465 20.5347 42.428L25.171 41.851L25.476 44.2984C21.35 44.9618 17.7613 47.4929 15.7515 51.1569L13.013 29.2548L23.4415 27.9594ZM59.1082 81.3467L9.61764 67.7159C5.89043 66.6894 3.70112 62.8357 4.72768 59.1085C5.75424 55.3812 9.60793 53.1919 13.3351 54.2185C13.9875 54.3958 14.6101 54.6684 15.1828 55.0275C15.492 55.2223 15.8746 55.2609 16.2165 55.1319C16.5584 55.0029 16.8201 54.7211 16.9236 54.3706C18.1076 50.384 21.4238 47.3958 25.5118 46.6317C29.5997 45.8676 33.7714 47.4562 36.3155 50.746C36.5408 51.0349 36.8888 51.2013 37.2552 51.1951C37.6215 51.189 37.9637 51.0111 38.1792 50.7147C41.9898 45.4634 49.012 43.6913 54.858 46.5057C60.704 49.32 63.6984 55.9145 61.9701 62.1682C61.6181 63.4552 61.0742 64.6818 60.3569 65.8068C60.1333 66.1567 60.1126 66.5991 60.3025 66.9684C60.4923 67.3377 60.8642 67.5782 61.2788 67.6C61.8019 67.6273 62.3205 67.7109 62.8257 67.8493C66.5529 68.8759 68.7422 72.7296 67.7156 76.4568C66.6891 80.184 62.8354 82.3733 59.1082 81.3467Z" fill="#FFFDFA" fill-opacity="0.9"/>
<path d="M57.2361 29.6435C57.5888 29.7421 57.9673 29.6694 58.2583 29.4471C60.186 27.9332 61.3904 25.6802 61.5783 23.2364C61.5916 22.8133 61.3748 22.4163 61.0116 22.1988C60.6485 21.9813 60.1961 21.9776 59.8294 22.189C59.4628 22.4005 59.2394 22.7939 59.2457 23.2171C59.061 24.9396 58.1944 26.5164 56.8393 27.5957C56.4898 27.8661 56.3231 28.3108 56.4087 28.7443C56.4943 29.1778 56.8174 29.5258 57.2435 29.6432L57.2361 29.6435Z" fill="#FFFDFA" fill-opacity="0.9"/>
<path d="M46.3703 63.3171C45.5332 63.0893 44.6553 63.0544 43.8028 63.215C42.5419 59.8889 38.9872 58.0373 35.5391 58.9104C32.0909 59.7835 29.8457 63.1037 30.3197 66.629C30.3822 67.0924 30.7153 67.4737 31.1661 67.5978C31.3176 67.6399 31.4761 67.6506 31.6318 67.6293C31.9385 67.588 32.2162 67.4265 32.4038 67.1804C32.5914 66.9343 32.6735 66.6238 32.6322 66.3171C32.5445 65.6789 32.5875 65.0296 32.7585 64.4085C33.4429 61.9237 36.012 60.4642 38.4968 61.1485C40.2444 61.6205 41.5553 63.0695 41.8504 64.8554C41.8646 64.8988 41.8812 64.9413 41.9 64.9828C41.9072 65.0263 41.9167 65.0693 41.9287 65.1117C41.9421 65.1421 41.9682 65.1614 41.9842 65.1912C42.0219 65.2605 42.0668 65.3256 42.1183 65.3854C42.1626 65.4442 42.2125 65.4984 42.2673 65.5475C42.3251 65.5929 42.387 65.6326 42.4524 65.6662C42.5166 65.7034 42.5844 65.7339 42.6549 65.7571C42.8013 65.7962 42.953 65.8118 43.1044 65.8034C43.1359 65.8062 43.1675 65.8072 43.1991 65.8065C43.2421 65.793 43.2842 65.7767 43.3251 65.7577C43.3705 65.7509 43.4155 65.7415 43.4599 65.7295C44.1823 65.4144 44.991 65.3569 45.7507 65.5666C47.0653 65.931 48.0484 67.0259 48.2696 68.372C48.3717 69.0083 48.9703 69.4414 49.6066 69.3393C50.2429 69.2372 50.6759 68.6386 50.5738 68.0023C50.2077 65.7537 48.5662 63.924 46.3703 63.3171Z" fill="#FFFDFA" fill-opacity="0.9"/>
<path d="M26.3805 49.4025C26.1955 49.4108 21.8431 49.6908 20.7037 53.8277C20.5326 54.4489 20.8975 55.0912 21.5187 55.2623C22.1399 55.4334 22.7821 55.0685 22.9532 54.4473C23.4772 52.9036 24.8835 51.8305 26.5108 51.7327C27.1555 51.6971 27.6493 51.1456 27.6137 50.5008C27.578 49.8561 27.0265 49.3623 26.3818 49.398L26.3805 49.4025Z" fill="#FFFDFA" fill-opacity="0.9"/>
<path d="M42.5446 52.5462C42.6276 52.5935 42.7164 52.6301 42.8086 52.6552C43.3242 52.7967 43.87 52.5695 44.133 52.104C45.2292 50.1462 47.5001 49.1643 49.6773 49.7066C50.2989 49.8762 50.9403 49.5097 51.1098 48.888C51.2794 48.2664 50.9129 47.625 50.2913 47.4555C47.0826 46.6174 43.7136 48.0579 42.1026 50.9566C41.7857 51.5176 41.9836 52.2293 42.5446 52.5462Z" fill="#FFFDFA" fill-opacity="0.9"/>
</g>
<defs>
<clipPath id="clip0">
<rect x="18.5875" width="70" height="70" transform="rotate(15.3988 18.5875 0)" fill="white"/>
</clipPath>
</defs>
</svg>
