<svg width="100" height="100" viewBox="0 0 100 100" fill="none" xmlns="http://www.w3.org/2000/svg">
<path d="M88.2984 58.9873C86.6992 58.9873 85.074 58.6668 83.489 58.0147C79.8822 56.5389 82.1777 51.117 85.7148 52.5959C90.1193 54.3987 94.1406 51.2961 94.1406 47.2657V44.336C94.1406 40.4741 100 40.4582 100 44.336V47.2657C100 53.7645 94.7193 58.9873 88.2984 58.9873Z" fill="#ED4298"/>
<path d="M88.2812 61.9141C88.2812 70.5857 84.8826 78.4375 79.1406 84.4139C77.4998 86.0547 76.5625 88.3398 76.5625 90.5664V95.0191C76.5625 97.7734 74.3359 100 71.5822 100H61.0352C58.2812 100 56.0547 98.1836 56.0547 94.1406H38.0859C38.0859 98.1836 35.8594 100 33.1057 100H22.5586C19.8047 100 17.5781 97.7734 17.5781 95.0193V88.1053C17.5781 86.992 16.875 86.1719 16.4062 85.7617C13.301 82.8902 10.6643 79.3748 8.90645 75.566C4.27715 72.3436 0 70.293 0 64.7264V56.0547C0 51.4256 3.51543 47.2656 9.3748 47.2656C10.8396 44.3945 12.6561 41.8748 14.7656 39.6484L11.7773 27.4609C11.3672 25.5859 12.7734 23.8281 14.6484 23.8281H23.4375C27.6561 23.8281 31.6408 25.6445 34.3945 28.7498C34.9221 29.3359 35.6838 29.6875 36.5039 29.6875H56.0547C73.8088 29.6875 88.2812 44.16 88.2812 61.9141Z" fill="#FF7C9F"/>
<path d="M20.5078 56.0547C22.1258 56.0547 23.4375 54.743 23.4375 53.125C23.4375 51.507 22.1258 50.1953 20.5078 50.1953C18.8898 50.1953 17.5781 51.507 17.5781 53.125C17.5781 54.743 18.8898 56.0547 20.5078 56.0547Z" fill="#495A79"/>
<path d="M53.125 0C46.6799 0 41.4062 5.27324 41.4062 11.7188C41.4062 18.1639 46.6799 23.4375 53.125 23.4375C59.5701 23.4375 64.8438 18.1639 64.8438 11.7188C64.8438 5.27324 59.5701 0 53.125 0Z" fill="#FFDC27"/>
<path d="M58.9844 44.3359C58.9844 45.9764 57.6955 47.2656 56.0547 47.2656H42.7537C41.1133 47.2656 39.824 45.9764 39.824 44.3359C39.824 42.6951 41.1133 41.4062 42.7537 41.4062H56.0547C57.6955 41.4062 58.9844 42.6951 58.9844 44.3359Z" fill="#495A79"/>
<path d="M58.9844 44.3359C58.9844 45.9764 57.6955 47.2656 56.0547 47.2656H53.125V41.4062H56.0547C57.6955 41.4062 58.9844 42.6951 58.9844 44.3359Z" fill="#42516D"/>
</svg>
