<svg width="100" height="100" viewBox="0 0 100 100" fill="none" xmlns="http://www.w3.org/2000/svg">
<g clip-path="url(#clip0)">
<path d="M65.5037 24.4116L5.15679 84.7281C1.66711 88.2124 1.66711 93.8856 5.15451 97.373L5.1751 97.3936C6.86654 99.0744 9.10958 99.9998 11.4991 99.9998C13.8978 100.001 16.1507 99.069 17.8468 97.3761L78.1723 37.081L65.5037 24.4116Z" fill="#24C467"/>
<path d="M95.9076 43.9698L89.2914 37.3582C92.1929 33.9097 92.0205 28.7514 88.7741 25.5059L82.9186 19.6503L72.8035 9.53757C72.8035 9.53757 58.6991 -5.63883 35.4966 2.29651C33.5656 2.95721 32.3861 4.90652 32.7149 6.92068C32.7217 6.95807 32.7279 6.99393 32.7317 7.03131C33.0742 9.12787 34.9389 10.6438 37.0598 10.5256C40.5297 10.3295 46.1075 10.5683 52.3331 12.9738C58.1147 15.2054 59.7191 22.622 55.3376 27.0043C55.3376 27.0043 50.0534 31.1417 55.3376 36.4236L66.5963 47.6823C69.8403 50.9263 74.9916 51.1002 78.4417 48.2056L85.0594 54.818C86.8699 56.6285 89.8064 56.6285 91.6169 54.818L95.9084 50.5273C97.7188 48.7168 97.7188 45.7802 95.9076 43.9698Z" fill="#EBEAF0"/>
</g>
<defs>
<clipPath id="clip0">
<rect width="100" height="100" fill="white"/>
</clipPath>
</defs>
</svg>
