<svg width="100" height="100" viewBox="0 0 100 100" fill="none" xmlns="http://www.w3.org/2000/svg">
<path fill-rule="evenodd" clip-rule="evenodd" d="M33.0223 23.4375H90.4442C92.0624 23.4375 93.3738 24.749 93.3738 26.3672V97.0703C93.3738 98.6885 92.0624 100 90.4442 100H33.0223C31.4041 100 30.0926 98.6885 30.0926 97.0703V26.3672C30.0926 24.749 31.4041 23.4375 33.0223 23.4375Z" fill="#69B1E9"/>
<path fill-rule="evenodd" clip-rule="evenodd" d="M21.2891 11.7188H78.7109C80.3291 11.7188 81.6406 13.0302 81.6406 14.6484V85.3516C81.6406 86.9698 80.3291 88.2812 78.7109 88.2812H21.2891C19.6709 88.2812 18.3594 86.9698 18.3594 85.3516V14.6484C18.3594 13.0302 19.6709 11.7188 21.2891 11.7188Z" fill="#96C8EF"/>
<path fill-rule="evenodd" clip-rule="evenodd" d="M9.57031 0H50.1953C51.0132 0 51.7532 0.335693 52.285 0.876617L69.0636 17.6552C69.6358 18.2274 69.9211 18.9766 69.9211 19.7266L69.9219 73.6328C69.9219 75.2502 68.6104 76.5625 66.9922 76.5625H9.57031C7.95212 76.5625 6.64062 75.2502 6.64062 73.6328V2.92969C6.64062 1.31149 7.95212 0 9.57031 0Z" fill="#DFF3FF"/>
<path fill-rule="evenodd" clip-rule="evenodd" d="M21.2891 17.5781C19.6709 17.5781 18.3594 16.2666 18.3594 14.6484C18.3594 13.031 19.6709 11.7188 21.2891 11.7188H33.0162C34.6344 11.7188 35.9459 13.031 35.9459 14.6484C35.9459 16.2666 34.6344 17.5781 33.0162 17.5781H21.2891Z" fill="#0095FF"/>
<path fill-rule="evenodd" clip-rule="evenodd" d="M21.2891 29.2969C19.6709 29.2969 18.3594 27.9854 18.3594 26.3672C18.3594 24.7498 19.6709 23.4375 21.2891 23.4375H32.9895C34.6077 23.4375 35.9192 24.7498 35.9192 26.3672C35.9192 27.9854 34.6077 29.2969 32.9895 29.2969H21.2891Z" fill="#0095FF"/>
<path fill-rule="evenodd" clip-rule="evenodd" d="M21.2891 41.0156C19.6709 41.0156 18.3594 39.7041 18.3594 38.0859C18.3594 36.4685 19.6709 35.1562 21.2891 35.1562H52.2461C53.8643 35.1562 55.1758 36.4685 55.1758 38.0859C55.1758 39.7041 53.8643 41.0156 52.2461 41.0156H21.2891Z" fill="#0095FF"/>
<path fill-rule="evenodd" clip-rule="evenodd" d="M21.2891 52.7344C19.6709 52.7344 18.3594 51.4229 18.3594 49.8047C18.3594 48.1873 19.6709 46.875 21.2891 46.875H52.2461C53.8643 46.875 55.1758 48.1873 55.1758 49.8047C55.1758 51.4229 53.8643 52.7344 52.2461 52.7344H21.2891Z" fill="#0095FF"/>
<path fill-rule="evenodd" clip-rule="evenodd" d="M21.2891 64.4531C19.6709 64.4531 18.3594 63.1416 18.3594 61.5234C18.3594 59.906 19.6709 58.5938 21.2891 58.5938H52.2461C53.8643 58.5938 55.1758 59.906 55.1758 61.5234C55.1758 63.1416 53.8643 64.4531 52.2461 64.4531H21.2891Z" fill="#0095FF"/>
<path fill-rule="evenodd" clip-rule="evenodd" d="M52.2667 0.858307L69.1429 17.5392C69.6838 18.071 70.0195 18.8103 70.0195 19.6289C70.0195 21.2463 68.6104 22.6562 66.9922 22.6562H50.1953C48.5771 22.6562 47.2656 21.344 47.2656 19.7266V2.92969C47.2664 2.17972 47.5517 1.43051 48.1239 0.858307C49.2683 -0.286102 51.123 -0.286102 52.2667 0.858307Z" fill="#69B1E9"/>
</svg>
