<svg width="98" height="98" viewBox="0 0 98 98" fill="none" xmlns="http://www.w3.org/2000/svg">
<g clip-path="url(#clip0)">
<path d="M23.9805 96.921L82.7706 81.3234C84.1721 80.9511 85.2114 79.7712 85.4038 78.3338C85.5961 76.8965 84.9038 75.4848 83.6495 74.7571L9.26436 31.564C8.01404 30.819 6.43451 30.9186 5.2877 31.8148C4.12168 32.6854 3.60958 34.1825 3.99805 35.5849L19.5957 94.375C20.106 96.2869 22.067 97.4256 23.9805 96.921ZM6.90546 33.9348C7.00578 33.8588 7.11951 33.8025 7.24072 33.7686C7.47172 33.7078 7.71758 33.7449 7.92039 33.8711L82.3197 77.0604C82.6417 77.2482 82.8186 77.6118 82.7676 77.9811C82.7166 78.3505 82.4477 78.6525 82.0868 78.7459L76.5361 80.2185L75.8523 77.641C75.6634 76.9293 74.9334 76.5053 74.2216 76.6942C73.5099 76.883 73.086 77.6131 73.2748 78.3248L73.9586 80.9023L68.8036 82.27L68.1198 79.6925C67.931 78.9808 67.2009 78.5569 66.4891 78.7457C65.7774 78.9345 65.3535 79.6646 65.5423 80.3764L66.2261 82.9539L61.0712 84.3215L60.3873 81.744C60.1985 81.0323 59.4684 80.6084 58.7567 80.7972C58.0449 80.986 57.621 81.7161 57.8098 82.4279L58.4937 85.0054L53.3387 86.373L52.6548 83.7955C52.466 83.0838 51.7359 82.6599 51.0242 82.8487C50.3124 83.0375 49.8885 83.7676 50.0773 84.4794L50.7612 87.0569L45.6062 88.4245L44.9224 85.847C44.7335 85.1353 44.0034 84.7114 43.2917 84.9002C42.5799 85.0891 42.156 85.8191 42.3449 86.5309L43.0287 89.1084L37.8737 90.476L37.1899 87.8986C37.001 87.1868 36.271 86.7629 35.5592 86.9517C34.8474 87.1406 34.4235 87.8706 34.6124 88.5824L35.2962 91.1599L30.1412 92.5276L29.4574 89.9501C29.2686 89.2383 28.5385 88.8144 27.8267 89.0032C27.115 89.1921 26.6911 89.9221 26.8799 90.6339L27.5637 93.2114L23.2967 94.3435C22.8064 94.4728 22.3039 94.181 22.1732 93.6911L21.0411 89.4241L23.6186 88.7402C24.3303 88.5514 24.7542 87.8213 24.5654 87.1096C24.3766 86.3978 23.6465 85.9739 22.9347 86.1627L20.3572 86.8466L18.9896 81.6916L21.5671 81.0078C22.2788 80.8189 22.7027 80.0889 22.5139 79.3771C22.325 78.6653 21.595 78.2414 20.8832 78.4303L18.3057 79.1141L16.9381 73.9591L19.5155 73.2753C20.2273 73.0864 20.6512 72.3564 20.4624 71.6446C20.2735 70.9329 19.5435 70.509 18.8317 70.6978L16.2542 71.3816L14.8865 66.2266L17.464 65.5428C18.1758 65.354 18.5997 64.6239 18.4109 63.9121C18.222 63.2004 17.492 62.7765 16.7802 62.9653L14.2027 63.6491L12.835 58.4942L15.4125 57.8103C16.1243 57.6215 16.5482 56.8914 16.3594 56.1797C16.1705 55.4679 15.4405 55.044 14.7287 55.2328L12.1512 55.9167L10.7835 50.7617L13.361 50.0778C14.0728 49.889 14.4967 49.1589 14.3079 48.4472C14.119 47.7354 13.3889 47.3115 12.6772 47.5003L10.0997 48.1842L8.73202 43.0292L11.3095 42.3454C12.0213 42.1565 12.4452 41.4264 12.2563 40.7147C12.0675 40.0029 11.3374 39.579 10.6257 39.7679L8.04818 40.4517L6.57554 34.9011C6.47084 34.5416 6.60281 34.1552 6.90546 33.9348Z" fill="#FFFDFA" fill-opacity="0.9"/>
<path d="M29.6701 85.7549L61.9275 77.1967C62.9499 76.926 63.7084 76.0658 63.8489 75.0176C63.9895 73.9693 63.4843 72.9397 62.5693 72.4093L21.7537 48.7102C20.8395 48.1784 19.6949 48.2501 18.8541 48.8918C18.0134 49.5335 17.6423 50.6187 17.9142 51.6408L26.4724 83.8981C26.8446 85.2924 28.2747 86.1228 29.6701 85.7549ZM61.2436 74.6192L29.0365 83.164L20.4149 51.0159L61.2436 74.6192Z" fill="#FFFDFA" fill-opacity="0.9"/>
<path d="M79.4305 23.0565C79.4147 23.0386 79.3999 23.0191 79.3844 23.0025C73.4674 16.0675 65.3678 11.3511 56.416 9.6279L56.3051 9.61041C40.7023 6.67025 24.8382 13.2413 15.8842 26.3531C15.2673 27.275 15.0594 28.4112 15.3098 29.4919C15.5602 30.5726 16.2466 31.5015 17.2061 32.0582L79.2856 68.104C80.2095 68.6378 81.3072 68.784 82.3386 68.5107L82.4675 68.4765C83.5283 68.1556 84.409 67.4101 84.9007 66.417C91.8262 52.1562 89.681 35.1517 79.4308 23.0577L79.4305 23.0565ZM86.2439 49.1429C86.2298 54.7231 84.9514 60.2275 82.5048 65.2427C82.3427 65.5723 82.0497 65.8186 81.6973 65.9219C81.3371 66.0327 80.9468 65.9859 80.623 65.7931L18.5436 29.7473C18.2163 29.5609 17.9824 29.2455 17.8991 28.8782C17.8172 28.526 17.8854 28.1557 18.0872 27.8557C23.1257 20.4761 30.6472 15.1517 39.2818 12.8522C40.4701 12.537 41.6773 12.2797 42.9037 12.0803C47.1924 11.3636 51.5745 11.4155 55.845 12.2334C55.8826 12.24 55.9215 12.2462 55.961 12.2496C64.3007 13.868 71.8443 18.2689 77.3575 24.7321L77.395 24.7746C80.1909 28.063 82.3895 31.8155 83.8915 35.862C85.4878 40.1061 86.2854 44.6087 86.2439 49.1429Z" fill="#FFFDFA" fill-opacity="0.9"/>
<path d="M75.2268 26.3666L75.224 26.3563L75.2233 26.3537L75.2213 26.346C75.212 26.3338 75.202 26.3222 75.1914 26.3111C75.165 26.2795 75.1416 26.2485 75.1144 26.2184C72.6117 23.3228 69.6434 20.8649 66.3318 18.9461C63.0575 17.0437 59.4931 15.6919 55.7808 14.9447C55.7347 14.9321 55.69 14.9301 55.6369 14.9222L55.5951 14.9153L55.5604 14.9093C55.5289 14.9053 55.4958 14.8948 55.4676 14.8926C47.5375 13.3654 39.323 14.6596 32.2466 18.551C28.8525 20.3963 25.7956 22.8034 23.2059 25.6701C22.6683 26.2559 22.4268 27.0547 22.5498 27.8403C22.6712 28.6399 23.1491 29.3413 23.8488 29.7469L46.3194 42.7942L55.5257 48.1332L78.6812 61.5782C79.1407 61.8459 79.688 61.9197 80.2019 61.783C80.2625 61.767 80.3231 61.7509 80.3826 61.7255C80.9421 61.5217 81.3811 61.0783 81.5793 60.5168C82.9608 56.6283 83.629 52.5223 83.5518 48.3964C83.4805 44.2511 82.6785 40.1509 81.1825 36.2843C79.7711 32.666 77.7574 29.3127 75.2268 26.3666ZM58.4115 43.89L58.4084 43.8784L79.0876 38.3919C80.0352 41.1361 80.6113 43.9946 80.8006 46.8916L58.4115 43.89ZM72.1359 26.9507L56.227 39.0827L56.1913 39.0522L66.1034 21.9643C68.313 23.3702 70.3393 25.0452 72.1359 26.9507ZM73.9256 29.0169C75.5999 31.1252 77.001 33.4366 78.0958 35.8962L57.9617 41.238L73.9256 29.0169ZM53.9587 37.5836L56.5953 17.8848C59.1007 18.5014 61.5217 19.4206 63.8051 20.6221L53.9587 37.5836ZM51.206 37.3731L51.1252 37.3753L45.7516 17.1213C48.4655 16.8481 51.2033 16.9252 53.8975 17.3507L51.206 37.3731ZM49.2071 40.9659C49.5979 40.6258 50.0564 40.3726 50.5522 40.2228C50.6141 40.2057 50.675 40.1854 50.7347 40.1619C51.1732 40.0433 51.6289 40.0017 52.0816 40.0391L52.1254 40.0482C52.14 40.0512 52.1558 40.0484 52.1704 40.0514L52.1873 40.0579C52.1962 40.0549 52.2052 40.0525 52.2144 40.0508C52.2361 40.0547 52.2521 40.0683 52.2748 40.0706L52.2812 40.0689C52.8021 40.1335 53.3052 40.3 53.7618 40.5589C54.2233 40.8307 54.6247 41.1935 54.9414 41.6254C54.9735 41.6778 55.0093 41.7278 55.0486 41.7749L55.0514 41.7853C55.0654 41.8073 55.0807 41.8286 55.0972 41.849C55.331 42.2062 55.5071 42.598 55.6191 43.01C55.6249 43.0655 55.634 43.1207 55.6463 43.1751C55.7684 43.7152 55.7706 44.2754 55.6528 44.8164C55.6369 44.9075 55.5971 44.9967 55.5745 45.0882L48.9247 41.227C49.014 41.1344 49.1088 41.047 49.2084 40.9655L49.2071 40.9659ZM43.0937 17.4968L48.5404 38.0266L34.9255 20.1991C37.5134 18.9328 40.2612 18.0238 43.0937 17.4968ZM32.5451 21.4749L46.568 39.8369L46.5611 39.847L25.1766 27.462C27.3171 25.1071 29.8017 23.0899 32.5461 21.4788L32.5451 21.4749ZM79.3335 58.8738L58.081 46.5338L80.8739 49.591C80.8272 52.7461 80.3083 55.8763 79.3346 58.8777L79.3335 58.8738Z" fill="#FFFDFA" fill-opacity="0.9"/>
</g>
<defs>
<clipPath id="clip0">
<rect y="20.5151" width="80" height="80" transform="rotate(-14.8588 0 20.5151)" fill="white"/>
</clipPath>
</defs>
</svg>
