<svg width="39" height="38" viewBox="0 0 39 38" fill="none" xmlns="http://www.w3.org/2000/svg">
<g clip-path="url(#clip0)">
<path d="M34.5949 32.5602H26.6104C28.6445 31.7592 30.1999 30.6199 31.3858 29.24C36.2249 28.5158 38.3931 24.5709 38.3931 20.94C38.3931 18.3624 36.9371 16.2103 35.0527 15.834C35.0529 15.8145 35.0531 15.795 35.0533 15.7755C35.0533 15.4527 34.9222 15.1299 34.6603 14.8717C34.3984 14.6135 34.0709 14.4843 33.7435 14.4843H3.61992C3.29248 14.4843 2.96503 14.6135 2.70309 14.8717C2.44115 15.1299 2.31014 15.4527 2.31014 15.7755C2.3608 22.7185 3.58765 29.7388 10.753 32.5602H2.70309C1.78625 32.5602 1.00043 33.2703 1.00043 34.2387C1.00043 35.0134 1.52431 35.5944 2.44115 35.7881L10.7579 36.3691C10.9543 36.3691 11.1508 36.4982 11.2162 36.6919C11.5437 37.3375 12.1985 37.7248 12.9189 37.7248H23.7896C24.5099 37.7248 25.1648 37.3374 25.4268 36.6919C25.4923 36.4982 25.6887 36.3691 25.8851 36.3691L34.7912 35.7881H34.8567C35.7736 35.5944 36.2975 35.0134 36.2975 34.2387C36.2975 33.3348 35.5771 32.5602 34.5949 32.5602ZM35.0533 17.1957C36.1665 17.5831 37.0179 19.1324 37.0179 20.94C37.0179 23.4557 35.8408 26.487 32.5724 27.5866C32.6272 27.495 32.6807 27.4026 32.7332 27.3095C34.5519 24.1995 34.9261 20.4543 35.0533 17.1957ZM3.61992 15.7754H33.7435C33.678 24.4906 31.7789 32.5602 18.6818 32.5602C5.5846 32.5602 3.68543 24.4906 3.61992 15.7754ZM34.7258 34.4969L25.9506 35.0779C25.2958 35.1425 24.7064 35.5298 24.379 36.1108C24.248 36.3044 24.0515 36.4336 23.8551 36.4336H12.919C12.7225 36.4336 12.526 36.3044 12.3951 36.1108C12.0676 35.5298 11.4783 35.1425 10.8234 35.0779L2.63766 34.4969C2.31021 34.4323 2.31021 34.3032 2.31021 34.2387C2.31021 34.045 2.50665 33.8513 2.70316 33.8513H34.6603C34.8567 33.8513 35.0533 34.0449 35.0533 34.2387C35.0533 34.3032 35.0533 34.4323 34.7258 34.4969Z" fill="white"/>
<path d="M18.2229 5.64008C17.2407 6.6084 16.7168 7.57679 16.7168 8.60969C16.7168 9.64259 17.2407 10.6755 18.2229 11.7084C18.354 11.8375 18.4849 11.902 18.6813 11.902C18.8778 11.902 19.0088 11.8375 19.1397 11.7084C19.4017 11.4502 19.4017 11.0628 19.1397 10.8046C18.4194 10.0299 18.0264 9.31979 18.0264 8.60962C18.0264 7.89945 18.4194 7.18935 19.1397 6.54382C20.1221 5.64008 20.6459 4.60718 20.6459 3.57428C20.6459 2.54138 20.1876 1.44391 19.1398 0.47559C18.8778 0.217365 18.4849 0.217365 18.2229 0.47559C17.961 0.733814 17.961 1.12119 18.2229 1.37941C18.9433 2.15408 19.3362 2.86418 19.3362 3.57435C19.3362 4.28453 18.9433 4.99448 18.2229 5.64008Z" fill="white"/>
<path d="M23.9205 8.60968C23.9205 9.64257 24.4444 10.6755 25.4267 11.7084C25.5577 11.8375 25.6886 11.902 25.8851 11.902C26.0161 11.902 26.2125 11.8374 26.278 11.7084C26.54 11.4501 26.54 11.0628 26.278 10.8045C25.5577 10.0299 25.1647 9.31977 25.1647 8.6096C25.1647 7.89943 25.5577 7.18933 26.278 6.54381C27.3258 5.63999 27.8497 4.60709 27.8497 3.57419C27.8497 2.47672 27.3913 1.44382 26.3435 0.475498C26.0816 0.217274 25.6886 0.217274 25.4267 0.475498C25.1647 0.733722 25.1647 1.1211 25.4267 1.37932C26.147 2.15399 26.54 2.86409 26.54 3.57426C26.54 4.28444 26.147 4.92996 25.4267 5.64006C24.4444 6.60838 23.9205 7.57678 23.9205 8.60968Z" fill="white"/>
<path d="M10.1685 8.60968C10.1685 9.64257 10.6923 10.6755 11.6746 11.7084C11.8056 11.8375 11.9365 11.902 12.133 11.902C12.264 11.902 12.4604 11.8374 12.5259 11.7084C12.7879 11.4501 12.7879 11.0628 12.5259 10.8045C11.8056 10.0299 11.4127 9.31977 11.4127 8.6096C11.4127 7.89943 11.8056 7.18933 12.5259 6.54381C13.5737 5.63999 14.0976 4.60709 14.0976 3.57419C14.0976 2.47672 13.6392 1.44382 12.5914 0.475498C12.3295 0.217274 11.9365 0.217274 11.6746 0.475498C11.4127 0.733722 11.4127 1.1211 11.6746 1.37932C12.3949 2.15399 12.7879 2.86409 12.7879 3.57426C12.7879 4.28444 12.3949 4.92996 11.6746 5.64006C10.6923 6.60838 10.1685 7.57678 10.1685 8.60968Z" fill="white"/>
<path d="M14.883 29.3323C10.2334 28.5577 7.87595 25.9754 6.89361 20.8109C6.8281 20.4881 6.43523 20.2298 6.10778 20.2944C5.78034 20.359 5.51839 20.7463 5.5839 21.0691C6.63167 26.8146 9.4476 29.7197 14.621 30.6235C14.6865 30.6235 14.6865 30.6235 14.752 30.6235C15.0795 30.6235 15.3414 30.4298 15.4069 30.107C15.4723 29.7197 15.2104 29.3969 14.883 29.3323Z" fill="white"/>
</g>
<defs>
<clipPath id="clip0">
<rect x="0.705322" y="0.28186" width="37.982" height="37.4429" fill="white"/>
</clipPath>
</defs>
</svg>
