<svg width="49" height="64" viewBox="0 0 49 64" fill="none" xmlns="http://www.w3.org/2000/svg">
<path d="M24.5007 63.9999C15.7075 63.9999 7.1507 60.8817 0.40752 55.2181C0.10752 54.9681 -0.040208 54.5795 0.0120647 54.1908C0.0643374 53.8022 0.31661 53.4704 0.671155 53.3113C1.60979 52.8908 2.64161 52.4681 3.79843 52.0477C9.77797 49.8704 12.728 47.9567 13.9962 45.3136C2.81888 42.5295 1.5007 35.634 1.44843 35.3295C1.37343 34.8817 1.56888 34.4317 1.94843 34.184C2.17343 34.0363 7.5257 30.3681 7.5257 20.9772C7.5257 10.7658 9.54388 0.329468 24.5007 0.329468C39.4575 0.329468 41.4757 10.7681 41.4757 20.9772C41.4757 30.3681 46.828 34.0363 47.0575 34.1886C47.4302 34.4363 47.628 34.8886 47.553 35.3295C47.5007 35.6317 46.1802 42.5295 35.0052 45.3136C36.2757 47.9567 39.2234 49.8681 45.2007 52.0477C46.3575 52.4681 47.3916 52.8908 48.328 53.3136C48.6848 53.4749 48.9348 53.8067 48.9871 54.1931C49.0393 54.5795 48.8916 54.9681 48.5916 55.2204C41.853 60.8817 33.2962 63.9999 24.5007 63.9999ZM3.34388 54.6522C9.42797 59.2272 16.8712 61.7272 24.5007 61.7272C32.1325 61.7272 39.5757 59.2272 45.6575 54.6522C45.2643 54.4954 44.853 54.3408 44.4257 54.184C36.8348 51.4181 33.5734 48.8795 32.3893 44.8136C32.3007 44.509 32.3439 44.1817 32.5075 43.9113C32.6712 43.6386 32.9416 43.4477 33.2507 43.384C42.0825 41.5613 44.5121 37.2045 45.1257 35.5658C43.4257 34.134 39.2052 29.6977 39.2052 20.9795C39.2052 9.94992 36.7052 2.60447 24.503 2.60447C12.3007 2.60447 9.8007 9.94992 9.8007 20.9795C9.8007 29.6977 5.57797 34.134 3.88025 35.5658C4.48934 37.1954 6.91434 41.559 15.753 43.3817C16.0643 43.4454 16.3348 43.6363 16.4984 43.9067C16.6598 44.1795 16.7052 44.5067 16.6166 44.809C15.4348 48.8749 12.1734 51.4158 4.58025 54.1817C4.14843 54.3408 3.73934 54.4954 3.34388 54.6522Z" fill="#868686" fill-opacity="0.3"/>
</svg>
