<svg width="30" height="30" viewBox="0 0 30 30" fill="none" xmlns="http://www.w3.org/2000/svg">
<path d="M20.001 6.91333H10.0793C8.35584 6.91333 6.95416 8.31501 6.95416 10.0385V13.3405V19.9612C6.95416 21.6848 8.35584 23.0864 10.0793 23.0864H20.001C21.7245 23.0864 23.1272 21.6848 23.1272 19.9612V13.3405V10.0385C23.1272 8.31501 21.7245 6.91333 20.001 6.91333ZM20.8981 8.77812L21.2549 8.77591V9.13282V11.5168L18.5239 11.5259L18.5141 8.78509L20.8981 8.77812ZM12.7328 13.3405C13.2509 12.6235 14.0908 12.1539 15.0407 12.1539C15.9906 12.1539 16.8305 12.6235 17.3486 13.3405C17.6855 13.8079 17.8877 14.381 17.8877 14.9999C17.8877 16.5687 16.6095 17.8458 15.0407 17.8458C13.4709 17.8458 12.1937 16.5687 12.1937 14.9999C12.1937 14.381 12.3959 13.8079 12.7328 13.3405ZM21.552 19.9612C21.552 20.8163 20.856 21.5112 20.001 21.5112H10.0793C9.22434 21.5112 8.5294 20.8163 8.5294 19.9612V13.3405H10.9435C10.7349 13.8532 10.6184 14.4133 10.6184 14.9999C10.6184 17.4382 12.6024 19.4221 15.0407 19.4221C17.4791 19.4221 19.463 17.4382 19.463 14.9999C19.463 14.4133 19.3449 13.8532 19.1368 13.3405H21.552V19.9612Z" fill="#2E373C"/>
<path d="M19.493 6.91333H9.57125C7.84779 6.91333 6.44611 8.31501 6.44611 10.0385V13.3405V19.9612C6.44611 21.6848 7.84779 23.0864 9.57125 23.0864H19.493C21.2165 23.0864 22.6192 21.6848 22.6192 19.9612V13.3405V10.0385C22.6192 8.31501 21.2165 6.91333 19.493 6.91333ZM20.39 8.77812L20.7469 8.77591V9.13282V11.5168L18.0158 11.5259L18.0061 8.78509L20.39 8.77812ZM12.2247 13.3405C12.7429 12.6235 13.5827 12.1539 14.5327 12.1539C15.4826 12.1539 16.3225 12.6235 16.8406 13.3405C17.1775 13.8079 17.3797 14.381 17.3797 14.9999C17.3797 16.5687 16.1015 17.8458 14.5327 17.8458C12.9628 17.8458 11.6857 16.5687 11.6857 14.9999C11.6857 14.381 11.8878 13.8079 12.2247 13.3405ZM21.0439 19.9612C21.0439 20.8163 20.348 21.5112 19.493 21.5112H9.57125C8.71628 21.5112 8.02134 20.8163 8.02134 19.9612V13.3405H10.4354C10.2269 13.8532 10.1103 14.4133 10.1103 14.9999C10.1103 17.4382 12.0943 19.4221 14.5327 19.4221C16.971 19.4221 18.9549 17.4382 18.9549 14.9999C18.9549 14.4133 18.8368 13.8532 18.6287 13.3405H21.0439V19.9612Z" fill="white"/>
</svg>
