<svg width="39" height="38" viewBox="0 0 39 38" fill="none" xmlns="http://www.w3.org/2000/svg">
<g clip-path="url(#clip0)">
<path d="M13.4627 15.5481C13.4627 15.038 13.0393 14.6205 12.5218 14.6205H4.9787C4.4612 14.6205 4.03778 15.038 4.03778 15.5481C4.03778 16.0583 4.4612 16.4757 4.9787 16.4757H12.5218C13.0393 16.4757 13.4627 16.0583 13.4627 15.5481Z" fill="white"/>
<path d="M34.0692 14.6205H26.5261C26.0086 14.6205 25.5852 15.038 25.5852 15.5481C25.5852 16.0583 26.0086 16.4757 26.5261 16.4757H34.0692C34.5867 16.4757 35.0101 16.0583 35.0101 15.5481C35.0101 15.038 34.5946 14.6205 34.0692 14.6205Z" fill="white"/>
<path d="M19.5244 9.57302C20.0422 9.57302 20.4658 9.15561 20.4658 8.64545V1.20943C20.4658 0.699267 20.0422 0.28186 19.5244 0.28186C19.0066 0.28186 18.583 0.699267 18.583 1.20943V8.64545C18.583 9.15561 19.0066 9.57302 19.5244 9.57302Z" fill="white"/>
<path d="M24.4714 11.5982C24.7145 11.5982 24.9498 11.5054 25.1379 11.3276L30.4777 6.06367C30.8462 5.70037 30.8462 5.11291 30.4777 4.74962C30.1092 4.38632 29.5132 4.38632 29.1447 4.74962L23.805 10.0136C23.4364 10.3769 23.4364 10.9643 23.805 11.3276C23.9931 11.5054 24.2362 11.5982 24.4714 11.5982Z" fill="white"/>
<path d="M13.9095 11.3276C14.0898 11.5054 14.3329 11.5982 14.576 11.5982C14.819 11.5982 15.0543 11.5054 15.2424 11.3276C15.611 10.9643 15.611 10.3769 15.2424 10.0136L9.90271 4.74962C9.53418 4.38632 8.93826 4.38632 8.56973 4.74962C8.2012 5.11291 8.2012 5.70037 8.56973 6.06367L13.9095 11.3276Z" fill="white"/>
<path d="M30.8312 21.3995C30.1177 20.7966 29.216 20.4642 28.2986 20.4642H27.4439H24.3702H22.9118V16.7153C22.9118 14.922 22.3708 13.6156 21.2966 12.8349C19.6029 11.6136 17.3055 12.3016 17.2035 12.3325C16.8115 12.4562 16.5449 12.8117 16.5449 13.2137V17.7356C16.5449 19.1115 15.8784 20.2787 14.5533 21.214C13.5496 21.9251 12.5224 22.2497 12.3891 22.2884L12.295 22.3116C11.9422 21.9174 11.4247 21.67 10.8445 21.67H7.26895C6.20257 21.67 5.33221 22.528 5.33221 23.5793V35.143C5.33221 36.1942 6.20257 37.0522 7.26895 37.0522H10.8601C11.3306 37.0522 11.7697 36.8821 12.099 36.6039C12.8204 37.2996 13.8005 37.7247 14.8591 37.7247H18.4267H18.7953H26.0953C27.2244 37.7247 28.2202 37.4541 28.9808 36.9517C29.953 36.3024 30.5568 35.2744 30.7293 33.9603L32.1799 25.0711C32.4073 23.6952 31.8898 22.2884 30.8312 21.3995ZM10.915 35.143C10.915 35.1739 10.8915 35.1971 10.8601 35.1971H7.26895C7.23758 35.1971 7.21406 35.1739 7.21406 35.143V23.5793C7.21406 23.5483 7.23758 23.5252 7.26895 23.5252H10.8601C10.8915 23.5252 10.915 23.5483 10.915 23.5793V35.143V35.143ZM30.3216 24.7851L28.871 33.6898C28.871 33.6975 28.871 33.713 28.8631 33.7284C28.8004 34.2618 28.5966 35.8773 26.0953 35.8773H18.7953H18.4267H14.8591C13.8554 35.8773 12.9772 35.1352 12.8204 34.1536C12.8126 34.1149 12.8047 34.0763 12.7969 34.0453V24.1049L12.8518 24.0894C12.8674 24.0894 12.8753 24.0817 12.891 24.0817C12.9459 24.0662 14.2788 23.6952 15.604 22.7599C17.4466 21.469 18.4267 19.7299 18.4267 17.7356V13.9789C18.9442 13.9248 19.6578 13.948 20.1831 14.3268C20.7477 14.7364 21.03 15.5403 21.03 16.7075V21.384C21.03 21.8942 21.4534 22.3116 21.9709 22.3116H24.3702H27.4439H28.2986C28.7691 22.3116 29.2317 22.4894 29.608 22.7986C30.1726 23.2778 30.4392 24.0353 30.3216 24.7851Z" fill="white"/>
</g>
<defs>
<clipPath id="clip0">
<rect x="0.533081" y="0.28186" width="37.982" height="37.4429" fill="white"/>
</clipPath>
</defs>
</svg>
