<svg width="24" height="19" viewBox="0 0 24 19" fill="none" xmlns="http://www.w3.org/2000/svg">
<path d="M0.974517 16.2383C2.97109 17.5046 5.33946 18.2374 7.87826 18.2374C15.0107 18.2374 20.7925 12.4549 20.7925 5.32318C20.7925 5.14511 20.7887 4.96836 20.7819 4.79214C21.0398 4.58912 22.6354 3.31028 23.0265 2.48815C23.0265 2.48815 21.7308 3.02662 20.4627 3.15348C20.4602 3.15348 20.4571 3.15407 20.4546 3.15407C20.4546 3.15407 20.4571 3.15282 20.4614 3.14972C20.5783 3.07165 22.2118 1.95961 22.433 0.634621C22.433 0.634621 21.5166 1.12379 20.2334 1.55174C20.021 1.62231 19.7986 1.69169 19.5693 1.75601C18.7422 0.873249 17.5665 0.322266 16.2614 0.322266C13.7582 0.322266 11.7297 2.35011 11.7297 4.85145C11.7297 5.20442 11.7704 5.54798 11.8472 5.87785C11.4974 5.8635 6.17035 5.56483 2.54637 1.17619C2.54637 1.17619 0.380483 4.133 3.83706 7.17348C3.83706 7.17348 2.78631 7.13161 1.87979 6.58998C1.87979 6.58998 1.54683 10.1721 5.46131 11.088C5.46131 11.088 4.69105 11.3797 3.46223 11.1717C3.46223 11.1717 4.14942 14.066 7.62726 14.3365C7.62726 14.3365 4.87715 16.8209 0.973267 16.238L0.974517 16.2383Z" fill="white"/>
</svg>
