<svg width="26" height="16" viewBox="0 0 26 16" fill="none" xmlns="http://www.w3.org/2000/svg">
<path d="M5.77168 2.12973C6.49066 3.90525 7.40185 5.57927 8.60197 7.08206C8.76114 7.28205 8.96178 7.45985 9.17316 7.60461C9.48189 7.81664 9.77318 7.74212 9.89872 7.38895C10.0315 7.01834 10.1533 6.26724 10.1606 5.87806C10.1804 4.86115 10.1576 4.1947 10.103 3.17904C10.0676 2.52852 9.83631 1.95733 8.87943 1.78492C8.58393 1.73147 8.55648 1.48823 8.74633 1.24559C9.14156 0.740425 9.69215 0.659917 10.2892 0.628056C11.2569 0.575788 12.2281 0.618445 13.197 0.628056C13.5916 0.631677 13.9886 0.663472 14.3773 0.748193C14.8842 0.858719 15.1557 1.21432 15.2392 1.70922C15.2825 1.9645 15.3047 2.22696 15.2987 2.48527C15.2735 3.59527 15.22 4.70467 15.2074 5.81408C15.202 6.24953 15.2338 6.69585 15.3269 7.11991C15.4573 7.71092 15.8597 7.8593 16.2712 7.43227C16.7937 6.88991 17.2544 6.27961 17.6869 5.65978C18.4725 4.53233 19.0593 3.29502 19.5645 2.01927C19.8258 1.36099 20.0258 1.21801 20.7339 1.21623C22.065 1.2132 23.396 1.21202 24.7271 1.21623C24.9631 1.21742 25.21 1.23967 25.4328 1.31056C25.7944 1.4259 25.938 1.72081 25.8533 2.09504C25.6556 2.972 25.1817 3.71738 24.6742 4.43399C23.8597 5.58361 23.0062 6.70566 22.1725 7.84205C22.0662 7.98681 21.9725 8.14117 21.8854 8.29791C21.5736 8.86134 21.5953 9.17725 22.05 9.64634C22.7737 10.393 23.5486 11.0915 24.2496 11.8585C24.7589 12.4165 25.2304 13.0219 25.6341 13.6592C26.1446 14.4653 25.8292 15.2245 24.8754 15.3596C24.2754 15.4444 21.3444 15.3603 21.1929 15.3596C20.4049 15.3561 19.7141 15.0828 19.1579 14.5476C18.5392 13.9518 17.977 13.2982 17.3829 12.6765C17.2039 12.4891 17.0129 12.3096 16.8069 12.1528C16.321 11.7821 15.8441 11.8644 15.617 12.4351C15.423 12.9252 15.2554 14.2124 15.2476 14.3223C15.2068 14.8971 14.841 15.2635 14.197 15.2989C12.3381 15.3999 10.5367 15.1926 8.8585 14.2935C7.43615 13.5319 6.30035 12.4549 5.31648 11.199C3.75358 9.2041 2.5191 7.0113 1.39206 4.75411C1.33446 4.63871 0.192929 2.20965 0.162253 2.09491C0.0602847 1.71073 0.155407 1.34374 0.480006 1.21742C0.682362 1.13869 4.44603 1.21715 4.50863 1.22051C5.10918 1.25303 5.5187 1.5064 5.77168 2.12973Z" fill="white"/>
</svg>
