<svg width="14" height="25" viewBox="0 0 14 25" fill="none" xmlns="http://www.w3.org/2000/svg">
<path d="M0.854492 24.9756C0.626628 24.9756 0.427246 24.8942 0.256348 24.7314C0.0854492 24.5687 0 24.3734 0 24.1455C0 23.9176 0.0813802 23.7223 0.244141 23.5596L11.4014 12.4023L0.415039 1.44043C0.317383 1.3265 0.24821 1.19629 0.20752 1.0498C0.166829 0.90332 0.166829 0.760905 0.20752 0.622559C0.24821 0.484212 0.317383 0.358073 0.415039 0.244141C0.577799 0.0813802 0.777181 0 1.01318 0C1.24919 0 1.44857 0.0813802 1.61133 0.244141L13.1592 11.8164C13.2406 11.8978 13.3016 11.9914 13.3423 12.0972C13.383 12.203 13.4033 12.3088 13.4033 12.4146C13.4033 12.5203 13.383 12.6221 13.3423 12.7197C13.3016 12.8174 13.2406 12.9069 13.1592 12.9883L1.44043 24.7314C1.35905 24.8128 1.26546 24.8739 1.15967 24.9146C1.05387 24.9552 0.952148 24.9756 0.854492 24.9756Z" fill="#464646"/>
</svg>
