<svg width="40" height="40" viewBox="0 0 40 40" fill="none" xmlns="http://www.w3.org/2000/svg">
<path d="M20 40C31.0457 40 40 31.0457 40 20C40 8.95431 31.0457 0 20 0C8.95431 0 0 8.95431 0 20C0 31.0457 8.95431 40 20 40Z" fill="#FFA046"/>
<path d="M27.17 16.5215C21.3933 16.5215 21.3858 22.2764 21.3858 22.306C21.3858 22.306 20.9901 28.0681 27.17 28.0681C27.17 28.0681 32.3238 28.3611 32.3238 24.058H29.6773C29.6773 24.058 29.7651 25.678 27.258 25.678C27.258 25.678 24.6116 25.8541 24.6116 23.0608H32.4118C32.4118 23.0608 33.2696 16.5215 27.17 16.5215ZM24.582 21.0447C24.582 21.0447 24.9046 18.728 27.2288 18.728C29.5601 18.728 29.5233 21.0447 29.5233 21.0447H24.582ZM17.97 19.564C17.97 19.564 20.2645 19.3954 20.2645 16.6976C20.2645 14.0073 18.3878 12.6875 16.0052 12.6875H8.16785V27.7526H16.0045C16.0045 27.7526 20.7918 27.8994 20.7918 23.3029C20.7922 23.3029 20.9975 19.564 17.97 19.564ZM11.6211 15.3632H16.0048C16.0048 15.3632 17.068 15.3632 17.068 16.9319C17.068 18.5005 16.4448 18.728 15.7335 18.728H11.6211V15.3632ZM15.7852 25.0769H11.6211V21.0447H16.0048C16.0048 21.0447 17.596 21.03 17.5885 23.1192C17.5885 24.879 16.4084 25.0623 15.7852 25.0769ZM23.9296 13.5745V15.4295H30.1465V13.5745H23.9296Z" fill="#F1F2F2"/>
</svg>
