<svg width="23" height="27" viewBox="0 0 23 27" fill="none" xmlns="http://www.w3.org/2000/svg">
<g clip-path="url(#clip0)">
<path d="M14.26 13.0509C14.4644 13.2548 14.5667 13.4995 14.5667 13.785C14.5667 14.0705 14.4644 14.3203 14.26 14.5344C14.0556 14.7485 13.8 14.8556 13.4933 14.8556C13.1867 14.8556 12.9413 14.7536 12.7573 14.5497L10.6107 12.4085C10.4062 12.2046 10.304 11.9599 10.304 11.6744V6.01558C10.304 5.7097 10.4062 5.4548 10.6107 5.25088C10.8151 5.04696 11.0656 4.94499 11.362 4.94499C11.6584 4.94499 11.9089 5.04696 12.1133 5.25088C12.3178 5.4548 12.42 5.7097 12.42 6.01558V11.2156L14.26 13.0509ZM11.3773 0.326172C12.9311 0.326172 14.4031 0.621858 15.7933 1.21323C17.1836 1.8046 18.3898 2.61009 19.412 3.6297C20.4342 4.64931 21.2418 5.85245 21.8347 7.23911C22.4276 8.62578 22.724 10.1042 22.724 11.6744C22.724 13.2446 22.4276 14.7128 21.8347 16.0791C21.2418 17.4454 20.4342 18.6485 19.412 19.6885C18.3898 20.7285 17.1836 21.5442 15.7933 22.1356C14.4031 22.727 12.926 23.0226 11.362 23.0226C9.798 23.0226 8.33111 22.727 6.96133 22.1356C5.59156 21.5442 4.38533 20.7285 3.34267 19.6885C2.3 18.6485 1.48222 17.4454 0.889333 16.0791C0.296444 14.7128 0 13.2446 0 11.6744C0 10.1042 0.296444 8.62578 0.889333 7.23911C1.48222 5.85245 2.3 4.64931 3.34267 3.6297C4.38533 2.61009 5.59156 1.8046 6.96133 1.21323C8.33111 0.621858 9.80311 0.326172 11.3773 0.326172ZM11.3773 20.1779C12.5427 20.1779 13.6467 19.9536 14.6893 19.505C15.732 19.0564 16.6418 18.4446 17.4187 17.6697C18.1956 16.8948 18.7987 15.9975 19.228 14.9779C19.6573 13.9583 19.8771 12.8572 19.8873 11.6744C19.8976 10.4917 19.6778 9.38029 19.228 8.34029C18.7782 7.30029 18.1751 6.40303 17.4187 5.64852C16.6622 4.89401 15.7524 4.29245 14.6893 3.84382C13.6262 3.39519 12.512 3.17088 11.3467 3.17088C10.1813 3.17088 9.08755 3.39519 8.06533 3.84382C7.04311 4.29245 6.14356 4.89401 5.36667 5.64852C4.58978 6.40303 3.97644 7.30029 3.52667 8.34029C3.07689 9.38029 2.852 10.4866 2.852 11.6591C2.852 12.8317 3.07689 13.9379 3.52667 14.9779C3.97644 16.0179 4.58978 16.9152 5.36667 17.6697C6.14356 18.4242 7.04311 19.036 8.06533 19.505C9.08755 19.974 10.1916 20.1983 11.3773 20.1779Z" fill="#FF6600"/>
</g>
<defs>
<clipPath id="clip0">
<rect y="0.0810547" width="23" height="26" fill="white"/>
</clipPath>
</defs>
</svg>
