<svg width="46" height="45" viewBox="0 0 46 45" fill="none" xmlns="http://www.w3.org/2000/svg">
<g clip-path="url(#clip0)">
<path d="M23.4139 44.9513C35.8134 44.9513 45.8651 34.8995 45.8651 22.5001C45.8651 10.1006 35.8134 0.0488281 23.4139 0.0488281C11.0144 0.0488281 0.962692 10.1006 0.962692 22.5001C0.962692 34.8995 11.0144 44.9513 23.4139 44.9513Z" fill="#40A459"/>
<path d="M23.4139 0.0488281C23.2431 0.0488281 23.0731 0.0514648 22.9031 0.0552441C22.8599 0.0562109 22.8167 0.0571777 22.7736 0.0584961C22.6116 0.0629785 22.4499 0.0689551 22.2889 0.0768652C22.2473 0.0788867 22.2059 0.0817871 22.1643 0.0839844C22.0418 0.090752 21.9195 0.0984863 21.7974 0.107188C21.736 0.111582 21.6747 0.115801 21.6134 0.120635C21.4719 0.131885 21.3307 0.144365 21.1898 0.158252C21.1169 0.165459 21.0444 0.173457 20.9719 0.181279C20.8848 0.190771 20.7979 0.200703 20.711 0.211162C20.6358 0.220215 20.5604 0.228916 20.4854 0.238672C31.5011 1.67366 40.0082 11.093 40.0082 22.4998C40.0082 33.9066 31.5012 43.326 20.4855 44.761C20.5606 44.7707 20.6358 44.7795 20.7111 44.7885C20.7979 44.799 20.8849 44.8089 20.972 44.8184C21.0446 44.8263 21.1172 44.8343 21.1899 44.8414C21.3307 44.8553 21.4719 44.8678 21.6135 44.879C21.6747 44.8839 21.7361 44.8882 21.7975 44.8925C21.9195 44.9012 22.0418 44.909 22.1644 44.9157C22.206 44.9181 22.2474 44.9208 22.289 44.9228C22.4501 44.9307 22.6118 44.9367 22.7736 44.9412C22.8168 44.9424 22.86 44.9435 22.9032 44.9444C23.073 44.9482 23.2432 44.9508 23.414 44.9508C35.8135 44.9508 45.8653 34.899 45.8653 22.4996C45.8653 10.1002 35.8135 0.0488281 23.4139 0.0488281Z" fill="#378B4E"/>
<path d="M20.4855 20.5479L29.8514 15.1732C29.8514 15.1732 40.0967 17.3555 42.4613 13.0407L43.207 11.6799L43.8556 13.0897C45.2022 16.0168 45.914 19.271 45.914 22.5002C45.914 29.9438 42.227 36.8996 36.0512 41.1069L35.414 41.5411L20.4855 20.5479Z" fill="#898790"/>
<path d="M45.8651 22.4998C45.8651 18.6201 44.8809 14.9701 43.1485 11.7861L42.4612 13.0402C41.6307 14.5559 40.5375 16.1057 39.448 17.4999C39.8138 19.1079 40.0082 20.7811 40.0082 22.4998C40.0082 28.7697 37.4376 34.4384 33.2934 38.5114L35.3897 41.5582C41.6879 37.5817 45.8651 30.4989 45.8651 22.4998Z" fill="#7A797F"/>
<path d="M23.4139 45C15.7274 45 8.64741 41.1257 4.47489 34.6362L4.07701 34.0174L16.5809 23.4761L30.9722 43.7016L30.0551 43.9992C27.9097 44.6633 25.6753 45 23.4139 45Z" fill="#3D9AE3"/>
<path d="M31.063 43.6666L29.541 41.4873C26.8543 43.1865 23.7732 44.3802 20.4763 44.8097C21.4348 44.9345 22.4213 44.9513 23.4139 44.9513C26.09 44.9513 28.6831 44.5255 31.063 43.6666Z" fill="#1D81CE"/>
<path d="M16.5809 23.476L20.4855 20.5476L35.4976 41.49L34.768 41.9182C33.7371 42.5232 32.6522 43.0486 31.5433 43.4797L30.9721 43.7018L16.5809 23.476Z" fill="white"/>
<path d="M30.9722 43.7016C32.5718 43.1325 34.0885 42.3882 35.4977 41.4899L33.3342 38.4719C32.1569 39.6349 30.8515 40.6685 29.4413 41.5501L30.9722 43.7016Z" fill="#E0E0E3"/>
<path d="M3.6955 33.3269C3.07938 32.2091 2.55608 31.0318 2.14018 29.8277L1.95456 29.1194L28.2946 10.7861L32.1992 13.7146L4.07712 34.0172L3.6955 33.3269Z" fill="#FFCE00"/>
<path d="M34.5635 21.9916C33.1824 20.5494 26.2935 13.1364 26.2935 8.83406C26.2935 3.9629 30.2565 0 35.1276 0C39.9986 0 43.9616 3.9629 43.9616 8.83406C43.9616 13.1335 37.0726 20.5487 35.6915 21.9916C35.3842 22.3128 34.8709 22.3129 34.5635 21.9916Z" fill="#CD2900"/>
<path d="M35.1275 11.8112C32.9476 11.8112 31.1742 10.0377 31.1742 7.85786C31.1742 5.678 32.9477 3.90454 35.1275 3.90454C37.3075 3.90454 39.0809 5.678 39.0809 7.85786C39.0809 10.0377 37.3075 11.8112 35.1275 11.8112Z" fill="#891D00"/>
<path d="M13.6525 16.3989C16.2091 16.3989 18.2892 14.3189 18.2892 11.7622C18.2892 11.3579 17.9614 11.0301 17.5571 11.0301H14.6286C14.2243 11.0301 13.8965 11.3578 13.8965 11.7622C13.8965 12.1665 14.2242 12.4944 14.6286 12.4944H16.7396C16.4083 13.8919 15.1498 14.9347 13.6524 14.9347C11.9032 14.9347 10.48 13.5115 10.48 11.7623C10.48 10.0131 11.9032 8.5899 13.6524 8.5899C14.4259 8.5899 15.1707 8.87133 15.7499 9.38224C16.0533 9.64978 16.5159 9.62068 16.7833 9.31755C17.0507 9.01433 17.0217 8.55167 16.7186 8.28422C15.8717 7.53715 14.7828 7.12573 13.6524 7.12573C11.0959 7.12573 9.01576 9.20575 9.01576 11.7624C9.01576 14.3191 11.0959 16.3989 13.6525 16.3989Z" fill="white"/>
</g>
<defs>
<clipPath id="clip0">
<rect x="0.938354" width="45" height="45" fill="white"/>
</clipPath>
</defs>
</svg>
