<svg width="40" height="40" viewBox="0 0 40 40" fill="none" xmlns="http://www.w3.org/2000/svg">
<rect x="7.13031" y="6.68555" width="26.2929" height="26.2929" fill="white"/>
<path d="M25.9609 10.6406H14.0391C12.1362 10.6406 10.588 12.1888 10.588 14.0917V26.0135C10.588 27.9164 12.1362 29.465 14.0391 29.465H25.9609C27.8638 29.465 29.4124 27.9169 29.4124 26.0135V14.0917C29.4124 12.1888 27.8642 10.6406 25.9609 10.6406ZM20 26.2497C16.5832 26.2497 13.8033 23.4698 13.8033 20.0526C13.8033 16.6359 16.5832 13.8559 20 13.8559C23.4172 13.8559 26.1971 16.6359 26.1971 20.0526C26.1971 23.4693 23.4167 26.2497 20 26.2497ZM26.3963 15.1372C25.5875 15.1372 24.9297 14.4794 24.9297 13.671C24.9297 12.8626 25.5875 12.2048 26.3963 12.2048C27.2047 12.2048 27.8625 12.8626 27.8625 13.671C27.8625 14.4794 27.2047 15.1372 26.3963 15.1372Z" fill="#FFA046"/>
<path d="M20 16.4766C18.0276 16.4766 16.4215 18.0818 16.4215 20.0542C16.4215 22.0275 18.0276 23.6331 20 23.6331C21.9733 23.6331 23.5781 22.0275 23.5781 20.0542C23.5781 18.0822 21.9729 16.4766 20 16.4766Z" fill="#FFA046"/>
<path d="M20 0C8.95475 0 0 8.95475 0 20C0 31.0453 8.95475 40 20 40C31.0453 40 40 31.0453 40 20C40 8.95475 31.0453 0 20 0ZM32.0306 26.0148C32.0306 29.3621 29.3081 32.0845 25.9609 32.0845H14.0391C10.6923 32.0845 7.96943 29.3621 7.96943 26.0148V14.093C7.96943 10.7462 10.6923 8.02335 14.0391 8.02335H25.9609C29.3081 8.02335 32.0306 10.7462 32.0306 14.093V26.0148Z" fill="#FFA046"/>
</svg>
