<svg width="30" height="31" viewBox="0 0 30 31" fill="none" xmlns="http://www.w3.org/2000/svg">
<path d="M15 2.58105C10.1625 2.58105 6.25 6.49356 6.25 11.3311C6.25 16.5436 11.775 23.7311 14.05 26.4686C14.55 27.0686 15.4625 27.0686 15.9625 26.4686C18.225 23.7311 23.75 16.5436 23.75 11.3311C23.75 6.49356 19.8375 2.58105 15 2.58105ZM15 14.4561C14.1712 14.4561 13.3763 14.1268 12.7903 13.5408C12.2042 12.9547 11.875 12.1599 11.875 11.3311C11.875 10.5023 12.2042 9.7074 12.7903 9.12135C13.3763 8.5353 14.1712 8.20606 15 8.20606C15.8288 8.20606 16.6237 8.5353 17.2097 9.12135C17.7958 9.7074 18.125 10.5023 18.125 11.3311C18.125 12.1599 17.7958 12.9547 17.2097 13.5408C16.6237 14.1268 15.8288 14.4561 15 14.4561Z" fill="#FF6600"/>
</svg>
