<svg width="25" height="26" viewBox="0 0 25 26" fill="none" xmlns="http://www.w3.org/2000/svg">
<g clip-path="url(#clip0)">
<path d="M21.525 17.4138C20.0365 16.1407 18.526 15.3696 17.0558 16.6408L16.1779 17.409C15.5356 17.9667 14.3413 20.5725 9.72404 15.2609C5.10769 9.95613 7.85481 9.13017 8.49808 8.57729L9.38077 7.80806C10.8433 6.53402 10.2913 4.93017 9.23654 3.27921L8.6 2.27921C7.54038 0.632096 6.38654 -0.449635 4.92019 0.822481L4.12788 1.51479C3.47981 1.9869 1.66827 3.52152 1.22885 6.4369C0.7 9.93498 2.36827 13.9408 6.19038 18.3359C10.0077 22.7331 13.7452 24.9417 17.2856 24.9033C20.2279 24.8715 22.0048 23.2927 22.5606 22.7186L23.3558 22.0254C24.8183 20.7542 23.9096 19.46 22.4202 18.184L21.525 17.4138Z" fill="#FF6600"/>
</g>
<defs>
<clipPath id="clip0">
<rect y="0.0810547" width="25" height="25" fill="white"/>
</clipPath>
</defs>
</svg>
