<?xml version="1.0" encoding="UTF-8" standalone="no"?>
<svg
   xmlns:dc="http://purl.org/dc/elements/1.1/"
   xmlns:cc="http://creativecommons.org/ns#"
   xmlns:rdf="http://www.w3.org/1999/02/22-rdf-syntax-ns#"
   xmlns:svg="http://www.w3.org/2000/svg"
   xmlns="http://www.w3.org/2000/svg"
   xmlns:sodipodi="http://sodipodi.sourceforge.net/DTD/sodipodi-0.dtd"
   xmlns:inkscape="http://www.inkscape.org/namespaces/inkscape"
   width="1440"
   height="1042.53"
   viewBox="0 0 1440 1042.53"
   version="1.1"
   id="svg18"
   sodipodi:docname="projects-back.svg"
   style="fill:none"
   inkscape:version="0.92.3 (2405546, 2018-03-11)">
  <metadata
     id="metadata22">
    <rdf:RDF>
      <cc:Work
         rdf:about="">
        <dc:format>image/svg+xml</dc:format>
        <dc:type
           rdf:resource="http://purl.org/dc/dcmitype/StillImage" />
        <dc:title></dc:title>
      </cc:Work>
    </rdf:RDF>
  </metadata>
  <sodipodi:namedview
     pagecolor="#ffffff"
     bordercolor="#666666"
     borderopacity="1"
     objecttolerance="10"
     gridtolerance="10"
     guidetolerance="10"
     inkscape:pageopacity="0"
     inkscape:pageshadow="2"
     inkscape:window-width="885"
     inkscape:window-height="480"
     id="namedview20"
     showgrid="false"
     inkscape:zoom="0.16990205"
     inkscape:cx="-641.41817"
     inkscape:cy="653.61812"
     inkscape:window-x="69"
     inkscape:window-y="0"
     inkscape:window-maximized="0"
     inkscape:current-layer="svg18" />
  <path
     d="m 1440,160.912 c 0,0 0,0 -60,20.114 -60,20.114 -181.31,51.948 -300,46.933 C 932.499,221.727 840,147.503 720,120.684 600,93.8655 480,107.275 360,93.8655 240,80.4561 120,40.2281 60,20.114 L 0,0 v 1042.53 h 60 c 60,0 180,0 300,0 120,0 240,0 360,0 120,0 240,0 360,0 120,0 240,0 300,0 h 60 z"
     id="path4"
     inkscape:connector-curvature="0"
     style="fill:#ffa046;" />
  
</svg>
