<svg width="294" height="220" viewBox="0 0 294 220" fill="none" xmlns="http://www.w3.org/2000/svg">
<path d="M291.856 54.6804L291.491 52.2116L291.11 52.2998C288.511 40.0887 282.523 28.8665 273.839 19.9317C265.156 10.9968 254.131 4.71453 242.041 1.81166C229.951 -1.09121 217.29 -0.496013 205.523 3.5284C193.756 7.55281 183.364 14.842 175.549 24.5524C167.733 34.2629 162.815 45.9978 161.362 58.3994C159.909 70.8009 161.982 83.3623 167.339 94.63C172.697 105.898 181.121 115.411 191.637 122.07C202.153 128.728 214.33 132.26 226.76 132.256C230.023 132.256 233.153 131.756 236.269 131.301C235.26 134.71 234.221 138.178 232.553 141.293C230.886 145.819 228.282 149.743 225.693 153.696C223.528 157.972 219.71 160.867 216.901 164.526C213.961 168.082 209.953 170.448 206.778 173.402C203.662 176.488 199.581 178.031 196.334 180.206C192.94 182.16 189.985 184.32 186.825 185.349L178.941 188.611L172.007 191.506L179.087 220L187.82 217.884C190.614 217.179 194.022 216.356 197.899 215.371C201.863 214.636 206.091 212.623 210.801 210.786C215.438 208.685 220.836 207.289 225.839 203.924C230.871 200.72 236.678 198.046 241.798 193.755C246.757 189.331 252.74 185.496 257.158 179.882C261.985 174.622 266.754 169.096 270.455 162.807C274.741 156.811 277.652 150.228 280.724 143.718C283.504 137.208 285.742 130.551 287.57 124.085C291.037 111.124 292.588 98.8097 293.188 88.2733C293.685 77.7223 293.392 68.9493 292.778 62.601C292.572 59.9499 292.265 57.3077 291.856 54.6804ZM130.945 54.6804L130.58 52.2116L130.199 52.2998C127.6 40.0887 121.612 28.8665 112.928 19.9317C104.244 10.9968 93.2199 4.71453 81.1301 1.81166C69.0403 -1.09121 56.3793 -0.496013 44.6122 3.5284C32.8451 7.55281 22.4527 14.842 14.6376 24.5524C6.82241 34.2629 1.90391 45.9978 0.451152 58.3994C-1.00161 70.8009 1.07074 83.3623 6.42843 94.63C11.7861 105.898 20.2102 115.411 30.7258 122.07C41.2415 128.728 53.419 132.26 65.8494 132.256C69.1115 132.256 72.242 131.756 75.3578 131.301C74.3485 134.71 73.3098 138.178 71.6422 141.293C69.9746 145.819 67.3708 149.743 64.7816 153.696C62.6166 157.972 58.7986 160.867 55.99 164.526C53.0497 168.082 49.0415 170.448 45.8672 173.402C42.7514 176.488 38.6701 178.031 35.4226 180.206C32.0289 182.16 29.0739 184.32 25.9142 185.349L18.0296 188.611C13.6265 190.419 11.1104 191.477 11.1104 191.477L18.1905 219.971L26.9236 217.855C29.7176 217.149 33.126 216.326 37.0025 215.342C40.9667 214.607 45.1943 212.594 49.9046 210.757C54.5418 208.655 59.9396 207.259 64.9425 203.894C69.9746 200.691 75.782 198.016 80.9019 193.725C85.8609 189.302 91.8439 185.467 96.2616 179.853C101.089 174.592 105.858 169.067 109.559 162.777C113.845 156.782 116.756 150.198 119.828 143.688C122.607 137.179 124.845 130.522 126.674 124.056C130.141 111.095 131.691 98.7803 132.291 88.2439C132.788 77.6929 132.496 68.9199 131.881 62.5716C131.663 59.9309 131.351 57.2988 130.945 54.6804Z" fill="#FFA046" fill-opacity="0.3"/>
</svg>
