<svg width="24" height="23" viewBox="0 0 24 23" fill="none" xmlns="http://www.w3.org/2000/svg">
<path d="M22.3311 8.73218L15.4248 7.72846L12.3375 1.46954C12.2532 1.29817 12.1145 1.15945 11.9431 1.07512C11.5133 0.862958 10.9911 1.03976 10.7762 1.46954L7.6889 7.72846L0.782591 8.73218C0.592184 8.75938 0.418098 8.84914 0.284814 8.98515C0.123681 9.15076 0.0348886 9.37358 0.0379489 9.60462C0.0410091 9.83567 0.135671 10.0561 0.301135 10.2173L5.29794 15.089L4.11742 21.9681C4.08974 22.1282 4.10745 22.2927 4.16854 22.4432C4.22963 22.5937 4.33166 22.724 4.46306 22.8195C4.59446 22.9149 4.74997 22.9716 4.91196 22.9832C5.07395 22.9947 5.23593 22.9606 5.37954 22.8848L11.5569 19.637L17.7342 22.8848C17.9028 22.9746 18.0987 23.0045 18.2864 22.9718C18.7597 22.8902 19.0779 22.4414 18.9963 21.9681L17.8158 15.089L22.8126 10.2173C22.9486 10.0841 23.0384 9.90998 23.0656 9.71957C23.139 9.24355 22.8072 8.8029 22.3311 8.73218Z" fill="#FF6600"/>
</svg>
