<?xml version="1.0" encoding="UTF-8" standalone="no"?>
<!-- Created with Inkscape (http://www.inkscape.org/) -->

<svg
   xmlns:dc="http://purl.org/dc/elements/1.1/"
   xmlns:cc="http://creativecommons.org/ns#"
   xmlns:rdf="http://www.w3.org/1999/02/22-rdf-syntax-ns#"
   xmlns:svg="http://www.w3.org/2000/svg"
   xmlns="http://www.w3.org/2000/svg"
   xmlns:sodipodi="http://sodipodi.sourceforge.net/DTD/sodipodi-0.dtd"
   xmlns:inkscape="http://www.inkscape.org/namespaces/inkscape"
   width="44.102444mm"
   height="39.412567mm"
   viewBox="0 0 44.102444 39.412567"
   version="1.1"
   id="svg783"
   inkscape:version="0.92.3 (2405546, 2018-03-11)"
   sodipodi:docname="atom.svg">
  <defs
     id="defs777" />
  <sodipodi:namedview
     id="base"
     pagecolor="#ffffff"
     bordercolor="#666666"
     borderopacity="1.0"
     inkscape:pageopacity="0.0"
     inkscape:pageshadow="2"
     inkscape:zoom="1.4"
     inkscape:cx="138.71193"
     inkscape:cy="-62.462374"
     inkscape:document-units="mm"
     inkscape:current-layer="layer1"
     showgrid="false"
     inkscape:window-width="1366"
     inkscape:window-height="719"
     inkscape:window-x="0"
     inkscape:window-y="0"
     inkscape:window-maximized="1" />
  <metadata
     id="metadata780">
    <rdf:RDF>
      <cc:Work
         rdf:about="">
        <dc:format>image/svg+xml</dc:format>
        <dc:type
           rdf:resource="http://purl.org/dc/dcmitype/StillImage" />
        <dc:title></dc:title>
      </cc:Work>
    </rdf:RDF>
  </metadata>
  <g
     inkscape:label="Layer 1"
     inkscape:groupmode="layer"
     id="layer1"
     transform="translate(-0.62734889,-0.61514497)">
    <path
       style="stroke-width:0.03527778"
       inkscape:connector-curvature="0"
       d="M 11.494442,1.2822729 C 9.6599923,2.4111629 9.0955523,4.457273 9.3424923,9.043383 l 0.17639,3.81 -1.97555,0.81139 c -6.4558404,2.64583 -8.6077804,6.45583 -5.5386104,9.8425 1.16416,1.30528 4.6213904,3.24555 6.5969404,3.73944 l 0.9525,0.24695 -0.17639,4.26861 c -0.17639,3.70417 -0.10583,4.48028 0.45861,5.50333 1.9402797,3.66889 5.9266697,3.52778 10.7949997,-0.45861 l 2.04611,-1.65805 1.12889,0.98777 c 1.94028,1.69334 4.58611,3.21028 6.31472,3.63362 1.44639,0.38805 1.83445,0.35277 2.99861,-0.21167 2.64584,-1.30528 3.63362,-4.19806 2.96334,-8.78417 -0.49389,-3.24555 -0.49389,-3.35139 0.17639,-3.35139 0.3175,0 1.72861,-0.56444 3.13972,-1.23472 7.58472,-3.63361 7.02028,-9.10167 -1.34056,-12.41778 l -2.39889,-0.9525 0.28223,-1.94027 c 0.70555,-4.97417 0,-8.2902801 -2.08139,-9.5602801 -2.43417,-1.48167005 -5.64445,-0.45861005 -10.23056,3.2102801 l -0.9525,0.77611 -2.2225,-1.6933401 c -3.91583,-2.96333005 -6.73805,-3.70416005 -8.96055,-2.32833 z m 7.09083,2.57528 c 0.77611,0.3880501 1.83445,1.0230501 2.36361,1.4111101 l 0.98778,0.67028 -2.01083,2.36361 c -1.05834,1.30528 -2.08139,2.50472 -2.25778,2.68111 -0.14111,0.17639 -1.51695,0.49389 -3.03389,0.74083 -1.51694,0.24695 -2.99861,0.56445 -3.31611,0.70556 -1.27,0.49389 -1.09361,-5.715 0.21167,-7.69056 0.49389,-0.77611 1.30527,-1.3405501 2.64583,-1.7991601 0.84667,-0.28223 2.82222,0.14111 4.40972,0.91722 z m 14.18167,-0.21167 c 1.5875,0.9877801 2.54,4.3038901 2.08139,7.3025001 l -0.24695,1.51695 -2.18722,-0.45862 c -1.19944,-0.24694 -2.64583,-0.45861 -3.175,-0.45861 -0.70556,0 -1.34056,-0.38805 -2.11667,-1.30527 -0.635,-0.70556 -1.72861,-1.94028 -2.43416,-2.75167 l -1.30528,-1.48167 0.9525,-0.70555 c 3.28083,-2.3988901 6.31472,-2.9986101 8.43139,-1.6580601 z m -8.11389,5.1505601 c 1.02305,1.02305 1.86972,1.94027 1.86972,2.04611 0,0.10583 -1.72861,0.17639 -3.88055,0.17639 -2.11667,0 -3.88056,-0.0353 -3.88056,-0.10584 0,-0.21166 3.63361,-3.95111 3.84528,-3.95111 0.10583,0 1.02305,0.81139 2.04611,1.83445 z m -8.89,4.93889 c -0.49389,0.84666 -1.34056,2.36361 -1.86972,3.35138 -0.49389,1.02306 -1.02306,1.86973 -1.16417,1.86973 -0.24694,0 -1.86972,-5.25639 -1.69333,-5.46806 0.17639,-0.14111 4.55083,-1.16417 5.18583,-1.19944 0.3175,-0.0353 0.14111,0.49389 -0.45861,1.44639 z m 16.08667,-0.88195 c 1.37583,0.3175 2.43416,0.77611 2.43416,1.02306 0,0.70555 -1.44639,5.15055 -1.62278,4.97416 -0.635,-0.635 -3.91583,-6.59694 -3.59833,-6.59694 0.17639,0 1.44639,0.24694 2.78695,0.59972 z m -20.70806,4.37445 1.12889,3.06916 -0.9525,2.57528 c -0.52917,1.44639 -1.05833,2.89278 -1.16417,3.24555 -0.1763897,0.56445 -0.2822197,0.56445 -1.4463897,0.10584 -5.4327704,-2.29306 -7.0555504,-6.49111 -3.63361,-9.63083 1.12889,-1.05834 3.88056,-2.61056 4.445,-2.50473 0.28223,0.0706 0.9877797,1.48167 1.6227797,3.13973 z m 26.88167,-2.18723 c 2.61055,1.51695 4.02166,3.24556 4.02166,5.00945 0,1.76389 -0.70555,3.13972 -2.18722,4.26861 -1.30528,0.98778 -4.16278,2.50472 -4.33917,2.32833 -0.0706,-0.0706 -0.635,-1.55222 -1.27,-3.28083 -0.9525,-2.78695 -1.05833,-3.31611 -0.67027,-4.23334 0.21166,-0.59972 0.74083,-1.97555 1.12888,-3.10444 0.38806,-1.09361 0.88195,-2.01083 1.09362,-2.01083 0.24694,0 1.23472,0.45861 2.2225,1.02305 z m -3.95112,10.86556 c 0.21167,0.84666 0.10584,1.12889 -0.38805,1.30528 -0.98778,0.38805 -5.04472,1.19944 -5.04472,1.02305 0,-0.0706 0.45861,-0.81139 1.02305,-1.62278 0.52917,-0.81139 1.44639,-2.36361 1.97556,-3.42194 l 0.98778,-1.94028 0.59972,1.79917 c 0.35278,0.98778 0.74083,2.29305 0.84666,2.8575 z m -19.36749,-1.02306 c 0.98777,1.65806 1.79916,3.175 1.86972,3.28084 0.10583,0.24694 -1.5875,-0.0706 -4.26861,-0.77611 -1.02306,-0.28223 -1.30528,-0.49389 -1.16417,-0.95251 0.10583,-0.3175 0.42333,-1.51694 0.74083,-2.64583 0.3175,-1.09361 0.67028,-2.01083 0.81139,-2.01083 0.14111,0 1.05834,1.41111 2.01084,3.10444 z m 0.24694,4.02167 c 2.32833,0.35278 2.8575,0.56444 3.35139,1.30528 0.3175,0.49389 1.30528,1.65805 2.15194,2.57528 1.55223,1.65805 1.55223,1.72861 0.91723,2.25777 -1.37584,1.09361 -4.93889,2.61056 -6.13834,2.61056 -3.31611,-0.0353 -5.22111,-3.24556 -4.69194,-7.86695 0.17639,-1.51694 0.28222,-1.69333 0.9525,-1.51694 0.42333,0.10583 1.97555,0.38806 3.45722,0.635 z m 19.86139,0.67028 c 0.28222,1.69333 -0.0353,4.33916 -0.74084,5.64444 -1.34055,2.64584 -3.95111,3.10445 -7.44361,1.37584 -3.31611,-1.65806 -3.31611,-1.69334 -0.91722,-4.69195 l 2.04611,-2.57528 2.99861,-0.56444 c 1.65806,-0.28222 3.175,-0.56445 3.42195,-0.59972 0.21166,0 0.49389,0.59972 0.635,1.41111 z m -8.92528,0.91722 c -0.38805,0.56444 -1.27,1.51694 -1.97555,2.18722 -1.41112,1.37584 -1.44639,1.37584 -3.77473,-1.41111 l -1.44639,-1.72861 h 3.95112 3.91583 z"
       id="path530" />
  </g>
</svg>
