<svg width="39" height="38" viewBox="0 0 39 38" fill="none" xmlns="http://www.w3.org/2000/svg">
<g clip-path="url(#clip0)">
<path d="M35.0721 33.0855L29.2554 23.1547C31.5301 20.7201 32.8949 17.4845 32.8949 13.9287C32.8949 10.1486 31.3351 6.75289 28.8329 4.28621C26.3307 1.81953 22.8861 0.28186 19.0516 0.28186C15.2171 0.28186 11.7725 1.81953 9.27032 4.28621C6.76813 6.75289 5.20832 10.1486 5.20832 13.9287C5.20832 17.4845 6.57315 20.7201 8.84787 23.1547L3.03109 33.0855C2.9336 33.2457 2.9011 33.4699 2.96609 33.6941C3.09608 34.0465 3.48603 34.2067 3.84349 34.0786L8.49041 32.2526L9.20532 37.1539C9.23782 37.3461 9.33531 37.5383 9.53028 37.6344C9.85524 37.8266 10.2777 37.6985 10.4727 37.3781L16.3544 27.3513C17.1993 27.5114 18.1092 27.6075 18.9866 27.6075C19.8965 27.6075 20.7739 27.5114 21.6188 27.3513L27.5006 37.3781C27.6955 37.6985 28.118 37.7946 28.443 37.6344C28.6379 37.5383 28.7354 37.3461 28.7679 37.1539L29.4828 32.2526L34.1297 34.0786C34.4872 34.2067 34.8772 34.0465 35.0071 33.6941C35.2021 33.4699 35.1696 33.2457 35.0721 33.0855ZM10.3427 35.0076L9.75776 31.1954C9.69276 30.843 9.3678 30.5868 8.97785 30.6188C8.91286 30.6188 8.84787 30.6508 8.78288 30.6829L5.17582 32.0924L9.85524 24.1157C11.3176 25.3971 13.0723 26.3902 15.0221 26.9668L10.3427 35.0076ZM19.0516 26.23C15.607 26.23 12.4874 24.8525 10.2452 22.6421C8.00297 20.4317 6.60564 17.3564 6.60564 13.9607C6.60564 10.565 8.00297 7.48969 10.2452 5.27929C12.4874 3.00482 15.607 1.62732 19.0516 1.62732C22.4962 1.62732 25.6158 3.00482 27.858 5.21522C30.1002 7.42562 31.4976 10.501 31.4976 13.8966C31.4976 17.2923 30.1002 20.3677 27.858 22.5781C25.6158 24.8525 22.4962 26.23 19.0516 26.23ZM29.3203 30.6829C29.2554 30.6508 29.1904 30.6188 29.1254 30.6188C28.7679 30.5547 28.4105 30.811 28.3455 31.1954L27.7605 35.0076L23.0811 26.9668C25.0309 26.3902 26.7857 25.3971 28.248 24.1157L32.9274 32.0924L29.3203 30.6829Z" fill="white"/>
<path d="M25.4207 11.5581C25.2582 11.3339 25.0632 11.1737 24.8357 11.0776C24.6083 10.9815 24.3483 10.9174 24.0883 10.9494H21.3912L20.5463 8.32259C20.4163 7.93817 20.1238 7.61782 19.7989 7.42562C19.5714 7.32951 19.3439 7.26544 19.0839 7.26544C18.824 7.26544 18.5965 7.32951 18.369 7.42562C18.0116 7.61782 17.7516 7.90614 17.6216 8.32259L16.7767 10.9494H14.0796C13.8196 10.9174 13.5596 10.9815 13.3322 11.0776C13.1047 11.1737 12.9097 11.3339 12.7472 11.5581C12.4873 11.9105 12.4223 12.2949 12.4873 12.6793C12.5523 13.0637 12.7472 13.4161 13.1047 13.6724L15.3794 15.2741L14.502 17.901C14.502 17.933 14.502 17.9651 14.4695 17.9651C14.4045 18.1573 14.4045 18.3815 14.437 18.6057C14.4695 18.83 14.567 19.0542 14.7295 19.2464C14.9895 19.5988 15.3469 19.791 15.7369 19.8551C16.1268 19.9192 16.5493 19.8231 16.8742 19.5668L19.1489 17.933L21.4237 19.5668C21.7811 19.8231 22.1711 19.8871 22.561 19.8551C22.951 19.791 23.3084 19.5988 23.5684 19.2464C23.7309 19.0542 23.7959 18.83 23.8609 18.6057C23.8934 18.3815 23.8934 18.1893 23.8284 17.9651C23.8284 17.933 23.8284 17.901 23.7959 17.901L22.9185 15.2741L25.1932 13.6724C25.5506 13.4161 25.7456 13.0637 25.8106 12.6793C25.7781 12.3269 25.6806 11.9105 25.4207 11.5581ZM24.2833 12.5832L24.2508 12.6152L21.6186 14.5053C21.3912 14.6655 21.2612 14.9858 21.3587 15.2421L22.366 18.2854V18.3174C22.366 18.3495 22.366 18.3815 22.366 18.4135C22.366 18.4456 22.366 18.4776 22.3335 18.4776C22.301 18.5096 22.2686 18.5417 22.2036 18.5417C22.1711 18.5417 22.1061 18.5417 22.0736 18.5096L19.4089 16.5876C19.2789 16.4915 19.1489 16.4594 18.9865 16.4594C18.8565 16.4594 18.694 16.4915 18.564 16.5876L15.8993 18.5096C15.8668 18.5417 15.8019 18.5417 15.7694 18.5417C15.7369 18.5417 15.6719 18.5096 15.6394 18.4776C15.6069 18.4456 15.6069 18.4135 15.6069 18.4135C15.6069 18.3815 15.6069 18.3495 15.6069 18.3174V18.2854L16.6143 15.2421C16.7117 14.9538 16.6143 14.6655 16.3543 14.5053L13.8521 12.6152L13.8196 12.5832C13.7871 12.5512 13.7546 12.5191 13.7546 12.4871C13.7546 12.4551 13.7546 12.391 13.7871 12.359C13.7871 12.359 13.7871 12.3269 13.8196 12.3269C13.8521 12.2949 13.8521 12.2949 13.8846 12.2949C13.9171 12.2949 13.9496 12.2629 13.9821 12.2629C14.0146 12.2629 14.0471 12.2629 14.0796 12.2629H17.2642C17.5566 12.2629 17.8166 12.0707 17.9141 11.7823L18.9215 8.70701C18.9215 8.67497 18.954 8.6109 19.019 8.6109C19.0514 8.6109 19.0839 8.57887 19.0839 8.57887C19.1164 8.57887 19.1489 8.57887 19.1489 8.6109C19.1814 8.64294 19.2139 8.67497 19.2464 8.70701L20.2538 11.7823C20.3513 12.0386 20.6113 12.2629 20.9037 12.2629H24.0883C24.1208 12.2629 24.1533 12.2629 24.1858 12.2629C24.2183 12.2629 24.2508 12.2629 24.2833 12.2949C24.3158 12.2949 24.3158 12.3269 24.3483 12.3269C24.3483 12.3269 24.3483 12.359 24.3808 12.359C24.4133 12.391 24.4133 12.423 24.4133 12.4871C24.3483 12.5191 24.3158 12.5512 24.2833 12.5832Z" fill="white"/>
<path d="M26.6879 6.4005C24.7382 4.47841 22.041 3.29312 19.0514 3.29312C16.0618 3.29312 13.3646 4.47841 11.4148 6.4005C9.46508 8.32258 8.26273 10.9815 8.26273 13.9287C8.26273 16.8759 9.46508 19.5348 11.4148 21.4568C13.3646 23.3789 16.0618 24.5642 19.0514 24.5642C22.041 24.5642 24.7382 23.3789 26.6879 21.4568C28.6377 19.5348 29.8401 16.8759 29.8401 13.9287C29.8401 10.9815 28.6377 8.32258 26.6879 6.4005ZM25.7456 20.4958C24.0233 22.1936 21.6511 23.2188 19.0514 23.2188C16.4517 23.2188 14.0795 22.1616 12.3897 20.4958C10.6674 18.798 9.62756 16.4915 9.62756 13.9287C9.62756 11.3659 10.6999 9.02735 12.3897 7.36154C14.0795 5.6637 16.4517 4.60655 19.0514 4.60655C21.6511 4.60655 24.0233 5.6637 25.7131 7.3295C27.4354 9.02735 28.4752 11.3339 28.4752 13.8966C28.4752 16.4594 27.4354 18.83 25.7456 20.4958Z" fill="white"/>
</g>
<defs>
<clipPath id="clip0">
<rect x="0.0498962" y="0.28186" width="37.982" height="37.4429" fill="white"/>
</clipPath>
</defs>
</svg>
