<?xml version="1.0" encoding="UTF-8" standalone="no"?>
<!-- Created with Inkscape (http://www.inkscape.org/) -->

<svg
   xmlns:dc="http://purl.org/dc/elements/1.1/"
   xmlns:cc="http://creativecommons.org/ns#"
   xmlns:rdf="http://www.w3.org/1999/02/22-rdf-syntax-ns#"
   xmlns:svg="http://www.w3.org/2000/svg"
   xmlns="http://www.w3.org/2000/svg"
   xmlns:sodipodi="http://sodipodi.sourceforge.net/DTD/sodipodi-0.dtd"
   xmlns:inkscape="http://www.inkscape.org/namespaces/inkscape"
   width="33.130322mm"
   height="33.109058mm"
   viewBox="0 0 33.130322 33.109058"
   version="1.1"
   id="svg787"
   inkscape:version="0.92.3 (2405546, 2018-03-11)"
   sodipodi:docname="drawing.svg">
  <defs
     id="defs781" />
  <sodipodi:namedview
     id="base"
     pagecolor="#ffffff"
     bordercolor="#666666"
     borderopacity="1.0"
     inkscape:pageopacity="0.0"
     inkscape:pageshadow="2"
     inkscape:zoom="0.35"
     inkscape:cx="245.46563"
     inkscape:cy="-106.00313"
     inkscape:document-units="mm"
     inkscape:current-layer="layer1"
     showgrid="false"
     inkscape:window-width="1366"
     inkscape:window-height="719"
     inkscape:window-x="0"
     inkscape:window-y="0"
     inkscape:window-maximized="1" />
  <metadata
     id="metadata784">
    <rdf:RDF>
      <cc:Work
         rdf:about="">
        <dc:format>image/svg+xml</dc:format>
        <dc:type
           rdf:resource="http://purl.org/dc/dcmitype/StillImage" />
        <dc:title></dc:title>
      </cc:Work>
    </rdf:RDF>
  </metadata>
  <g
     inkscape:label="Layer 1"
     inkscape:groupmode="layer"
     id="layer1"
     transform="translate(-40.887219,-87.677613)">
    <path
       style="stroke-width:0.03527778"
       inkscape:connector-curvature="0"
       d="m 46.818377,87.801763 c -4.797778,0.9525 -7.514167,6.843889 -4.938889,10.759722 l 0.670278,0.987778 0.881944,-1.975556 c 1.552222,-3.351389 6.632222,-7.972778 8.819444,-7.972778 0.811389,0 0.458611,-0.564444 -0.740833,-1.199444 -1.305278,-0.635 -3.175,-0.881944 -4.691944,-0.599722 z"
       id="path256" />
    <path
       style="stroke-width:0.03527778"
       inkscape:connector-curvature="0"
       d="m 65.233376,87.837041 c -1.305278,0.3175 -2.8575,1.058333 -2.8575,1.375833 0,0.105833 0.881944,0.599722 1.975555,1.058333 2.8575,1.234722 5.503334,3.81 6.985001,6.773333 l 1.234721,2.469445 0.599723,-0.917222 c 0.705556,-1.058334 1.023056,-3.81 0.705556,-5.573889 -0.282223,-1.481667 -2.257779,-3.845278 -3.81,-4.586111 -1.5875,-0.705556 -3.386667,-0.9525 -4.833056,-0.599722 z"
       id="path258" />
    <path
       style="stroke-width:0.03527778"
       inkscape:connector-curvature="0"
       d="m 54.403098,91.505929 c -3.774721,0.9525 -7.161388,3.81 -8.889999,7.549445 -0.811389,1.693336 -0.9525,2.504726 -0.9525,5.185836 0,2.8575 0.141111,3.42194 1.164167,5.53861 2.575277,5.29166 8.501944,8.39611 14.005277,7.33778 1.164166,-0.21167 3.033889,-0.91723 4.162777,-1.51695 5.891389,-3.10444 8.396112,-10.86555 5.503333,-17.039165 -2.539999,-5.362222 -9.278055,-8.537222 -14.993055,-7.055556 z"
       id="path272" />
    <path
       style="stroke-width:0.03527778"
       inkscape:connector-curvature="0"
       d="m 41.667821,110.1326 c -0.388055,0.74083 -0.599722,1.97555 -0.635,3.28083 0,5.00944 4.515556,8.46667 9.278056,7.05555 2.257777,-0.67027 2.928055,-1.41111 1.587499,-1.72861 -2.822221,-0.74083 -6.949721,-4.51555 -8.431388,-7.79639 -0.493889,-1.05833 -0.9525,-1.94027 -1.023056,-1.94027 -0.105833,0 -0.423333,0.52916 -0.776111,1.12889 z"
       id="path312" />
    <path
       style="stroke-width:0.03527778"
       inkscape:connector-curvature="0"
       d="m 71.548099,111.0851 c -1.164167,2.64583 -4.480279,5.92666 -7.126112,7.09083 -1.128889,0.49389 -2.046111,0.98778 -2.046111,1.09361 0,0.10583 0.423333,0.42333 0.987778,0.67028 5.115278,2.39889 10.653888,-0.88195 10.653888,-6.35 0,-1.72861 -0.670277,-3.95111 -1.27,-4.33917 -0.176389,-0.10583 -0.705556,0.70556 -1.199443,1.83445 z"
       id="path314" />
  </g>
</svg>
