<svg width="16" height="16" viewBox="0 0 16 16" fill="none" xmlns="http://www.w3.org/2000/svg">
<path d="M15.9871 12.6147C16.021 12.8744 15.9419 13.1002 15.7501 13.292L13.4981 15.5271C13.3965 15.6399 13.2639 15.736 13.1002 15.8149C12.9365 15.894 12.7757 15.9448 12.6177 15.9673C12.6064 15.9673 12.5724 15.9702 12.516 15.9759C12.4596 15.9815 12.3862 15.9843 12.2959 15.9843C12.0814 15.9843 11.7343 15.9477 11.2545 15.8743C10.7747 15.8009 10.1878 15.6202 9.4936 15.3324C8.79925 15.0446 8.01192 14.6127 7.13145 14.0371C6.25099 13.4615 5.31402 12.6712 4.32065 11.6665C3.53046 10.8876 2.87574 10.1426 2.35647 9.43145C1.83721 8.72026 1.41954 8.06271 1.10347 7.45879C0.787363 6.85486 0.550308 6.30737 0.392271 5.81633C0.234234 5.32528 0.126994 4.90197 0.0705523 4.54639C0.0141105 4.1908 -0.00846627 3.91142 0.00282209 3.70823C0.0141105 3.50504 0.0197546 3.39215 0.0197546 3.36958C0.0423314 3.21154 0.093129 3.05068 0.172148 2.887C0.251166 2.72332 0.347117 2.59068 0.460001 2.48908L2.71203 0.237056C2.87007 0.0790185 3.05068 0 3.25387 0C3.40062 0 3.53044 0.0423313 3.64332 0.126994C3.7562 0.211657 3.85215 0.316074 3.93117 0.440246L5.74295 3.87755C5.84455 4.05817 5.87277 4.25571 5.82762 4.47019C5.78246 4.68467 5.68651 4.86528 5.53976 5.01203L4.71007 5.84173C4.68749 5.8643 4.66774 5.90099 4.65081 5.95179C4.63387 6.00259 4.62541 6.04492 4.62541 6.07878C4.67056 6.31584 4.77216 6.58676 4.93019 6.89154C5.06565 7.16247 5.27449 7.49265 5.5567 7.8821C5.83891 8.27155 6.23964 8.72023 6.75891 9.22821C7.26688 9.74753 7.71842 10.151 8.11351 10.4389C8.50852 10.7267 8.83882 10.9384 9.10409 11.0739C9.36937 11.2093 9.57256 11.2912 9.71364 11.3193L9.92524 11.3617C9.94781 11.3617 9.98458 11.3532 10.0353 11.3363C10.0861 11.3193 10.1228 11.2996 10.1454 11.277L11.1105 10.2949C11.3138 10.1143 11.5508 10.024 11.8217 10.024C12.0137 10.024 12.166 10.0578 12.2789 10.1256H12.2958L15.5637 12.0559C15.8009 12.2028 15.942 12.389 15.9871 12.6147Z" fill="#1A1A1A"/>
</svg>
