<svg width="139" height="82" viewBox="0 0 139 82" fill="none" xmlns="http://www.w3.org/2000/svg">
<path fill-rule="evenodd" clip-rule="evenodd" d="M0 58.747L1.08435 57.974C1.46588 57.6775 1.6968 57.4446 2.1185 57.1587C2.50003 56.8834 2.81127 56.6292 3.17272 56.3539C3.53417 56.0892 3.89562 55.8774 4.25707 55.581L5.3113 54.7868C5.67275 54.5221 6.00408 54.2044 6.35549 53.9715C6.79726 53.6856 7.01814 53.5797 7.43983 53.2091C7.89165 52.8067 8.12257 52.7326 8.57438 52.3408L15.5724 47.1312C15.7933 46.9829 15.8335 46.9088 16.0745 46.7076L24.7693 40.2697C25.0203 40.0791 25.0304 40.0367 25.2713 39.8356C25.5725 39.592 25.6027 39.6238 25.9139 39.4014L49.5989 21.6971C50.0206 21.4006 50.2616 21.1888 50.6632 20.9135L54.4785 18.0758C54.8098 17.8005 54.6793 17.8852 55.0106 17.684L56.1451 16.8051C56.5568 16.4769 56.8178 16.3604 57.2295 16.0427L68.5649 7.60353C68.8461 7.42353 68.8963 7.32823 69.1774 7.13763L80.5229 15.5662C80.7538 15.7357 80.7739 15.8098 81.0048 16.011C81.8482 16.7416 82.9426 17.2922 83.786 18.0122C85.7137 19.6747 88.7158 21.7395 90.8543 23.296C91.266 23.5925 91.4266 23.7937 91.8885 24.1219L105.523 34.2659C106.427 34.9436 107.993 35.9707 108.786 36.7225C109.057 36.9766 108.957 36.9131 109.288 37.146C109.7 37.4531 109.981 37.6225 110.383 37.9084L123.465 47.6818C124.449 48.6136 125.664 49.1536 126.648 50.0536C127.481 50.816 128.515 51.4196 129.409 52.0867L137.622 58.2387C138.064 58.514 138.264 58.9164 138.807 59.0646V51.5784C138.244 51.5255 137.26 50.5407 136.688 50.1489L135.152 49.0583C134.941 48.8783 134.891 48.783 134.68 48.603C133.556 47.6288 132.17 46.8347 130.995 45.9558L123.335 40.1744C120.664 38.0355 116.547 35.3459 114.067 33.2282C113.666 32.8788 113.967 33.1435 113.606 32.9105C113.355 32.7517 113.616 32.9529 113.324 32.7305L105.724 27.2032V9.05419C105.724 8.32357 106.005 6.81997 105.272 6.81997H96.0552V19.717C95.4829 19.5794 95.5732 19.5794 95.1917 19.2088C94.4588 18.4887 93.5853 17.9911 92.7017 17.3663C92.3302 17.1016 92.26 17.0169 91.9387 16.7416L88.5752 14.2321C88.3242 14.0732 88.4547 14.1897 88.1937 13.9991C87.9828 13.8509 87.9728 13.8085 87.792 13.6285L71.9385 1.84328C69.83 0.254973 69.5389 -0.69801 67.9927 0.625578C67.6312 0.93265 67.2396 1.17619 66.8179 1.46209L51.4363 12.9614C51.1551 13.1626 51.0447 13.1838 50.7736 13.3744C50.4122 13.6391 50.5326 13.5967 50.2816 13.8191C50.0708 14.0097 50.3921 13.7767 50.0306 14.0309C49.8399 14.1685 49.9403 14.0838 49.7495 14.2003C49.1772 14.5391 49.127 14.7086 48.6049 15.0792L39.4181 21.9406C39.147 22.1312 39.147 22.0783 38.8659 22.3218C38.5747 22.5548 38.6249 22.5654 38.2735 22.8195L30.2714 28.7174C29.8597 29.0033 29.5284 29.3316 29.1469 29.5857C27.7513 30.5069 25.9039 32.1799 24.5484 33.027C24.0866 33.3235 23.8055 33.62 23.4039 33.8847C22.932 34.213 22.7111 34.3824 22.2492 34.7424C19.8998 36.5742 17.0484 38.4061 14.8395 40.3015L9.67881 44.1028C9.29728 44.3569 8.96595 44.6852 8.54426 44.9817L0.441772 50.9325C0.200805 51.1231 0.0702818 51.4619 0 51.8537V54.6068C0 55.9833 0 57.3704 0 58.747Z" fill="#303464"/>
<path fill-rule="evenodd" clip-rule="evenodd" d="M12.9927 57.7942V82H18.7357V61.2991C18.7357 60.7379 19.2779 60.6002 19.6494 60.3567C21.6273 59.0013 24.4386 56.7459 26.4065 55.2212C26.7177 54.9776 26.9185 54.9353 27.2599 54.6811L39.8805 45.2148C40.1918 45.0137 40.4026 44.9184 40.7239 44.6642L44.2079 41.9747C44.3083 41.89 44.489 41.7841 44.5793 41.7312L48.5352 38.724C48.8665 38.4698 48.5955 38.6816 48.9067 38.491L52.5312 35.7697C54.1678 34.3402 56.9791 32.5825 58.7964 31.0789C59.1377 30.793 59.2783 30.793 59.6197 30.5071L61.9992 28.7176C64.429 27.034 66.7483 25.0963 69.178 23.3809C70.6138 24.7045 72.3306 25.6999 73.8367 26.9176C73.8969 26.9599 74.1278 27.1505 74.178 27.1929L76.2564 28.6647C76.668 28.9188 76.6379 28.9824 77.0094 29.3C77.2905 29.5542 77.4913 29.6389 77.8327 29.8612L81.0155 32.2437C82.5717 33.3873 84.2284 34.4885 85.6842 35.7591L95.9755 43.3936C96.357 43.6689 96.367 43.7218 96.7686 43.9866L113.385 56.3965C113.646 56.5977 113.917 56.8412 114.158 57.0212C114.53 57.286 114.63 57.2648 114.972 57.593C115.413 57.9954 115.172 57.8789 115.755 58.2072L118.144 59.9861C118.616 60.399 118.476 60.2296 118.978 60.5473C119.349 60.7802 119.47 60.8226 119.47 61.4579V82H125.213V58.1119C125.213 57.593 123.134 56.2906 122.592 55.9412L112.17 48.1373C112.14 48.1162 112.1 48.0844 112.08 48.0632L98.2345 37.6651C97.853 37.358 97.6823 37.3369 97.3108 37.0404L92.9734 33.8108C91.0457 32.4343 89.2083 30.8142 87.2304 29.5118C85.5738 28.4212 84.0677 27.1293 82.4713 25.9328L74.5295 19.9714C74.1479 19.7067 73.927 19.6431 73.5957 19.3572C72.2302 18.1713 70.6439 17.1018 69.178 16.0536L63.8968 19.8867C62.9832 20.4585 62.2603 21.2314 61.3566 21.8244C60.945 22.0891 60.8145 22.1527 60.4329 22.4491L57.6116 24.5669C57.5715 24.6092 57.3606 24.7892 57.3606 24.7892L44.5894 34.245C44.2581 34.4673 44.3986 34.3932 44.1677 34.605L34.9809 41.477C34.6194 41.7312 34.4286 41.8582 34.0772 42.1124C33.6857 42.3983 33.6656 42.4936 33.3142 42.7477C32.2901 43.4889 31.3061 44.3889 30.2218 45.056L28.8965 46.0514C28.2238 46.5067 27.7719 46.8773 27.0992 47.3432L15.7236 55.8883C14.9003 56.4706 13.9565 57.5189 12.9927 57.7942Z" fill="#59B039"/>
<path fill-rule="evenodd" clip-rule="evenodd" d="M19.7903 64.4755C20.1919 64.7191 20.3124 64.645 20.9951 64.645V78.0185C19.6096 78.0185 20.1819 77.9762 19.7903 78.1774C19.961 78.9503 20.1015 78.9397 21.1156 78.8021C22.4108 78.6221 24.8807 78.5691 26.1759 78.7809C27.21 78.9397 27.461 78.9927 27.6418 78.1774C27.2703 77.9656 27.3606 78.0185 26.7381 78.0185V70.0558H28.9972V78.0185C28.0936 78.0185 28.1136 77.9762 28.0936 78.8127L32.6318 78.6538C33.9069 78.6538 34.5494 78.8127 35.7944 78.8127C35.7844 77.9232 35.8145 78.0185 34.5896 78.0185V64.645C35.8145 64.645 35.7844 64.7403 35.7944 63.8402L30.9651 63.9991C29.7803 63.9991 29.2482 63.8402 28.0936 63.8402C28.1136 64.6873 28.0936 64.645 28.9972 64.645V69.4205H26.7381V64.645C27.8426 64.6132 27.5715 64.3697 27.6418 64.1579C27.0193 63.4696 26.8385 63.9991 24.9209 63.9991C23.6056 63.9991 22.1497 64.0732 20.9449 63.872C19.9509 63.7132 19.971 63.7449 19.7903 64.4755Z" fill="#303464"/>
<path fill-rule="evenodd" clip-rule="evenodd" d="M69.4783 50.3079H76.5768V57.1588H69.4783V50.3079ZM61.7775 50.3079H68.7253V57.1588H61.7775V50.3079ZM69.4783 42.6629H76.5768V49.3443H69.4783V42.6629ZM61.7775 42.6629H68.7253V49.3443H61.7775V42.6629ZM59.8096 59.2236H78.5447V40.5875H59.8096V59.2236Z" fill="#59B039"/>
<path fill-rule="evenodd" clip-rule="evenodd" d="M67.6615 70.3734C68.7158 70.3734 68.3844 70.4475 68.9969 71.2099L71.2861 74.1959C70.9949 74.4288 70.8242 74.7677 70.5029 75.1171C70.1515 75.4983 69.9808 75.6995 69.5391 76.0171L67.772 77.0231C67.1194 77.2878 67.6214 76.8007 67.2097 77.3831C68.0531 77.616 69.7599 79.0667 70.6836 79.289C73.1736 77.5419 73.3142 75.4348 73.7058 74.8312V78.1772H73.1034V78.8126L75.9749 78.6537C76.8885 78.6537 77.0793 78.8126 77.9327 78.8126V78.1772H77.3303V74.99C77.7922 75.6995 77.8524 77.5313 80.3524 79.289L83.8264 77.2242C82.1296 76.8007 80.4629 75.4665 79.75 74.037C80.1014 73.6029 82.4006 70.3734 82.9227 70.3734H83.3745V69.738L80.6536 69.8969C79.6496 69.8969 79.3484 69.738 78.3845 69.738C78.4147 71.0722 78.6456 69.8227 78.5954 70.6593C78.5954 70.7863 78.2942 71.3793 78.244 71.4852L77.3303 73.2429V70.3734H77.9327V69.738C76.999 69.738 76.4568 69.971 75.6737 69.8969L73.254 69.7063V70.3734H73.7058V73.2429C73.5652 73.0735 73.7058 73.2958 73.515 72.9676C73.4447 72.8405 73.3644 72.6817 73.3042 72.5546C72.0692 69.9816 71.8885 70.4475 72.6515 70.3734V69.738L69.9306 69.8969C68.9266 69.8969 68.6254 69.738 67.6615 69.738V70.3734Z" fill="#303464"/>
<path fill-rule="evenodd" clip-rule="evenodd" d="M85.0314 70.2147H85.4933V78.1774C84.6097 78.1774 84.6398 78.1245 84.5796 78.8128C85.6338 78.8128 86.437 78.5798 87.3005 78.6539L89.7101 78.8445L89.7202 78.1774H89.1178V73.7196H91.2262V78.1774H90.6238V78.8128C91.678 78.8128 92.0696 78.6539 93.0435 78.6539C94.0174 78.6539 94.9411 78.9928 95.6038 78.6539C95.4732 78.1351 95.5937 78.1774 94.7001 78.1774V70.2147C95.5937 70.2147 95.4732 70.2571 95.6038 69.7382C94.9712 69.4206 93.8768 69.7382 92.8929 69.7382C91.8889 69.7382 91.5776 69.5794 90.6238 69.5794C90.674 70.1618 90.674 70.1618 91.2262 70.2147V73.2431H89.1178V70.2147C89.67 70.1618 89.67 70.1618 89.7202 69.5794L87.1499 69.7382C86.0555 69.7382 85.6338 69.5794 84.5796 69.5794C84.6198 70.0241 84.5796 70.2147 85.0314 70.2147Z" fill="#303464"/>
<path fill-rule="evenodd" clip-rule="evenodd" d="M112.22 74.1958H114.038V78.1771H112.22V74.1958ZM112.22 70.6909H113.736V73.5604H112.22V70.6909ZM107.24 70.2144C107.321 70.5744 107.351 70.585 107.391 71.0086L108.284 70.8286L108.315 77.4147C108.224 78.876 107.883 76.9276 107.541 78.4948C107.652 78.5583 117.813 80.2101 117.813 75.9535C117.813 74.6299 116.869 73.7934 115.995 73.7193C116.447 73.0098 116.899 73.0734 116.899 71.9721C116.899 69.3885 110.975 69.8226 109.178 70.0238C108.525 70.0979 107.772 70.2144 107.24 70.2144Z" fill="#303464"/>
<path fill-rule="evenodd" clip-rule="evenodd" d="M60.5622 70.5322C61.0441 70.4158 61.5963 70.3311 62.0783 70.2146V75.3078H61.3252C60.9136 75.3078 60.9035 75.2336 60.5622 75.1489V70.5322ZM57.0882 72.6076C57.0882 73.4547 57.2188 74.0053 57.8212 74.7042C58.273 75.2336 58.8553 75.2866 59.2067 75.7948C58.0722 76.1125 58.775 76.4302 56.3352 76.4302C56.4758 76.9914 56.4256 76.7055 56.7368 77.1184L58.1525 78.9715C59.6887 78.8444 60.8935 77.669 61.6164 76.4196C62.008 75.7419 61.5461 76.1549 62.0783 75.9537V78.0185C61.4959 78.0714 61.5863 78.1773 60.8734 78.1773V78.8126H66.757V78.1773C66.0341 78.1773 66.1345 78.0714 65.5522 78.0185V70.2146H66.6064V69.7381C64.6687 69.7381 57.0882 69.0816 57.0882 72.6076Z" fill="#303464"/>
<path fill-rule="evenodd" clip-rule="evenodd" d="M99.8406 77.8598V70.6912C99.8406 69.8124 102.853 69.8124 102.853 70.6912V78.3362C102.341 78.3362 99.8406 78.8445 99.8406 77.8598ZM96.0554 73.8784V74.6726C96.0554 76.9385 98.6759 78.9716 100.895 78.9716H101.798C104.248 78.9716 106.688 76.8009 106.758 74.3443C106.829 71.8242 104.198 69.5794 101.798 69.5794H100.895C98.6759 69.5794 96.0554 71.6124 96.0554 73.8784Z" fill="#303464"/>
<path fill-rule="evenodd" clip-rule="evenodd" d="M42.7413 77.8595C42.3497 77.8913 40.1509 78.516 39.5586 77.8701C39.3076 77.5948 39.408 74.757 39.408 74.1852C39.408 70.8921 41.5566 75.9853 42.7413 77.8595ZM37.7614 70.3733V71.0086H38.8156C38.9863 71.6651 39.408 71.951 39.5686 72.6075C35.2011 73.677 35.3015 78.6537 41.3859 78.6537C41.9783 78.6537 42.5104 78.5372 42.8919 78.336C43.2333 78.5795 43.0827 78.3678 43.2032 78.8125C45.3719 78.8125 43.2734 78.1666 47.4201 78.8443L47.3397 78.2725C47.0887 77.8066 47.1891 78.2513 46.7474 77.7748L41.9883 69.738C41.1048 69.8121 40.1811 70.3733 37.7614 70.3733Z" fill="#303464"/>
<path fill-rule="evenodd" clip-rule="evenodd" d="M49.087 70.2146H50.1412V78.1774H49.3882V78.8127C50.4927 78.8127 51.2959 78.5691 52.2597 78.6538L54.6694 78.8444L54.6794 78.1774H53.9264V70.2146H55.2819C55.4023 70.7547 55.6031 71.03 55.7337 71.6441L56.3361 71.4747L55.4224 69.1028C55.1011 68.404 55.5228 68.7005 54.83 68.6263C54.569 69.2087 54.82 69.0075 54.9806 69.7382H48.9364C49.6694 68.2875 49.1573 67.7898 48.1131 70.3099C47.9826 70.6382 47.34 71.7924 48.1232 71.5488C48.6553 71.3794 48.3139 70.2146 49.087 70.2146Z" fill="#303464"/>
<path fill-rule="evenodd" clip-rule="evenodd" d="M103.766 65.9154V64.3165C104.68 64.2954 104.208 64.4224 104.368 63.9989H102.4C102.561 64.4224 102.089 64.2954 103.003 64.3165V67.8214C102.089 67.8426 102.561 67.7261 102.4 68.1391H104.368C104.208 67.7261 104.68 67.8426 103.766 67.8214V66.2331C104.529 66.2966 104.589 66.7837 105.272 68.1391H107.993C108.043 67.4508 108.465 67.1332 108.806 66.6143L109.8 65.1213V67.8214C109.107 67.885 109.539 67.652 109.198 68.1391H111.166C111.005 67.7261 111.477 67.8426 110.563 67.8214V64.3165C111.477 64.2954 111.005 64.4224 111.166 63.9989H109.8C109.75 64.6554 109.318 65.0789 109.017 65.566C108.836 65.8519 108.736 66.0319 108.535 66.3284C108.334 66.6143 108.184 66.8049 107.993 67.0273V64.3165C108.907 64.2954 108.435 64.4224 108.595 63.9989H106.627C106.798 64.4224 106.326 64.2954 107.24 64.3165V67.8214C106.376 67.8426 106.206 68.1285 105.724 67.3555C105.433 66.8896 105.232 66.2331 104.82 65.9154C104.91 65.7778 105.473 64.7295 105.493 64.7083C106.035 64.1683 105.734 64.6448 106.055 64.5283C106.326 64.4224 106.316 64.4118 106.326 63.84C105.372 63.84 105.282 63.7447 104.84 64.9836C104.589 65.7037 104.619 65.8943 103.766 65.9154Z" fill="#59B039"/>
<path fill-rule="evenodd" clip-rule="evenodd" d="M58.7551 65.7566C58.5442 66.1696 58.3434 66.6143 58.1526 67.0379C57.8816 67.652 57.9016 67.9167 57.0884 67.9802L58.3032 68.3085L59.2571 66.2649L59.8093 66.2331V67.8214C59.1065 67.885 59.5482 67.652 59.2069 68.1391H61.1748C60.8334 67.652 61.2651 67.885 60.5623 67.8214V66.2331H61.1748C61.3655 67.1226 61.6667 67.652 62.0784 68.3085H63.2832C63.0021 67.5779 62.3997 68.1179 61.7671 66.0849C61.6467 65.6931 61.8173 65.2378 62.0985 64.8142C62.6306 64.0201 62.8716 65.0154 63.1326 63.8401C62.1185 63.8401 61.978 63.8401 61.6768 64.6978C61.3956 65.5343 61.5463 65.8308 60.5623 65.9155V64.3166C61.2651 64.2636 60.8334 64.4966 61.1748 63.9989H59.2069C59.5482 64.4966 59.1065 64.2636 59.8093 64.3166V65.9155C58.735 65.8202 59.0663 65.3649 58.3032 63.8401H57.239C57.5 65.026 57.4097 64.0942 58.1024 64.6978C58.2631 64.8354 58.6145 65.5343 58.7551 65.7566Z" fill="#59B039"/>
<path fill-rule="evenodd" clip-rule="evenodd" d="M40.7828 64.3166V67.8215C39.8692 67.8427 40.3411 67.7262 40.1804 68.1392H42.1383C41.9776 67.7262 42.4495 67.8427 41.5359 67.8215V66.2332H43.3531C43.3531 68.7427 43.1724 67.0379 42.7407 68.1392H44.7086C44.5479 67.7262 45.0198 67.8427 44.1062 67.8215V64.3166C45.0198 64.2954 44.5479 64.4225 44.7086 63.999H42.7407C43.1423 65.0367 43.3531 63.3213 43.3531 65.9155H41.5359V64.3166C42.4495 64.2954 41.9776 64.4225 42.1383 63.999H40.1804C40.331 64.4013 39.8692 64.3166 40.7828 64.3166Z" fill="#59B039"/>
<path fill-rule="evenodd" clip-rule="evenodd" d="M64.0363 64.3166V67.8215C63.1226 67.8427 63.5945 67.7262 63.4338 68.1392H65.4017C65.2411 67.7262 65.713 67.8427 64.7993 67.8215V66.2332H66.6065C66.6065 68.7427 66.4258 67.0379 66.0041 68.1392H67.972C67.8013 67.7262 68.2732 67.8427 67.3596 67.8215V64.3166C68.2732 64.2954 67.8013 64.4225 67.972 63.999H66.0041C66.4057 65.0367 66.6065 63.3213 66.6065 65.9155H64.7993V64.3166C65.713 64.2954 65.2411 64.4225 65.4017 63.999H63.4338C63.5844 64.4013 63.1326 64.3166 64.0363 64.3166Z" fill="#59B039"/>
<path fill-rule="evenodd" clip-rule="evenodd" d="M81.2557 64.3166V67.8215C80.3421 67.8427 80.814 67.7262 80.6533 68.1392H82.6212C82.4606 67.7262 82.9325 67.8427 82.0188 67.8215V64.3166H83.6754V67.8215C82.9726 67.885 83.4144 67.6521 83.073 68.1392H85.0309C84.5489 66.8897 84.4284 69.4733 84.4284 64.8037C84.4284 64.1366 84.7598 64.719 85.0309 63.999H80.6533C80.8039 64.4013 80.3521 64.3166 81.2557 64.3166Z" fill="#59B039"/>
<path fill-rule="evenodd" clip-rule="evenodd" d="M54.0759 65.1213C54.3169 64.6237 54.3972 64.3166 55.1301 64.3166H55.5819V66.0743H55.1301C54.1964 66.0743 54.3068 65.6825 54.0759 65.1213ZM53.3129 65.1213C53.3129 65.799 53.5639 66.0849 54.0759 66.2331C53.7948 67.5038 52.9615 67.4932 52.7104 68.1391C55.2205 68.1391 53.7345 66.4343 55.5819 66.392V67.8214C54.8791 67.885 55.3209 67.652 54.9795 68.1391H56.9374C56.7767 67.7262 57.2486 67.8426 56.3349 67.8214V64.3166C57.2486 64.2954 56.7767 64.4225 56.9374 63.9989C55.5117 63.9989 53.3129 63.6283 53.3129 65.1213Z" fill="#59B039"/>
<path fill-rule="evenodd" clip-rule="evenodd" d="M46.5168 67.8214C45.8641 67.8214 45.1714 66.0743 47.4304 66.0743C47.4304 66.6673 47.6011 67.8214 46.5168 67.8214ZM45.3119 64.4754C45.3119 65.0895 45.2617 64.5389 45.4625 64.9625C46.326 64.7189 45.7939 64.3166 47.2798 64.3166C47.33 64.9307 47.4304 64.9519 47.4304 65.7566C43.8159 65.7566 45.1212 68.3085 45.9143 68.3085C46.9585 68.3085 46.4967 68.3403 47.4304 67.8214C47.5911 68.4885 47.8019 68.3826 48.7859 68.1391C48.7256 67.3979 49.0067 67.7579 48.1834 67.8214C48.1834 65.3543 48.5549 63.8401 46.5168 63.8401C45.9846 63.8401 45.3119 63.9248 45.3119 64.4754Z" fill="#59B039"/>
<path fill-rule="evenodd" clip-rule="evenodd" d="M87.4513 67.9803C86.0557 67.9803 85.9452 64.1577 87.4513 64.1577C88.6963 64.1577 88.9875 67.9803 87.4513 67.9803ZM85.4934 66.0743C85.4934 69.2191 89.2686 68.7532 89.2686 66.5508C89.2686 64.7613 89.1381 63.8401 87.1501 63.8401C86.1561 63.8401 85.4934 64.9837 85.4934 66.0743Z" fill="#59B039"/>
<path fill-rule="evenodd" clip-rule="evenodd" d="M95.453 67.9803C94.0574 67.9803 93.9469 64.1577 95.453 64.1577C96.7081 64.1577 96.9992 67.9803 95.453 67.9803ZM93.4951 66.0743C93.4951 69.2191 97.2703 68.7532 97.2703 66.5508C97.2703 64.7613 97.1398 63.8401 95.1518 63.8401C94.1578 63.8401 93.4951 64.9837 93.4951 66.0743Z" fill="#59B039"/>
<path fill-rule="evenodd" clip-rule="evenodd" d="M75.8241 64.1581C76.4466 64.1581 76.5772 64.8887 76.5772 65.5981H74.9205C74.9306 64.9204 75.2318 64.1581 75.8241 64.1581ZM74.0068 66.0746C74.0068 68.743 76.3161 68.4782 76.9487 68.0653C77.3302 67.8111 77.29 67.8853 77.3302 67.3452C74.8502 68.7324 75.0109 66.4664 74.7599 65.9158C75.9547 65.9158 78.4848 66.4558 77.0692 64.444C76.2358 63.2686 74.0068 63.7663 74.0068 66.0746Z" fill="#59B039"/>
<path fill-rule="evenodd" clip-rule="evenodd" d="M99.0763 64.3166C99.0763 69.2192 97.7209 66.3497 97.5703 68.3086C99.5281 68.3086 99.5281 65.9049 99.5281 64.3166H100.743V67.345C100.743 68.0121 100.412 67.4297 100.141 68.1392H102.098C101.757 67.6521 102.199 67.885 101.496 67.8215V64.3166C102.199 64.2637 101.757 64.4966 102.098 63.999H98.4739C98.6245 64.4013 98.1727 64.3166 99.0763 64.3166Z" fill="#59B039"/>
<path fill-rule="evenodd" clip-rule="evenodd" d="M70.0812 67.8215H69.6293V65.9155C71.035 65.9155 70.9848 66.0743 70.9848 67.1862C70.9848 67.6732 70.543 67.8215 70.0812 67.8215ZM68.8763 64.3166V67.8215C67.9627 67.8426 68.4346 67.7262 68.2739 68.1391C69.8201 68.1391 71.8984 68.5097 71.8984 66.8685C71.8984 65.3861 70.553 65.5979 69.6293 65.5979V64.3166C70.543 64.2954 70.0711 64.4225 70.2318 63.999H68.2739C68.4245 64.4013 67.9627 64.3166 68.8763 64.3166Z" fill="#59B039"/>
<path fill-rule="evenodd" clip-rule="evenodd" d="M89.5693 65.2802H89.8705C90.0914 64.2637 89.971 64.3166 91.0754 64.3166V67.345C91.0754 68.0121 90.7441 67.4297 90.473 68.1392H92.4309C92.0995 67.6521 92.5313 67.885 91.8284 67.8215V64.3166C93.3746 64.3166 92.2903 64.899 93.1939 65.2802C93.4148 64.8461 93.3445 64.7296 93.3445 63.999H89.5693V65.2802Z" fill="#59B039"/>
<path fill-rule="evenodd" clip-rule="evenodd" d="M48.7864 65.2802H49.0876C49.3185 64.2637 49.198 64.3166 50.3024 64.3166V67.345C50.3024 68.0121 49.9711 67.4297 49.69 68.1392H51.6579C51.3165 67.6521 51.7583 67.885 51.0554 67.8215V64.3166C52.1398 64.3166 51.7181 64.3272 51.9992 64.7508C52.4109 65.3861 51.7181 64.9837 52.4109 65.2802C52.6418 64.8461 52.5615 64.7296 52.5615 63.999H48.7864V65.2802Z" fill="#59B039"/>
<path fill-rule="evenodd" clip-rule="evenodd" d="M72.35 64.3166V67.8215C71.5568 67.8956 72.0789 67.6732 71.8982 68.1392H73.856C73.5146 67.6521 73.9564 67.885 73.2536 67.8215V64.3166C73.9564 64.2637 73.5146 64.4966 73.856 63.999H71.7476C72.0889 64.4966 71.6472 64.2531 72.35 64.3166Z" fill="#59B039"/>
</svg>
