<svg width="39" height="38" viewBox="0 0 39 38" fill="none" xmlns="http://www.w3.org/2000/svg">
<g clip-path="url(#clip0)">
<path d="M14.679 20.2554C14.6789 20.2554 14.6787 20.2554 14.6787 20.2554H13.7448C13.4111 18.5696 11.7542 17.4695 10.044 17.7986C9.05806 17.9882 8.22265 18.6295 7.79442 19.5252C7.05157 17.9715 5.17165 17.3055 3.59553 18.0378C2.68686 18.46 2.03649 19.2835 1.84409 20.2554H0.755126C0.405693 20.2554 0.122317 20.5346 0.122238 20.879C0.122238 20.8791 0.122238 20.8793 0.122238 20.8793V37.1009C0.122159 37.4453 0.405376 37.7247 0.754809 37.7248C0.754888 37.7248 0.755047 37.7248 0.755126 37.7248H14.6787C15.0281 37.7249 15.3115 37.4457 15.3115 37.1012C15.3115 37.1011 15.3115 37.101 15.3115 37.1009V20.8793C15.3116 20.5349 15.0284 20.2555 14.679 20.2554ZM10.6424 18.9887C11.4516 18.9912 12.1699 19.5001 12.4305 20.2554H8.85443C9.11494 19.5001 9.83319 18.9913 10.6424 18.9887ZM4.94642 18.9887C5.75565 18.9912 6.4739 19.5001 6.73449 20.2554H3.15844C3.41895 19.5001 4.1372 18.9913 4.94642 18.9887ZM4.55245 36.477H1.38801V21.5032H4.55245V36.477ZM9.61555 36.477H5.81823V21.5032H9.61555V36.477ZM14.0458 36.477H10.8813V21.5032H14.0458V36.477Z" fill="white"/>
<path d="M3.76803 11.1137C3.18008 10.6024 3.12383 9.71813 3.64248 9.13852C3.68164 9.09469 3.72365 9.05336 3.76803 9.01476C4.27316 8.52374 4.5563 7.85273 4.55329 7.15341H3.28751C3.28625 7.5545 3.11141 7.93595 2.80699 8.20196C1.76399 9.22454 1.75941 10.887 2.79679 11.9152C2.80019 11.9186 2.80359 11.9219 2.80699 11.9253C3.3955 12.4377 3.45119 13.3233 2.93144 13.9034C2.89259 13.9467 2.85098 13.9877 2.80699 14.026C2.30171 14.5172 2.01865 15.1885 2.02174 15.888H3.28751C3.28902 15.4864 3.46377 15.1045 3.76803 14.8376C4.81119 13.8146 4.81554 12.1517 3.77784 11.1233C3.7746 11.1201 3.77128 11.1169 3.76803 11.1137Z" fill="white"/>
<path d="M8.19721 11.1137C7.60926 10.6024 7.55301 9.71813 8.07167 9.13852C8.11083 9.09469 8.15283 9.05336 8.19721 9.01476C8.70234 8.52374 8.98547 7.85273 8.98247 7.15341H7.7167C7.71543 7.5545 7.54059 7.93595 7.23618 8.20196C6.19318 9.22454 6.18859 10.887 7.22597 11.9152C7.22937 11.9186 7.23277 11.9219 7.23618 11.9253C7.82468 12.4377 7.88038 13.3233 7.36062 13.9034C7.32177 13.9467 7.28016 13.9877 7.23618 14.026C6.7309 14.5172 6.44784 15.1885 6.45092 15.888H7.7167C7.7182 15.4864 7.89295 15.1045 8.19721 14.8376C9.24037 13.8146 9.24472 12.1517 8.20702 11.1233C8.20378 11.1201 8.20046 11.1169 8.19721 11.1137Z" fill="white"/>
<path d="M12.6277 11.1137C12.0397 10.6024 11.9835 9.71813 12.5021 9.13852C12.5413 9.09469 12.5833 9.05336 12.6277 9.01476C13.1328 8.52374 13.4159 7.85273 13.4129 7.15341H12.1471C12.1459 7.5545 11.971 7.93595 11.6666 8.20196C10.6236 9.22454 10.619 10.887 11.6564 11.9152C11.6598 11.9186 11.6632 11.9219 11.6666 11.9253C12.2551 12.4377 12.3108 13.3233 11.7911 13.9034C11.7522 13.9467 11.7106 13.9877 11.6666 14.026C11.1613 14.5172 10.8783 15.1885 10.8814 15.888H12.1471C12.1486 15.4864 12.3234 15.1045 12.6277 14.8376C13.6708 13.8146 13.6752 12.1517 12.6375 11.1233C12.6342 11.1201 12.6309 11.1169 12.6277 11.1137Z" fill="white"/>
<path d="M31.7667 17.7598V12.1446L34.8681 14.4373C35.6431 15.0109 36.7429 14.8564 37.3247 14.0925C37.6353 13.6846 37.7475 13.1623 37.6313 12.6654C37.5269 12.2307 37.2591 11.8512 36.8819 11.6038L29.9109 6.77789C31.4529 5.37644 31.5504 3.00802 30.1288 1.48795C28.7072 -0.0321176 26.3046 -0.128277 24.7627 1.27317C23.2207 2.67462 23.1232 5.04304 24.5448 6.56311C24.5511 6.56981 24.5574 6.57652 24.5637 6.58315C24.5254 6.59672 24.4886 6.6138 24.4537 6.63431L17.1308 11.4513C16.8618 11.6182 16.6415 11.8512 16.4915 12.1275C16.159 12.7521 16.2163 13.5089 16.6393 14.0779C17.2262 14.8702 18.3428 15.0646 19.1695 14.5184L22.9064 12.0624V17.7598H17.8433V19.0076H22.9064V25.8925C22.9153 27.2675 24.0533 28.3749 25.448 28.3661C26.1728 28.3615 26.8606 28.0502 27.3366 27.5113C28.2524 28.5484 29.8477 28.6571 30.8997 27.7542C31.4464 27.285 31.7622 26.607 31.7668 25.8925V19.0076H38.0957V17.7598H31.7667ZM24.8958 3.35701C25.1279 2.51552 25.7943 1.85793 26.6477 1.62833C27.9992 1.2571 29.4001 2.03628 29.7766 3.36863C29.9006 3.80763 29.9009 4.27158 29.7772 4.71065C29.5451 5.55215 28.8787 6.20974 28.0253 6.43934C26.6738 6.81056 25.2729 6.03138 24.8964 4.69903C24.7723 4.26012 24.772 3.79609 24.8958 3.35701ZM26.7036 25.8925C26.6966 26.5752 26.1304 27.1235 25.4378 27.1184C24.7453 27.1236 24.1791 26.5752 24.172 25.8925V18.3612C24.1848 17.672 24.7617 17.1235 25.4608 17.136C26.142 17.1482 26.6913 17.6897 26.7036 18.3612V25.8925ZM30.5009 25.8925C30.4886 26.5817 29.9119 27.1305 29.2128 27.1183C28.5311 27.1064 27.9813 26.5645 27.9694 25.8925V18.3612C27.9821 17.672 28.5591 17.1235 29.2582 17.136C29.9393 17.1482 30.4886 17.6897 30.5009 18.3612V25.8925ZM31.5136 10.3978C31.2341 10.191 30.8375 10.2466 30.6277 10.5221C30.5454 10.6302 30.5008 10.7617 30.5009 10.8968V16.2321C29.46 15.6237 28.1263 15.8389 27.3365 16.7427C26.5466 15.8389 25.213 15.6237 24.172 16.2321V10.8968C24.172 10.5523 23.8888 10.2729 23.5392 10.2729C23.4142 10.2729 23.2921 10.3094 23.1881 10.3777L18.4674 13.4802C18.1945 13.6595 17.8258 13.5868 17.6439 13.3177C17.5591 13.1923 17.5266 13.0394 17.5533 12.891C17.5808 12.7335 17.6732 12.5941 17.8086 12.5059L24.9969 7.77723H29.152L36.2021 12.6582C36.4183 12.8096 36.4742 13.1026 36.3286 13.3211C36.1784 13.5428 35.8744 13.6026 35.6495 13.4545C35.6421 13.4496 35.6348 13.4445 35.6277 13.4392L31.5136 10.3978Z" fill="white"/>
</g>
<defs>
<clipPath id="clip0">
<rect x="0.117828" y="0.28186" width="37.982" height="37.4429" fill="white"/>
</clipPath>
</defs>
</svg>
